<svg xmlns="http://www.w3.org/2000/svg" data-name="Layer 1" width="1177.82" height="724.47" viewBox="0 0 1177.82 724.47"><rect id="backgroundrect" width="100%" height="100%" x="0" y="0" fill="none" stroke="none"/><title>under construction</title><g class="currentLayer" style=""><title>Layer 1</title><path d="M1177.8199998474122,465.3099978637696 a241.36,241.36 0 0 1 -7.07,58.24 q-2.38,9.63 -5.53,18.86 a222.72,222.72 0 0 1 -8.92,22.32 q-2.55,5.52 -5.39,10.82 a145.56,145.56 0 0 1 -12.17,58.49 a150.79,150.79 0 0 1 -73.18,75.4 a153.93,153.93 0 0 1 -65.33,15 H223.58999984741212 a195.68,195.68 0 0 1 -98.42,-26.31 l-0.46,-0.26 q-6.39,-3.74 -12.46,-7.92 a195.41,195.41 0 0 1 -25.57,-21.08 A190.28,190.28 0 0 1 58.569999847412106,634.0399978637695 a185.86,185.86 0 0 1 -28.59,-99.23 c-18.95,-33.25 -30,-73.08 -30,-115.88 c0,-54 17.56,-103.26 46.41,-140.55 a197.6,197.6 0 0 1 19.71,-21.93 a183.42,183.42 0 0 1 22.54,-18.45 a175.38,175.38 0 0 1 20,-12 c2.89,-1.47 5.79,-2.8600000000000003 8.74,-4.15 c2.59,-1.15 5.21,-2.22 7.86,-3.23 q4.77,-1.81 9.66,-3.33 t9.65,-2.66 q7,-1.71 14.24,-2.7800000000000002 c4,-0.5900000000000001 8,-1 12,-1.31 c3.18,-0.24000000000000002 6.39,-0.37000000000000005 9.620000000000001,-0.41000000000000003 h1.75 c3.56,0 7.1,0.14 10.61,0.38000000000000006 c0.37000000000000005,-0.7400000000000001 0.77,-1.49 1.1400000000000001,-2.22 c1.4,-2.67 2.85,-5.33 4.3100000000000005,-7.93 a0.25,0.25 0 0 1 0,-0.07 c0.25,-0.46 0.5,-0.91 0.7600000000000001,-1.35 c1.18,-2.13 2.41,-4.24 3.67,-6.33 c0.5800000000000001,-1 1.15,-1.94 1.7400000000000002,-2.88 a7.66,7.66 0 0 1 0.41000000000000003,-0.6800000000000002 q0.9,-1.5 1.83,-3 q4.63,-7.4 9.63,-14.54 l0.8500000000000001,-1.22 c0.52,-0.7400000000000001 1,-1.46 1.58,-2.2 c1.3800000000000001,-1.9300000000000002 2.8,-3.87 4.23,-5.77 c1,-1.36 2,-2.71 3.08,-4 q3.9,-5 8,-10 t8.52,-9.870000000000001 c0.4,-0.45 0.8,-0.8900000000000001 1.22,-1.33 l4.27,-4.66 h0 c0.21000000000000002,-0.22000000000000003 0.39000000000000007,-0.42000000000000004 0.5900000000000001,-0.6200000000000001 h0 c0.51,-0.55 1,-1.1 1.55,-1.6300000000000001 c2.29,-2.43 4.640000000000001,-4.8100000000000005 7,-7.18 a381.2,381.2 0 0 1 38.3,-33.37 c0.53,-0.42000000000000004 1.07,-0.8200000000000001 1.6,-1.22 c2.54,-1.9100000000000001 5.12,-3.8 7.7,-5.66 a405.31,405.31 0 0 1 44.41,-27.7 c1.06,-0.6100000000000001 2.14,-1.18 3.23,-1.7400000000000002 a424,424 0 0 1 42.49,-19.56 c7.91,-3.13 16,-6.07 24.14,-8.76 c5.42,-1.78 10.86,-3.47 16.37,-5.06 Q448.3099998474121,14.239997863769531 461.4099998474121,11.289997863769528 a463.35,463.35 0 0 1 78.24,-10.66 q12,-0.6100000000000001 24.27,-0.6300000000000001 a465,465 0 0 1 117,14.8 a4.22,4.22 0 0 0 3.63,1.8900000000000001 H687.9099998474121 c1.46,0.4 2.91,0.8 4.37,1.22 q12.23,3.52 24.11,7.69 l2,0.7200000000000001 a430.44,430.44 0 0 1 56.91,25 a410.69,410.69 0 0 1 47.65,29.44 q3.51,2.52 6.92,5.08 q4.14,-2.6500000000000004 8.42,-5.08 a165.62,165.62 0 0 1 34.88,-14.870000000000001 a159.1,159.1 0 0 1 78.24,-3.06 c33.25,7.05 63.35,24.55 87.66,49.44 a204.55,204.55 0 0 1 26.29,33.38 c0.55,0.8600000000000001 1.1,1.73 1.6300000000000001,2.6100000000000003 a220,220 0 0 1 16.74,33.37 c0.17,0.43000000000000005 0.3400000000000001,0.8300000000000001 0.49000000000000005,1.25 a231.09,231.09 0 0 1 10.3,33.35 c0.12000000000000001,0.5800000000000001 0.26,1.15 0.38000000000000006,1.73 a240.11,240.11 0 0 1 4.92,33.37 c0,0.4 0,0.81 0.08000000000000002,1.23 q0.6300000000000001,8.71 0.6400000000000001,17.6 c0,5.3 -0.18000000000000002,10.56 -0.51,15.78 c0,0.5700000000000001 -0.08000000000000002,1.1600000000000001 -0.13,1.75 c-0.09000000000000002,1.51 -0.22000000000000003,3 -0.35000000000000003,4.52 a189.79,189.79 0 0 1 21.38,20.17 q4.37,4.77 8.46,9.9 a210.61,210.61 0 0 1 21.8,33.37 C1168.0999998474122,387.5699978637695 1177.8199998474122,425.1199978637695 1177.8199998474122,465.3099978637696 z" fill="#fb690a" opacity="0.1" id="svg_1" class="" fill-opacity="1"/><path d="M1064.8199998474122,705.7399978637695 c0,6.83 -23.53,13.23 -64.59,18.73 H223.58999984741212 a195.68,195.68 0 0 1 -98.42,-26.31 l-0.46,-0.26 c11.8,-4.3 33.1,-8.31 62.09,-11.93 h0 l1.3,-0.16000000000000003 c13,-1.59 27.53,-3.1 43.41,-4.53 c0.4,0 0.81,-0.06000000000000001 1.21,-0.11000000000000001 h0 q18.9,-1.6800000000000002 40.21,-3.15 c0.45,0 0.8900000000000001,-0.08000000000000002 1.34,-0.1 q8.22,-0.5900000000000001 16.78,-1.12 h0 l2.2,-0.14 c41.55,-2.58 88.78,-4.640000000000001 140,-6 h0.06000000000000001 q10.76,-0.30000000000000004 21.75,-0.53 q12.22,-0.29000000000000004 24.74,-0.51 c6.37,-0.14 12.82,-0.24000000000000002 19.29,-0.3400000000000001 h0.15000000000000002 c29.19,-0.44000000000000006 59.35,-0.6600000000000001 90.19,-0.6600000000000001 c76.26,0 148.34,1.3900000000000001 212.21,3.89 h0.18000000000000002 c9.82,0.38000000000000006 19.46,0.8 28.86,1.23 l8,0.38000000000000006 q15.91,0.7600000000000001 31,1.6300000000000001 h0 C987.9799998474122,682.4799978637695 1064.8199998474122,693.4099978637695 1064.8199998474122,705.7399978637695 z" fill="#fb690a" opacity="0.1" id="svg_2" class="" fill-opacity="1"/><g opacity="0.2" id="svg_3" class="" fill-opacity="1" fill="#fb690a"><path d="M680.2799998474121,664.0299978637695 A19,19 0 0 1 679.9099998474121,667.2399978637695 q-10.44,-1.6600000000000001 -21,-3 c0,-0.28 0,-0.5700000000000001 0,-0.8600000000000001 a16.88,16.88 0 0 1 2.5,-8.48 c2.06,-3.26 5.19,-5.3 8.64,-5.19 s6.44,2.34 8.29,5.71 A16.87,16.87 0 0 1 680.2799998474121,664.0299978637695 z" fill="#fb690a" id="svg_4"/><ellipse cx="595.8900146484375" cy="2038.610107421875" rx="14.010000228881836" ry="10.699999809265137" transform="rotate(-88.19000244140625 -85.31999969482435,1304.2800292968748) " fill="#fb690a" id="svg_5"/><ellipse cx="614.0700073242188" cy="2005.449951171875" rx="14.010000228881836" ry="10.699999809265137" transform="rotate(-88.19000244140625 -67.68000030517575,1288.239990234375) " fill="#fb690a" id="svg_6"/><ellipse cx="632.239990234375" cy="1972.2900390625" rx="14.010000228881836" ry="10.699999809265137" transform="rotate(-88.19000244140625 -50.04999923706042,1272.1999511718752) " fill="#fb690a" id="svg_7"/><ellipse cx="650.4100341796875" cy="1939.1300048828125" rx="14.010000228881836" ry="10.699999809265137" transform="rotate(-88.19000244140625 -32.41999816894532,1256.1600341796875) " fill="#fb690a" id="svg_8"/><path d="M635.3799998474121,476.7899978637695 a49.66,49.66 0 0 1 -3.8,-6 l28.26,-3.73 l-30.42,-0.7300000000000001 a51.38,51.38 0 0 1 0.31000000000000005,-40.64 l40.12,22.45 l-36.75,-28.84 a51.28,51.28 0 1 1 82.84,60 a50.8,50.8 0 0 1 5.55,9.53 l-37.09,17.8 l39.33,-11.83 A51.34,51.34 0 0 1 713.9099998474121,542.7099978637696 a51.28,51.28 0 1 1 -80.56,-2.54 a51.28,51.28 0 0 1 2,-63.38 z" fill="#fb690a" id="svg_9"/><path d="M725.9099998474121,511.3699978637695 a51,51 0 0 1 -12,31.34 a51.28,51.28 0 1 1 -80.56,-2.54 C626.7799998474121,531.2399978637695 726.0899998474121,505.6199978637695 725.9099998474121,511.3699978637695 z" opacity="0.1" id="svg_10" fill="#fb690a"/></g><g opacity="0.2" id="svg_11" class="" fill-opacity="1" fill="#fb690a"><path d="M528.2799998474121,664.0299978637695 A19,19 0 0 1 527.9099998474121,667.2399978637695 q-10.44,-1.6600000000000001 -21,-3 c0,-0.28 0,-0.5700000000000001 0,-0.8600000000000001 a16.88,16.88 0 0 1 2.5,-8.48 c2.06,-3.26 5.19,-5.3 8.64,-5.19 s6.44,2.34 8.29,5.71 A16.87,16.87 0 0 1 528.2799998474121,664.0299978637695 z" fill="#fb690a" id="svg_12"/><ellipse cx="296.6800231933594" cy="1886.68994140625" rx="14.010000228881836" ry="10.699999809265137" transform="rotate(-88.19000244140625 -232.52999877929693,1152.3599853515625) " fill="#fb690a" id="svg_13"/><ellipse cx="314.8599853515625" cy="1853.530029296875" rx="14.010000228881836" ry="10.699999809265137" transform="rotate(-88.19000244140625 -214.88999938964835,1136.3199462890625) " fill="#fb690a" id="svg_14"/><ellipse cx="333.02996826171875" cy="1820.3701171875" rx="14.010000228881836" ry="10.699999809265137" transform="rotate(-88.19000244140625 -197.25999450683597,1120.280029296875) " fill="#fb690a" id="svg_15"/><ellipse cx="351.20001220703125" cy="1787.2099609375" rx="14.010000228881836" ry="10.699999809265137" transform="rotate(-88.19000244140625 -179.63000488281227,1104.2399902343752) " fill="#fb690a" id="svg_16"/><path d="M483.37999984741214,476.7899978637695 a49.66,49.66 0 0 1 -3.8,-6 l28.26,-3.73 l-30.42,-0.7300000000000001 a51.38,51.38 0 0 1 0.31000000000000005,-40.64 l40.12,22.45 l-36.75,-28.84 a51.28,51.28 0 1 1 82.84,60 a50.8,50.8 0 0 1 5.55,9.53 l-37.09,17.8 l39.33,-11.83 A51.34,51.34 0 0 1 561.9099998474121,542.7099978637696 a51.28,51.28 0 1 1 -80.56,-2.54 a51.28,51.28 0 0 1 2,-63.38 z" fill="#fb690a" id="svg_17"/><path d="M573.9099998474121,511.3699978637695 a51,51 0 0 1 -12,31.34 a51.28,51.28 0 1 1 -80.56,-2.54 C474.7799998474121,531.2399978637695 574.0899998474121,505.6199978637695 573.9099998474121,511.3699978637695 z" opacity="0.1" id="svg_18" fill="#fb690a"/></g><g opacity="0.2" id="svg_19" class="" fill-opacity="1" fill="#fb690a"><path d="M943.4799998474122,674.9699978637695 a37.3,37.3 0 0 1 -0.7300000000000001,6.08 q-20.1,-3.21 -40.49,-5.74 c0,-0.54 0,-1.09 0,-1.6500000000000001 a32.5,32.5 0 0 1 4.82,-16.33 c4,-6.27 10,-10.2 16.63,-10 s12.4,4.51 16,11 A32.53,32.53 0 0 1 943.4799998474122,674.9699978637695 z" fill="#fb690a" id="svg_20"/><ellipse cx="1100.68994140625" cy="2282.010009765625" rx="26.979999542236328" ry="20.610000610351562" transform="rotate(-88.19000244140625 165.6900024414063,1552.9000244140625) " fill="#fb690a" id="svg_21"/><ellipse cx="1135.679931640625" cy="2218.169921875" rx="26.979999542236328" ry="20.610000610351562" transform="rotate(-88.19000244140625 199.63999938964852,1522.02001953125) " fill="#fb690a" id="svg_22"/><ellipse cx="1170.6700439453125" cy="2154.340087890625" rx="26.979999542236328" ry="20.610000610351562" transform="rotate(-88.19000244140625 233.5899963378905,1491.1400146484373) " fill="#fb690a" id="svg_23"/><ellipse cx="938.1199951171875" cy="630.239990234375" rx="26.979999542236328" ry="20.610000610351562" transform="matrix(0.03,-1,1,0.03,267.53,1460.26) " fill="#fb690a" id="svg_24"/><path d="M857.0299998474121,314.5099978637695 a99.27,99.27 0 0 1 -7.3100000000000005,-11.53 l54.4,-7.18 l-58.55,-1.4100000000000001 a98.9,98.9 0 0 1 0.5800000000000001,-78.24 l77.25,43.21 L852.6599998474121,203.83999786376955 a98.72,98.72 0 1 1 159.47,115.56 a98.71,98.71 0 0 1 10.69,18.35 L951.4099998474121,372.03999786376954 L1027.1199998474121,349.23999786376953 a98.75,98.75 0 0 1 -18.83,92.15 a98.72,98.72 0 1 1 -155.1,-4.890000000000001 a98.75,98.75 0 0 1 3.84,-122 z" fill="#fb690a" id="svg_25"/><path d="M1031.3299998474122,381.0699978637695 a98.34,98.34 0 0 1 -23,60.34 a98.72,98.72 0 1 1 -155.1,-4.890000000000001 C840.4899998474122,419.3099978637695 1031.679999847412,369.9999978637695 1031.3299998474122,381.0699978637695 z" opacity="0.1" id="svg_26" fill="#fb690a"/></g><polygon points="157.82 676.73 168.31 676.7 183.1 676.7 201.8 372.92 386.99 63.89 378.94 55.25 378.94 33.37 178.66 365.76 157.82 676.73" fill="#a05d33" id="svg_27" class="" fill-opacity="1"/><polygon points="169.43 676.7 183.1 676.7 201.8 372.92 386.99 63.89 378.94 55.25 187.92 368.29 169.43 676.7" opacity="0.1" id="svg_28" class="" fill-opacity="1" fill="#a05d33"/><polygon points="126.91 679.26 606.76 715.98 607.17 716.01 1071.56 687.45 1071.91 687.43 1071.91 667.82 560.21 658.43 133.3 658.02 130.18 658.02 129.84 660.22 126.91 679.26" fill="#a05d33" id="svg_29" class="" fill-opacity="1"/><polygon points="126.91 679.26 606.76 715.98 607.17 716.01 1071.56 687.45 1071.91 687.07 1071.91 668.23 1071.5 668.23 606.76 683.75 133.3 658.02 133.23 658.02 132.39 658.57 129.84 660.22 126.91 679.26" opacity="0.1" id="svg_30"/><polygon points="126.91 679.26 606.76 715.98 606.76 683.75 132.39 658.57 129.84 660.22 126.91 679.26" opacity="0.1" id="svg_31"/><polygon points="378.88 54.84 590.43 281.9 583.89 681.3 601.86 683.47 602.16 683.51 620.13 683.51 622.28 299.05 1018.41 431.37 1025.09 666.97 1039.55 668.59 1044.45 669.14 1033.11 415.03 619.01 269.65 391.95 33.6 378.88 33.6 378.88 54.84" fill="#a05d33" id="svg_32" class="" fill-opacity="1"/><polygon points="620.65 291.7 622.28 299.05 1018.41 431.37 1025.09 666.97 1039.55 668.59 1028.21 426.47 620.65 291.7" opacity="0.1" id="svg_33"/><polygon points="378.88 54.84 590.43 281.9 583.89 681.3 601.86 683.47 606.76 268.83 378.88 33.6 378.88 54.84" opacity="0.1" id="svg_34"/><polygon points="621.42 451.99 766.71 480.6 766.76 480.61 1021.23 530.74 1032.88 526.07 1032.84 525.25 1032.08 509 621.57 426.05 621.42 451.99" fill="#a05d33" id="svg_35" class="" fill-opacity="1"/><polygon points="766.76 480.61 1021.23 530.74 1032.88 526.07 1032.84 525.25 766.76 480.61" opacity="0.1" id="svg_36"/><polygon points="776.49 350.56 780.42 566.9 782.45 677.89 800.34 677.29 811.6 676.91 808.1 353.69 800.34 351.11 798.64 350.56 776.49 350.56" fill="#a05d33" id="svg_37" class="" fill-opacity="1"/><polygon points="776.65 350.51 776.65 350.56 780.42 566.9 782.45 677.89 800.34 677.29 800.34 350.51 776.65 350.51" opacity="0.1" id="svg_38" class=""/><path d="M496.25999984741213,405.8099978637695 a22.79,22.79 0 0 1 3,1.9500000000000002 a19.85,19.85 0 0 1 3,3.29 c4.29,5.55 8.25,12 7.83,19 a7.73,7.73 0 0 1 -2.23,5.5 c-1.77,1.51 -4.3100000000000005,1.58 -6.63,1.58 c-2.52,0 -5.17,0 -7.35,-1.3 s-4,-3.83 -6.58,-3.77 a3.37,3.37 0 0 1 -1.1,0 c-0.8900000000000001,-0.29000000000000004 -1.07,-1.46 -1.6500000000000001,-2.2 c-1,-1.33 -3.11,-1 -4.68,-0.42000000000000004 s-3.31,1.45 -4.86,0.78 a5.05,5.05 0 0 1 -2.11,-2.11 c-3.71,-6 -4.5,-13.21 -5.2,-20.18 c-0.43000000000000005,-4.24 -3.71,-18.7 5.34,-15.41 c4,1.44 7.74,4.32 11.38,6.43 z" fill="#3f3d56" id="svg_39"/><path d="M487.31999984741213,407.23999786376953 a4.46,4.46 0 0 0 5.49,-0.22000000000000003 a8.27,8.27 0 0 0 2.67,-5.18 c1,-0.31000000000000005 1.51,1 2.15,1.8 c1.12,1.36 3.4,1.34 4.42,2.79 c0.7100000000000001,1 0.55,2.39 1.05,3.52 c0.6500000000000001,1.46 2.26,2.22 3.36,3.4 a11.58,11.58 0 0 1 2.2,4.39 l1.6400000000000001,4.92 a24.32,24.32 0 0 1 1.5,6.37 a8.25,8.25 0 0 1 -1.9,6.09 c-2.2,2.37 -5.8100000000000005,2.62 -9,2.55 a11.58,11.58 0 0 1 -3.16,-0.37000000000000005 c-2.83,-0.8800000000000001 -4.640000000000001,-3.73 -5.39,-6.6 s-0.6700000000000002,-5.88 -1.11,-8.82 a34.57,34.57 0 0 0 -2.5,-8.38 c-0.8800000000000001,-2.08 -3.3,-5.18 -3.26,-7.39 C486.19999984741213,406.10999786376954 486.7199998474121,406.7699978637695 487.31999984741213,407.23999786376953 z" fill="#3f3d56" id="svg_40"/><path d="M490.9099998474121,397.10999786376954 a16.51,16.51 0 0 1 -0.81,-4.39 c0,-3 1.37,-5.82 2.75,-8.5 l-11.43,1.55 c-1.3800000000000001,0.19000000000000003 -2.92,0.47000000000000003 -3.7,1.62 a4,4 0 0 0 0,3.6900000000000004 a18.86,18.86 0 0 1 1.36,3.5700000000000003 a17.83,17.83 0 0 0 0.37000000000000005,3.21 a6.8,6.8 0 0 0 1.47,2.07 c3.27,3.62 5.72,7.890000000000001 8.16,12.12 c-0.07,-0.12000000000000001 6.890000000000001,-5.51 6.61,-7.27 c-0.16000000000000003,-1 -2.17,-2.2 -2.81,-3.16 A16.09,16.09 0 0 1 490.9099998474121,397.10999786376954 z" fill="#be6f72" id="svg_41"/><polygon points="588.91 358.04 588.91 367.89 420.24 400.79 411.49 406.09 381.3 406.09 381.3 400.54 547.02 360.5 588.91 358.04" fill="#a05d33" id="svg_42" class="" fill-opacity="1"/><polygon points="588.91 367.89 420.24 400.79 411.49 406.09 381.3 406.09 548.25 370.36 588.91 367.89" opacity="0.1" id="svg_43"/><path d="M453.4899998474121,637.6599978637695 a13.07,13.07 0 0 0 -15.9,-3.38 a4.19,4.19 0 0 0 -1.46,1.1400000000000001 c-1,1.4 -0.36000000000000004,3.33 -0.27,5.06 c0.23,4.22 -3.13,7.65 -6.15,10.6 c-1.62,1.58 -3.27,3.27 -4,5.42 s-0.19000000000000003,4.88 1.77,6 a7.37,7.37 0 0 0 2.74,0.7600000000000001 a29.57,29.57 0 0 0 9.7,0.27 c3.19,-0.6100000000000001 6.32,-2.42 7.7,-5.36 A5.65,5.65 0 0 1 448.9099998474121,656.0399978637695 c1.7600000000000002,-1.3900000000000001 4.46,0.24000000000000002 6.46,-0.7500000000000001 c1.6500000000000001,-0.8200000000000001 1.7200000000000002,-2.11 1.7400000000000002,-3.81 C457.1699998474121,646.7799978637695 456.4699998474121,641.4599978637696 453.4899998474121,637.6599978637695 z" fill="#fb690a" id="svg_44" class="" fill-opacity="1"/><path d="M477.4899998474121,637.4799978637695 c1.23,3.24 1.4,6.77 1.56,10.23 c0.09000000000000002,2 0.15000000000000002,4.14 -0.93,5.83 s-3.19,2.58 -5.21,3 c-4.17,0.8600000000000001 -9,0.05000000000000001 -11.69,-3.26 c-2.06,-2.5300000000000002 -2.49,-6 -2.11,-9.28 c0.32000000000000006,-2.6900000000000004 1,-5.84 -0.93,-7.75 c-0.5,-0.51 -1.15,-0.8700000000000001 -1.61,-1.42 c-1,-1.22 -0.8400000000000001,-3.06 -0.30000000000000004,-4.5600000000000005 a19.81,19.81 0 0 0 1.57,-4.51 c0.08000000000000002,-0.7400000000000001 13.54,0.52 14.78,1.13 c1.6900000000000002,0.8300000000000001 1.4300000000000002,2.22 1.94,3.9 C475.2699998474121,633.1299978637695 476.62999984741214,635.2399978637695 477.4899998474121,637.4799978637695 z" fill="#fb690a" id="svg_45" class="" fill-opacity="1"/><path d="M479.9599998474121,493.8199978637696 c2.64,1.71 3.66,5.07 4.07,8.19 c1.13,8.55 -0.8500000000000001,17.19 -1,25.82 c-0.14,12.09 3.36,24.4 0.37000000000000005,36.11 c-1.79,7 -0.27,15 -1.9500000000000002,22.07 c-0.5,2.1 -1.42,4.08 -1.9,6.18 c-1,4.55 0.05000000000000001,9.31 1.46,13.76 a14.21,14.21 0 0 1 0.8500000000000001,3.73 a13.42,13.42 0 0 1 -1.46,5.640000000000001 l-6,14.19 c-0.6700000000000002,1.59 -3.31,1.85 -5,2.06 c-3.18,0.38000000000000006 -6.73,0.6500000000000001 -9.26,-1.32 s-3.14,-5.27 -3.5300000000000002,-8.35 a128,128 0 0 1 -1,-17.83 a14.69,14.69 0 0 0 -0.41000000000000003,-4.63 c-0.55,-1.71 -1.7600000000000002,-3.19 -2.09,-5 c-0.42000000000000004,-2.34 0.77,-4.640000000000001 1.21,-7 a21.09,21.09 0 0 0 -0.1,-6.49 c-0.39000000000000007,-3.2 -0.8400000000000001,-6.4 -1.35,-9.58 c-0.7200000000000001,-4.45 0.31000000000000005,-8.84 1,-13.3 c0.6500000000000001,-4.19 -0.18000000000000002,-8.46 -1,-12.620000000000001 a34.79,34.79 0 0 1 -1.25,10 c-0.53,1.59 -1.29,3.11 -1.75,4.73 c-2.05,7.27 2.3200000000000003,14.9 1.7000000000000002,22.43 c-0.29000000000000004,3.52 -1.6700000000000002,7 -1.28,10.47 c0.27,2.54 1.45,4.87 2.26,7.29 s1.23,5.19 0,7.45 c-3.25,6.14 -0.8200000000000001,14.49 2.09,20.79 a28.06,28.06 0 0 1 1.54,3.46 c0.8600000000000001,2.84 0.14,5.890000000000001 0.37000000000000005,8.85 a5.58,5.58 0 0 1 -4.69,-1.4100000000000001 c-0.44000000000000006,-0.46 -0.8,-1 -1.23,-1.48 a12.21,12.21 0 0 0 -4.18,-2.6100000000000003 a5.49,5.49 0 0 0 -3,-0.6900000000000002 a6,6 0 0 0 -2.85,1.77 a27.94,27.94 0 0 1 -3.14,2.39 a3.72,3.72 0 0 1 -1.6,0.7100000000000001 a1.4100000000000001,1.4100000000000001 0 0 1 -1.47,-0.7500000000000001 a1.78,1.78 0 0 1 -0.11000000000000001,-0.52 a79.14,79.14 0 0 1 -0.5900000000000001,-9.1 c0,-5.23 -6.26,-8.83 -7.05,-14 c-0.6300000000000001,-4.17 0.54,-8.42 0.15000000000000002,-12.620000000000001 c-0.19000000000000003,-2.16 -0.79,-4.28 -0.7500000000000001,-6.44 c0,-1.4 0.32000000000000006,-2.77 0.43000000000000005,-4.16 a31.12,31.12 0 0 0 -0.07,-4.63 l-0.31000000000000005,-4.83 c-0.30000000000000004,-4.77 -0.6300000000000001,-9.64 -2.51,-14 a47.57,47.57 0 0 1 -3.9,-16.08 c-0.2,-3.5 -0.07,-7 -0.47000000000000003,-10.51 c-0.36000000000000004,-3.17 -1.1600000000000001,-6.32 -0.93,-9.5 c0.19000000000000003,-2.46 1,-4.84 1.19,-7.3 c0.39000000000000007,-4.73 -1.4100000000000001,-9.33 -2.8200000000000003,-13.86 s-2.45,-9.55 -0.6000000000000001,-13.92 a4.57,4.57 0 0 1 1.28,-1.86 a5.58,5.58 0 0 1 2.36,-0.8800000000000001 A183.11,183.11 0 0 1 471.9099998474121,491.3099978637696 A17.34,17.34 0 0 1 479.9599998474121,493.8199978637696 z" fill="#3f3d56" id="svg_46"/><circle cx="423.19000244140625" cy="371.5899963378906" r="16.020000457763672" fill="#be6f72" id="svg_47"/><path d="M420.0899998474121,391.59999786376954 a5.72,5.72 0 0 1 0,2.79 a6.32,6.32 0 0 1 -1.05,1.7600000000000002 a45.2,45.2 0 0 1 -5.13,5.58 a9.29,9.29 0 0 0 4.79,4.73 a27.81,27.81 0 0 0 6.61,1.8900000000000001 a9.32,9.32 0 0 0 3.48,0.24000000000000002 a9.23,9.23 0 0 0 3,-1.36 l8.9,-5.33 a17.78,17.78 0 0 0 3.7,-2.67 a9.11,9.11 0 0 0 2.58,-6.26 a1.7200000000000002,1.7200000000000002 0 0 0 -0.32000000000000006,-1.18 a2.1,2.1 0 0 0 -1.22,-0.51 c-3.13,-0.6900000000000002 -5.6,-3.23 -7,-6.11 a32.36,32.36 0 0 1 -2.43,-9.27 l-9.49,5 c-1.4100000000000001,0.7500000000000001 -2.81,1.5 -4.27,2.15 c-0.93,0.42000000000000004 -2.81,0.77 -3.47,1.62 C417.50999984741213,386.23999786376953 419.75999984741213,389.70999786376956 420.0899998474121,391.59999786376954 z" fill="#be6f72" id="svg_48"/><path d="M413.9699998474121,398.8199978637695 a10.55,10.55 0 0 0 -3.07,4.15 c-0.6200000000000001,2 0,4.11 0.56,6.09 a181.7,181.7 0 0 1 6,25.79 c0.8400000000000001,6 1.15,12.09 1.56,18.16 c0.8400000000000001,12.38 2.06,32.12 3.6900000000000004,44.42 c6,0.27 11.85,-1.48 17.8,-2.12 c11.12,-1.18 22.57,1.52 33.46,-1 c-2.64,-10.43 -5.28,-28.24 -7.92,-38.66 a73.77,73.77 0 0 1 -2.42,-12.55 c-0.23,-3.05 -0.09000000000000002,-6.11 -0.05000000000000001,-9.18 c0.09000000000000002,-6 -0.24000000000000002,-12 -0.5700000000000001,-18 c-0.38000000000000006,-7 -0.7600000000000001,-14 -2.42,-20.85 a3.88,3.88 0 0 0 -1.1600000000000001,-2.29 c-1,-0.7300000000000001 -2.3,-0.47000000000000003 -3.49,-0.31000000000000005 a15.18,15.18 0 0 1 -10.38,-2.46 c-1.32,-0.9 -3.09,-2 -4.32,-1 a4.3,4.3 0 0 0 -1,2.13 a10.65,10.65 0 0 1 -6.26,6.17 a31.33,31.33 0 0 1 -8.86,1.82 a4.35,4.35 0 0 1 -2.75,-0.31000000000000005 c-1.42,-0.8700000000000001 -1.52,-4 -3.31,-4.21 C417.4899998474121,394.42999786376953 415.0299998474121,397.8099978637695 413.9699998474121,398.8199978637695 z" fill="#3f3d56" id="svg_49"/><path d="M437.62999984741214,423.23999786376953 c-3.6900000000000004,-3.5300000000000002 -5.3100000000000005,-8.65 -8,-13 a28.94,28.94 0 0 0 -6.91,-7.6 a20.61,20.61 0 0 1 -3.7600000000000002,-3.19 c-0.9500000000000001,-1.17 -1.6700000000000002,-2.73 -3.11,-3.18 a3.7600000000000002,3.7600000000000002 0 0 0 -3.37,0.93 a33.16,33.16 0 0 0 -2.5,2.66 c-4.24,4.39 -11.69,5 -15.05,10.08 a8.26,8.26 0 0 0 -1.79,3.75 a29.06,29.06 0 0 0 5.34,20.9 a7.1,7.1 0 0 0 3.7,3 a11.58,11.58 0 0 0 0.7200000000000001,5.5 a147.07,147.07 0 0 0 6.8100000000000005,18.55 a44.87,44.87 0 0 0 -1.34,7.19 c-0.7000000000000001,6.11 -0.05000000000000001,12.31 -0.7100000000000001,18.43 c-0.54,5 -2,9.870000000000001 -2.05,14.88 c0,0.8 0.07,1.75 0.7600000000000001,2.16 a2.3,2.3 0 0 0 1.19,0.25 l12.3,0.37000000000000005 c7.14,0.21000000000000002 14.35,0.42000000000000004 21.38,-0.9 a8.9,8.9 0 0 0 2.6900000000000004,-0.8500000000000001 c2.38,-1.33 3.17,-4.33 3.55,-7 a61,61 0 0 0 0.5900000000000001,-10.46 c1.49,4.71 3.26,9.58 7.76,11.620000000000001 c2.38,1.08 5.1,1 7.71,0.93 a145.16,145.16 0 0 0 16.79,-1.73 a2.21,2.21 0 0 0 2.45,-2.5700000000000003 l0.06000000000000001,-5.46 c0.12000000000000001,-11.09 -2.63,-21.69 -3.7,-32.73 c-0.3400000000000001,-3.48 -0.31000000000000005,-7 -1.1600000000000001,-10.41 c-0.35000000000000003,-1.4300000000000002 -0.8600000000000001,-2.83 -1.17,-4.27 a30.52,30.52 0 0 1 -0.5,-4.27 l-0.78,-11 c-0.37000000000000005,-5.09 -0.9,-10 -1.29,-15.08 a73,73 0 0 0 -2.14,-14.66 c-0.8700000000000001,-3 -2.68,-6.4 -5.8100000000000005,-6.77 c-1.6700000000000002,-0.19000000000000003 -3.29,0.54 -4.88,1.05 a19.72,19.72 0 0 1 -12,-0.05000000000000001 a16.9,16.9 0 0 0 -3.74,-1 a3.67,3.67 0 0 0 -3.42,1.42 a5.13,5.13 0 0 0 -0.53,2.52 C441.2499998474121,403.23999786376953 440.37999984741214,413.52999786376955 437.62999984741214,423.23999786376953 z" fill="#fb690a" id="svg_50" class="" fill-opacity="1"/><path d="M421.5399998474121,423.53999786376954 c-4.61,-4.86 -9.34,-9.81 -15.28,-12.9 c-2.34,-1.22 -5,-2.14 -7.59,-1.6800000000000002 s-5,2.71 -4.88,5.34 c0.08000000000000002,1.6300000000000001 1.07,3.07 1.3800000000000001,4.67 c0.36000000000000004,1.8 -0.16000000000000003,3.72 0.4,5.46 a9.24,9.24 0 0 0 2,3.07 l7.08,8.39 c3,3.5 6,7.05 9.86,9.47 s8.86,3.55 13.1,1.83 a16.1,16.1 0 0 0 7.18,-6.59 c1.7600000000000002,-2.8 3,-5.86 4.65,-8.75 a43.45,43.45 0 0 1 10,-12.13 c-2.08,-0.54 -4.69,-1.3 -6,-3 a9.91,9.91 0 0 1 -0.9500000000000001,-1.7200000000000002 l-1.62,-3.5 a4,4 0 0 0 -3,1.13 a25.16,25.16 0 0 1 -2.23,2.27 c-1.4100000000000001,1.06 -3.3200000000000003,1.35 -4.6,2.56 a12.19,12.19 0 0 0 -1.34,1.6800000000000002 A11.22,11.22 0 0 1 421.5399998474121,423.53999786376954 z" fill="#3f3d56" id="svg_51"/><path d="M449.8099998474121,402.6299978637695 c3.47,-6.33 3.31,-13.92 4.3,-21.07 a9.620000000000001,9.620000000000001 0 0 1 1.9100000000000001,-5.23 c2,-2.26 5.53,-2.29 8.55,-2 c0.8900000000000001,0.1 2,0.52 1.9500000000000002,1.4100000000000001 a1.8,1.8 0 0 1 -0.45,0.8500000000000001 a23.79,23.79 0 0 0 -4.94,13.12 c1.57,1.09 4,-1.15 5.51,0 c1,0.8400000000000001 0.54,2.5 -0.06000000000000001,3.7 q-2.09,4.17 -4.3100000000000005,8.28 a26.59,26.59 0 0 1 -4.57,6.59 c-1.27,1.22 -2.7600000000000002,2.18 -4.05,3.38 c-3,2.81 -4.8100000000000005,6.78 -7.91,9.52 a1.62,1.62 0 0 1 -1,0.51 a1.6800000000000002,1.6800000000000002 0 0 1 -1.05,-0.47000000000000003 a15.16,15.16 0 0 1 -3.7800000000000002,-4.57 c-1.18,-2.18 -1,-2.8200000000000003 0.8600000000000001,-4.36 C444.2499998474121,409.53999786376954 447.6399998474121,406.58999786376955 449.8099998474121,402.6299978637695 z" fill="#be6f72" id="svg_52"/><path d="M415.7399998474121,419.23999786376953 c0.6000000000000001,0.37000000000000005 1.34,0.79 2,0.48000000000000004 a2.08,2.08 0 0 0 0.6700000000000002,-0.6500000000000001 a23.54,23.54 0 0 0 2.84,-4.94 a1.9,1.9 0 0 0 0.21000000000000002,-0.8 c0,-0.6400000000000001 -0.5700000000000001,-1.11 -1.1,-1.48 a40.76,40.76 0 0 0 -9.09,-4.32 c-2.64,-1 -5.4,-1.87 -8.2,-1.62 a7.82,7.82 0 0 0 -5.47,2.7800000000000002 c-2,2.5700000000000003 1.35,3.35 3.45,4.28 C405.9099998474121,415.17999786376953 411.1699998474121,416.45999786376956 415.7399998474121,419.23999786376953 z" fill="#fb690a" id="svg_53" class="" fill-opacity="1"/><path d="M412.5899998474121,436.23999786376953 a1.47,1.47 0 0 0 0.42000000000000004,1.26 c0.29000000000000004,-1.42 -0.09000000000000002,-2.92 0.21000000000000002,-4.35 c0.44000000000000006,-2.15 2.5300000000000002,-3.77 2.71,-5.93 C412.0999998474121,426.46999786376955 412.6199998474121,433.9199978637695 412.5899998474121,436.23999786376953 z" opacity="0.1" id="svg_54"/><polygon points="588.91 358.04 588.91 367.89 548.25 370.36 547.02 360.5 588.91 358.04" opacity="0.2" id="svg_55"/><path d="M408.7699998474121,373.96999786376955 c2.54,-2.07 1.07,-6.41 2.79,-9.19 c1,-1.52 2.6900000000000004,-2.3200000000000003 4.35,-3 a19.79,19.79 0 0 1 6.35,-1.7600000000000002 a7.37,7.37 0 0 1 6,2.21 c0.6500000000000001,0.7400000000000001 1.09,1.6400000000000001 1.7000000000000002,2.41 a6.5,6.5 0 0 0 6.3,2.18 c1.33,-0.30000000000000004 2.71,-1.31 2.62,-2.67 a3.77,3.77 0 0 0 -1.2,-2.14 l-2.8600000000000003,-3.17 c-3.25,-3.6 -6.86,-7.42 -11.63,-8.32 c-3.3200000000000003,-0.6300000000000001 -6.72,0.26 -9.92,1.33 c-1.29,0.43000000000000005 -2.74,1.07 -3.1,2.38 c-0.24000000000000002,0.9 0.12000000000000001,1.8800000000000001 -0.09000000000000002,2.79 c-0.41000000000000003,1.81 -2.73,2.42 -3.81,3.94 s-0.7500000000000001,3.3200000000000003 -1.06,5 s-1.21,3.3200000000000003 -1.32,5.06 c-0.07,1.05 0.46,3 1.6400000000000001,3.38 S408.0399998474121,372.71999786376955 408.7699998474121,373.96999786376955 z" fill="#3f3d56" id="svg_56"/><path d="M437.9099998474121,362.70999786376956 a30,30 0 0 0 -5.32,-12.16 a21.31,21.31 0 0 0 -9.47,-7.52 a13.56,13.56 0 0 0 -11.79,0.93 a17.12,17.12 0 0 0 -5.890000000000001,7.43 c-2.59,5.58 -3.55,12.4 -0.54,17.76 c1.2,-1.46 3.26,-0.8 5.08,-1.33 c2.2800000000000002,-0.6500000000000001 4.21,-2.17 6.38,-3.12 C422.9099998474121,361.8099978637695 430.9099998474121,364.14999786376956 437.9099998474121,362.70999786376956 z" fill="#fed253" id="svg_57"/><path d="M406.4299998474121,362.39999786376956 c-0.23,-1.8 -0.38000000000000006,-3.89 0.9,-5.17 a0.6500000000000001,0.6500000000000001 0 0 1 0.53,-0.24000000000000002 a0.6900000000000002,0.6900000000000002 0 0 1 0.41000000000000003,0.36000000000000004 a22.38,22.38 0 0 1 1.8800000000000001,3.68 a3.8200000000000003,3.8200000000000003 0 0 0 -4,1.55 " opacity="0.1" id="svg_58"/><path d="M429.7999998474121,357.3199978637695 l-0.36000000000000004,-3.5700000000000003 a1.6300000000000001,1.6300000000000001 0 0 1 0.07,-0.8800000000000001 a1.13,1.13 0 0 1 1.46,-0.4 a3,3 0 0 1 1.17,1.17 a21,21 0 0 1 2.06,4.07 a12.1,12.1 0 0 0 -4.87,0.06000000000000001 " opacity="0.1" id="svg_59"/><polygon points="438.75 502.21 438.75 510.37 431.86 510.83 395.62 510.83 395.62 502.21 438.75 502.21" opacity="0.1" id="svg_60"/><polygon points="438.75 502.21 438.75 510.83 395.62 510.83 281.04 367.3 281.04 360.52 305.06 360.52 438.75 502.21" fill="#a05d33" id="svg_61" class="" fill-opacity="1"/><polygon points="438.75000762939453,502.20998764038086 438.75000762939453,510.82998275756836 395.62000274658203,510.82998275756836 281.0400161743164,367.2999839782715 281.0400161743164,360.5199851989746 305.0600051879883,360.5199851989746 438.75000762939453,502.20998764038086 " opacity="0.1" id="svg_62" class=""/><polygon points="438.75 502.21 438.75 510.83 395.62 510.83 281.04 367.3 281.04 360.52 396.24 502.21 438.75 502.21" opacity="0.1" id="svg_63"/><path d="M296.0599998474121,646.0699978637696 a3,3 0 0 1 -2.62,3.5300000000000002 c-2.7800000000000002,0.9400000000000001 -5.73,1.87 -7.7,4 s-2.36,6.08 0,7.8100000000000005 a7.59,7.59 0 0 0 4,1.09 c4.53,0.31000000000000005 9.25,0.25 13.36,-1.6700000000000002 c2.94,-1.36 5.71,-3.68 8.94,-3.47 c1.6700000000000002,0.1 3.45,0.8800000000000001 4.94,0.12000000000000001 s1.9100000000000001,-2.88 1.92,-4.65 a34.43,34.43 0 0 0 -1.6500000000000001,-10.89 c-0.15000000000000002,-0.48000000000000004 -6.51,-0.8500000000000001 -7.27,-1 l-7.71,-1 c-1.46,-0.19000000000000003 -4.61,-1.29 -5.76,-0.07 S296.0599998474121,644.6199978637695 296.0599998474121,646.0699978637696 z" fill="#fb690a" id="svg_64" class="" fill-opacity="1"/><path d="M342.06999984741213,621.1099978637695 a24.15,24.15 0 0 0 1.58,5.24 c1.07,2.72 2.44,5.61 5.06,6.93 c2.38,1.19 5.3,0.7600000000000001 7.72,-0.37000000000000005 a6.36,6.36 0 0 0 2.5700000000000003,-1.9500000000000002 a7.74,7.74 0 0 0 1,-4.49 c0,-3.87 -0.23,-7.87 -2,-11.31 c-1.52,-3 -4.17,-5.58 -4.21,-8.9 l-9.11,1.7600000000000002 a2.6,2.6 0 0 0 -1.34,0.53 a2.31,2.31 0 0 0 -0.5800000000000001,1.09 A29.77,29.77 0 0 0 342.06999984741213,621.1099978637695 z" fill="#fb690a" id="svg_65" class="" fill-opacity="1"/><path d="M233.2799998474121,526.1099978637695 c-0.38000000000000006,3.22 -0.22000000000000003,6.67 1.46,9.45 s5.22,4.62 8.28,3.51 a1.21,1.21 0 0 0 0.7500000000000001,-0.5700000000000001 a1.4100000000000001,1.4100000000000001 0 0 0 -0.13,-1 a14.76,14.76 0 0 1 0.31000000000000005,-11.12 c0.2,-0.46 0.6300000000000001,-1 1.1,-0.8200000000000001 a1,1 0 0 1 0.45,0.46 a5.23,5.23 0 0 1 0.7000000000000001,2.7600000000000002 a10.26,10.26 0 0 0 -0.08000000000000002,2.6500000000000004 c0.19000000000000003,0.8600000000000001 1.11,1.6700000000000002 1.9100000000000001,1.3 a2,2 0 0 0 0.91,-1.29 c2.23,-6.45 1.22,-13.5 0.2,-20.25 a1.06,1.06 0 0 0 -1.19,-1.11 c-4.72,-0.47000000000000003 -7.3,-1.6 -10,2.79 C235.6299998474121,516.5699978637696 233.2799998474121,521.6599978637695 233.2799998474121,526.1099978637695 z" fill="#fb690a" id="svg_66" class="" fill-opacity="1"/><path d="M288.4599998474121,509.69999786376957 c-1.4,5.82 -2.81,11.71 -2.9,17.69 a81.27,81.27 0 0 0 0.8400000000000001,11.13 l1.05,8.66 c0.36000000000000004,2.92 0.7100000000000001,5.83 1.22,8.72 a23.15,23.15 0 0 1 0.53,4.53 a24.26,24.26 0 0 1 -0.7100000000000001,4.45 a52,52 0 0 0 -1.05,9.3 c-0.11000000000000001,5 0.51,10 0.9,15 a167.05,167.05 0 0 1 -0.35000000000000003,29.92 a11.22,11.22 0 0 0 1.6400000000000001,7.71 a9.92,9.92 0 0 1 1.45,2.38 c0.7500000000000001,2.29 -1,4.58 -1.45,6.93 a7,7 0 0 0 5.82,8 c8,0.9500000000000001 16.22,0.52 23.43,4.18 c0.7600000000000001,-2.22 -0.9,-4.74 -0.14,-7 c0.48000000000000004,-1.4 1.8,-2.31 2.7,-3.49 a10.16,10.16 0 0 0 1.7200000000000002,-6.1 a22.29,22.29 0 0 0 -1.48,-8.27 c-0.8500000000000001,-2.2 -2.07,-4.37 -2,-6.73 c0,-1.1600000000000001 0.41000000000000003,-2.38 -0.06000000000000001,-3.45 a5.39,5.39 0 0 0 -1.29,-1.61 a20.33,20.33 0 0 1 -5.23,-11.85 a54.58,54.58 0 0 1 0.42000000000000004,-13.14 c0.49000000000000005,-4.14 1.15,-8.51 3.7800000000000002,-11.74 a75.33,75.33 0 0 1 2.11,-29.25 c0.26,-0.8800000000000001 0.6700000000000002,-1.9 1.57,-2.11 a2.24,2.24 0 0 1 1.92,0.7600000000000001 c1.57,1.47 2.3200000000000003,3.6 3,5.640000000000001 c0.7500000000000001,2.21 1.51,4.57 0.9400000000000001,6.83 c-0.24000000000000002,1 -0.7200000000000001,1.8800000000000001 -1,2.84 a8.42,8.42 0 0 0 0.30000000000000004,5.87 a5.640000000000001,5.640000000000001 0 0 1 0.7200000000000001,2.21 a6.12,6.12 0 0 1 -0.6000000000000001,1.92 a8.84,8.84 0 0 0 0.8300000000000001,7.15 a25.89,25.89 0 0 0 4.67,5.73 a21,21 0 0 0 0.6500000000000001,11.56 a1.46,1.46 0 0 1 0.13,1.11 c-0.18000000000000002,0.38000000000000006 -0.6400000000000001,0.52 -1,0.79 c-1,0.8200000000000001 -0.38000000000000006,2.37 0.29000000000000004,3.44 a78.88,78.88 0 0 0 6.07,8.42 c2,2.39 1.82,7 4.8,7.86 a9,9 0 0 0 3.8,0 c2.94,-0.45 6.22,-1.3 7.66,-3.9 c0.5900000000000001,-1.07 0.8300000000000001,-2.37 1.75,-3.17 s2.11,-0.9400000000000001 2.62,-1.9 s-0.06000000000000001,-2.22 0.11000000000000001,-3.33 s1.1400000000000001,-2 1.45,-3.17 c0.7400000000000001,-2.7 -2.41,-4.92 -2.84,-7.68 c-0.6200000000000001,-4 4.42,-7 4.21,-11 c-0.44000000000000006,-8.69 -0.7200000000000001,-17.42 -1.17,-26.11 a188.26,188.26 0 0 1 -0.24000000000000002,-23.39 c0.35000000000000003,-4.85 1,-9.93 -0.78,-14.44 c-2.56,-6.36 -9.620000000000001,-9.93 -16.45,-10.61 s-13.64,0.9400000000000001 -20.41,2 A129,129 0 0 1 288.4599998474121,509.69999786376957 z" fill="#3f3d56" id="svg_67"/><circle cx="308.760009765625" cy="398.1000061035156" r="16.020000457763672" fill="#fbbebe" id="svg_68"/><path d="M302.2399998474121,417.10999786376954 A6.83,6.83 0 0 1 295.7099998474121,421.23999786376953 c-0.5800000000000001,2.4 0.81,4.82 2.4,6.71 a28.48,28.48 0 0 0 27.26,9.35 a13.45,13.45 0 0 0 5.37,-2.24 a11.91,11.91 0 0 0 4.1,-7.1 a35.3,35.3 0 0 0 0.39000000000000007,-8.35 a2.16,2.16 0 0 0 -0.44000000000000006,-1.54 a2.2,2.2 0 0 0 -1.4,-0.46 c-3.38,-0.30000000000000004 -6.91,-0.43000000000000005 -9.88,-2.09 s-5.08,-5.41 -3.6500000000000004,-8.49 c-0.23,0.48000000000000004 -6.07,0.7100000000000001 -6.84,0.81 c-2.41,0.3400000000000001 -4.82,0.7200000000000001 -7.22,1.1600000000000001 a13.13,13.13 0 0 0 -3.39,0.6400000000000001 c-1.45,0.7500000000000001 -0.91,0.38000000000000006 -0.5700000000000001,1.7400000000000002 C302.3499998474121,413.45999786376956 303.0999998474121,414.9499978637695 302.2399998474121,417.10999786376954 z" fill="#fbbebe" id="svg_69"/><path d="M314.4299998474121,426.84999786376954 a26.53,26.53 0 0 1 -6.41,-0.7100000000000001 a9,9 0 0 1 -5.26,-3.51 c-0.7400000000000001,-1.12 -1.22,-2.5300000000000002 -2.4,-3.16 c-1.9300000000000002,-1 -4.13,0.6900000000000002 -5.67,2.24 a20.6,20.6 0 0 1 -4.82,3.88 c-2.14,1.13 -4.640000000000001,1.53 -6.66,2.8600000000000003 a16.74,16.74 0 0 0 -4,4.32 l-14.17,19.3 c-5.69,7.76 -10.64,16.09 -15.71,24.28 c-4.39,7.09 -6.69,15.25 -10,22.9 a2.56,2.56 0 0 0 -0.31000000000000005,1.54 c0.12000000000000001,0.52 0.7500000000000001,0.9400000000000001 1.19,0.6400000000000001 c-1.49,1.48 -0.18000000000000002,4 -0.53,6.08 a7.46,7.46 0 0 1 -2.38,3.73 a18.8,18.8 0 0 1 6.6,0.31000000000000005 a20.23,20.23 0 0 1 6.24,3 c1.21,-0.19000000000000003 1.1,-2.34 2,-3.14 c0.54,-0.47000000000000003 1.34,-0.41000000000000003 2.05,-0.55 c2.67,-0.52 3.73,-3.73 5.78,-5.54 c1.71,-1.51 4.13,-2 5.94,-3.42 c2.94,-2.31 3.5700000000000003,-6.42 5.11,-9.83 c1.31,-2.89 3.37,-5.41 4.52,-8.37 c0.7500000000000001,-1.92 1.11,-4 2.18,-5.77 c1.71,-2.8600000000000003 4.93,-4.38 8,-5.75 c1.94,-0.8700000000000001 4,-1.77 6.09,-1.6300000000000001 c-0.11000000000000001,4.65 -0.7000000000000001,9.23 0.31000000000000005,13.77 c0.35000000000000003,1.6 0.8400000000000001,3.16 1.26,4.75 c1.9100000000000001,7.16 2.36,14.620000000000001 2.45,22 a66.94,66.94 0 0 1 14,-1.6800000000000002 c3.71,-0.11000000000000001 7.41,0.37000000000000005 11.12,0.30000000000000004 c4.4,-0.08000000000000002 8.75,-0.93 13.15,-1.23 s9,0 12.89,2 a122.46,122.46 0 0 1 0.53,-19 l1.06,-9.94 A61.07,61.07 0 0 1 349.9099998474121,472.9399978637696 c0.5800000000000001,-2.2800000000000002 1.42,-4.48 2.06,-6.75 c2.25,-8 1.84,-16.54 1.4100000000000001,-24.87 c-0.22000000000000003,-4.28 -1.87,-8.49 -3.81,-12.3 a33.29,33.29 0 0 0 -2.4,-4.08 A23.63,23.63 0 0 0 326.50999984741213,415.23999786376953 a4.18,4.18 0 0 0 -1.48,0.32000000000000006 a4.93,4.93 0 0 0 -1.8900000000000001,2.25 A24.5,24.5 0 0 1 314.4299998474121,426.84999786376954 z" fill="#3f3d56" id="svg_70"/><path d="M294.6699998474121,403.40999786376955 c0.45,-1 1.6600000000000001,-1.37 2.4,-2.17 c1.42,-1.52 0.78,-3.95 1,-6 c0.36000000000000004,-3 2.85,-5.51 5.7,-6.58 a18.42,18.42 0 0 1 9,-0.5700000000000001 a8.71,8.71 0 0 1 4.06,1.35 c0.52,0.38000000000000006 1,0.8700000000000001 1.49,1.22 a4,4 0 0 0 5.44,-1.27 c-3.54,-4.26 -7.46,-8.76 -12.84,-10.07 a26.34,26.34 0 0 0 -5.61,-0.53 c-2.49,-0.05000000000000001 -5.06,-0.09000000000000002 -7.36,0.8600000000000001 c-3.13,1.29 -5.33,4.26 -6.46,7.46 a36.27,36.27 0 0 0 -1.57,10 a37.67,37.67 0 0 0 0,6.8 a18.8,18.8 0 0 0 3.34,8.57 a2.59,2.59 0 0 0 1,0.93 C298.81999984741213,415.40999786376955 294.2999998474121,404.23999786376953 294.6699998474121,403.40999786376955 z" fill="#3f3d56" id="svg_71"/><path d="M323.2399998474121,386.91999786376954 c-0.55,-4.71 -3.91,-8.6 -7.48,-11.73 a27.58,27.58 0 0 0 -10.05,-6.05 c-3.77,-1.11 -8.11,-0.8700000000000001 -11.34,1.3800000000000001 c-2.6,1.81 -4.25,4.69 -5.52,7.59 a23.89,23.89 0 0 0 -2.41,11 c0.25,3.7800000000000002 2.09,7.61 5.37,9.52 c1.18,-1.7400000000000002 3.23,-2.64 5.2,-3.35 A254.61,254.61 0 0 1 323.2399998474121,386.91999786376954 z" fill="#fed253" id="svg_72"/><path d="M292.9099998474121,384.95999786376956 c0.32000000000000006,0 0.53,0.33000000000000007 0.6900000000000002,0.6000000000000001 a25.35,25.35 0 0 1 2.09,4 c-1.17,0.25 -3.18,0.53 -3.7600000000000002,-0.5 C291.6199998474121,388.53999786376954 291.9899998474121,384.90999786376955 292.9099998474121,384.95999786376956 z" opacity="0.1" id="svg_73"/><path d="M315.69999984741213,382.6999978637695 c-0.24000000000000002,0.23 -0.52,-0.24000000000000002 -0.52,-0.5800000000000001 V378.23999786376953 a0.5700000000000001,0.5700000000000001 0 0 1 0.07,-0.31000000000000005 a0.47000000000000003,0.47000000000000003 0 0 1 0.33000000000000007,-0.16000000000000003 c0.81,-0.09000000000000002 1.48,0.6000000000000001 2,1.26 a21.12,21.12 0 0 1 2.05,3.41 l-4.23,-0.13 " opacity="0.1" id="svg_74"/><path d="M368.4899998474121,446.94999786376957 a26.17,26.17 0 0 1 2.94,-2.41 c2.77,-1.85 6.12,-2.58 9.23,-3.7600000000000002 s6.27,-3.09 7.48,-6.19 a14.7,14.7 0 0 0 0.5800000000000001,-6 a6,6 0 0 0 -0.44000000000000006,-2.47 a4.91,4.91 0 0 0 -1.58,-1.7200000000000002 c-4.22,-3.12 -9.88,-3.37 -15.12,-3.05 a94.77,94.77 0 0 0 -33.41,8.34 a2.9,2.9 0 0 0 -1.4,1 a2.8600000000000003,2.8600000000000003 0 0 0 -0.27,1.3900000000000001 a23,23 0 0 0 1.13,8.71 c1.3800000000000001,3.56 4.22,6.43 5.41,10.06 c0.54,1.6300000000000001 0.7200000000000001,3.36 1.19,5 a7,7 0 0 0 2.81,4.18 c3.95,2.36 7.68,-0.81 10.42,-3.27 z" fill="#3f3d56" id="svg_75"/><path d="M316.75999984741213,460.7999978637695 l-5.07,-11.06 a38.71,38.71 0 0 1 -1.92,-4.73 c-0.5800000000000001,-1.9300000000000002 -0.8600000000000001,-3.93 -1.4,-5.87 c-1.78,-6.46 -6.27,-11.84 -8.46,-18.17 a3.45,3.45 0 0 0 -0.8200000000000001,-1.53 a2.67,2.67 0 0 0 -2.23,-0.4 c-3.06,0.53 -5.45,2.8600000000000003 -8.25,4.18 c-1.3,0.6000000000000001 -2.7,1 -4,1.6900000000000002 a5,5 0 0 0 -2.68,3.19 c-0.31000000000000005,1.53 0.45,3 1.09,4.49 c2.72,6.14 3.34,13 3.46,19.72 c0.09000000000000002,4.52 -0.14,9.37 -2.81,13 c-5.13,7 -1.85,17.28 0.07,25.75 c0.23,1 0.5,2.08 0.6600000000000001,3.14 a28.87,28.87 0 0 1 0.23,4 c0,4.49 -0.25,9.12 -2.13,13.19 a14.76,14.76 0 0 0 6,1.7000000000000002 q8.71,1.11 17.49,1.56 a19.06,19.06 0 0 0 5.49,-0.28 a10,10 0 0 0 7.39,-9.8 c0.32000000000000006,2.77 0.91,5.78 2.92,7.7 s4.94,2.21 7.67,2.36 a142.6,142.6 0 0 0 23.1,-0.6500000000000001 a4,4 0 0 0 1.42,-0.33000000000000007 c1.48,-0.7400000000000001 1.56,-2.7800000000000002 1.44,-4.42 c-0.22000000000000003,-3.07 -0.45,-6.14 -0.8200000000000001,-9.19 a37.61,37.61 0 0 1 -0.48000000000000004,-5.88 a33.83,33.83 0 0 1 1,-6 c1.34,-6.24 2.4,-12.61 1.9500000000000002,-19 a32.06,32.06 0 0 1 -0.19000000000000003,-4.69 c0.26,-3.5300000000000002 2.12,-6.890000000000001 1.77,-10.4 c-1,-10.32 -1.81,-20.91 -4.69,-30.87 c-0.52,-1.78 -1.18,-3.6900000000000004 -2.73,-4.71 c-2,-1.34 -4.8100000000000005,-0.6400000000000001 -7.1,-1.49 a17.76,17.76 0 0 1 -3.05,-1.81 a14,14 0 0 0 -6.890000000000001,-2.12 c-1.84,-0.07 -3.89,0.3400000000000001 -5,1.82 a7.26,7.26 0 0 0 -1,2.73 c-1.45,6.1 -3.15,12.13 -4.85,18.16 l-1.6300000000000001,5.78 l-4.37,15.52 C316.9099998474121,458.72999786376954 317.19999984741213,459.23999786376953 316.75999984741213,460.7999978637695 z" fill="#fb690a" id="svg_76" class="" fill-opacity="1"/><polyline points="342.33 400.25 439.06 501.9 439.06 510.52 395.93 510.52 323.24 415.65" fill="#a05d33" id="svg_77" class="" fill-opacity="1"/><polyline points="340.40692606568336,399.28846395015717 437.13690653443336,500.9384273290634 437.13690653443336,509.5584224462509 394.006932169199,509.5584224462509 321.31692972779274,414.68845784664154 " opacity="0.1" id="svg_78" class=""/><polygon points="324.78 414.31 325.09 414.42 396.55 501.9 439.06 501.9 439.06 510.52 395.93 510.52 323.24 415.65 324.78 414.31" opacity="0.1" id="svg_79"/><path d="M335.9099998474121,416.4499978637695 c-3.5,1.53 -7.39,3.49 -8.44,7.17 a4.12,4.12 0 0 0 -0.13,2 a4.08,4.08 0 0 0 3.67,2.81 a12,12 0 0 0 4.8100000000000005,-0.8800000000000001 l20.65,-6.82 c0.56,-0.18000000000000002 1.2,-0.45 1.34,-1 a1.7200000000000002,1.7200000000000002 0 0 0 -0.2,-1 c-0.6400000000000001,-1.56 -1.27,-4.75 -2.6100000000000003,-5.84 c-1.1,-0.8800000000000001 -3.2800000000000002,-0.5700000000000001 -4.61,-0.55 C345.2699998474121,412.3799978637695 340.4599998474121,414.4499978637695 335.9099998474121,416.4499978637695 z" fill="#fb690a" id="svg_80" class="" fill-opacity="1"/><path d="M354.31999984741213,421.53999786376954 a33.21,33.21 0 0 1 10.25,1.59 a18.26,18.26 0 0 1 8.49,5.8 a6.36,6.36 0 0 1 1.34,2.62 c0.2,1 3.46,1.6 2.74,2.2800000000000002 c2.19,-0.35000000000000003 1.6700000000000002,0.6800000000000002 3.89,0.6600000000000001 s4.62,-0.5900000000000001 5.95,-2.36 a7.73,7.73 0 0 0 1.17,-4.890000000000001 a8.33,8.33 0 0 0 -0.6600000000000001,-3.46 c-1,-2.1 -3.3,-3.23 -5.42,-4.2 l-17.86,-8.17 A11.86,11.86 0 0 0 360.9099998474121,410.23999786376953 a12.34,12.34 0 0 0 -2.91,0.07 L349.9099998474121,411.23999786376953 a12.13,12.13 0 0 1 5.53,10.67 " fill="#3f3d56" id="svg_81"/></g></svg>
