<svg xmlns="http://www.w3.org/2000/svg" data-name="Layer 1" width="649" height="599.75899" viewBox="0 0 649 599.75899"><rect id="backgroundrect" width="100%" height="100%" x="0" y="0" fill="none" stroke="none"/><g class="currentLayer" style=""><title>Layer 1</title><path d="M591.26981,480.5019113427734 l-52.6832,-78.2546 s79.78463,27.85334 70.72994,78.2546 z" fill="#e5e5e5" id="svg_1"/><path d="M45.16235999999998,481.0211013427735 l-2,-0.039060000000000004 a463.83212,463.83212 0 0 1 7.0996,-66.28711 c8.64844,-46.88086 23.0293,-77.66992 42.74317,-91.51172 l1.1484400000000001,1.6367200000000002 C48.10181,357.15392134277346 45.18579,479.78575134277344 45.16235999999998,481.0211013427735 z" fill="#e5e5e5" id="svg_2"/><path d="M70.16235999999998,480.54259134277345 l-2,-0.039060000000000004 c0.04300000000000001,-2.21485 1.2930000000000001,-54.41407 21.84277,-68.8418 l1.1484400000000001,1.6367200000000002 C71.43286,427.1441513427734 70.17212,480.0103613427734 70.16235999999998,480.54259134277345 z" fill="#e5e5e5" id="svg_3"/><circle cx="105.53150177001953" cy="315.0015563964844" r="10.000009536743164" fill="#fb690a" id="svg_4" class="" fill-opacity="1"/><circle cx="100.57935333251953" cy="401.0015869140625" r="10" fill="#fb690a" id="svg_5" class="" fill-opacity="1"/><path d="M65.50112999999999,330.99614134277346 c1.87935,12.004 -3.0189,22.7406 -3.0189,22.7406 s-7.9453,-8.72583 -9.82465,-20.72986 s3.01891,-22.7406 3.01891,-22.7406 S63.621770000000026,318.99211134277346 65.50112999999999,330.99614134277346 z" fill="#e5e5e5" id="svg_6"/><path d="M98.18830000000003,360.1499513427734 c-11.493,3.9422 -22.91878,0.98962 -22.91878,0.98962 s7.20793,-9.34411 18.70088,-13.28631 s22.91879,-0.98963 22.91879,-0.98963 S109.68124999999998,356.20775134277346 98.18830000000003,360.1499513427734 z" fill="#e5e5e5" id="svg_7"/><path d="M98.55754000000002,436.3110813427735 a31.13456,31.13456 0 0 1 -16.06421,0.6936700000000002 a28.37371,28.37371 0 0 1 29.172,-10.00629 A31.13419,31.13419 0 0 1 98.55754000000002,436.3110813427735 z" fill="#e5e5e5" id="svg_8"/><path d="M648,482.5019113427734 h-647 a1,1 0 0 1 0,-2 h647 a1,1 0 0 1 0,2 z" fill="#cbcbcb" id="svg_9"/><polygon points="409.792 528.602 401.611 549.895 315.587 528.472 327.661 497.045 409.792 528.602" fill="#ffb7b7" id="svg_10"/><path d="M432.51889000000006,531.1007013427734 l-26.37927,68.6583 l-0.86843,-0.33363000000000004 a28.62983,28.62983 0 0 1 -16.45712,-36.99049 l0.0006500000000000002,-0.0017000000000000006 l16.1117,-41.93409 z" fill="#2f2e41" id="svg_11"/><path d="M279.0748,261.99189134277344 l-37.48819,3.51 l-1.8597700000000001,111.54244 A20.99636,20.99636 0 0 0 262.08000000000004,396.0901613427734 l23.76826,-1.63735 z" fill="#e5e5e5" id="svg_12"/><path d="M411.23731999999995,256.50191134277344 l-25.65071,-0.3300800000000001 L384.06705999999997,388.7075013427734 h0 a41.28135,41.28135 0 0 0 42.62677,-42.85419 z" fill="#e5e5e5" id="svg_13"/><path d="M262.40070000000003,435.7913113427734 a81.594,81.594 0 0 1 -2.63861,11.35858 c-1.29438,3.63971 -3.29273,7.00567 -4.4762,10.68292 c-3.7724,11.72137 1.45728,24.79034 9.80988,33.83771 a55.2169,55.2169 0 0 0 26.92126,15.9859 c7.53516,1.89514 15.37,2.16791 23.13532,2.43121 c21.50268,0.7291900000000001 43.55865,1.3815300000000001 63.93371,-5.52887 a111.0851,111.0851 0 0 0 18.57465,-8.43835 a13.90663,13.90663 0 0 0 4.8197,-3.795 c1.554,-2.2124 1.7528100000000002,-5.08172 1.73926,-7.78533 c-0.04572000000000001,-9.11554 -1.8937400000000002,-18.18464 -1.455,-27.28974 c0.24300000000000002,-5.04333 1.18689,-10.0827 0.7222900000000001,-15.11047 a27.87563,27.87563 0 0 0 -21.30395,-24.01209 c-5.78,-1.2412100000000001 -11.775,-0.56488 -17.65955,0.0010000000000000002 a450.25524,450.25524 0 0 1 -45.95953,2.055 c-15.67853,-0.10010000000000001 -31.26026,-2.49341 -46.86072,-2.74334 c-4.61353,-0.07392000000000001 -4.5203299999999995,1.3483800000000001 -5.9890799999999995,5.81341 A108.76642,108.76642 0 0 0 262.40070000000003,435.7913113427734 z" fill="#2f2e41" id="svg_14"/><path d="M201.09199999999998,428.3826813427735 a46.39172,46.39172 0 0 0 -12.90469,-1.37183 a32.20814,32.20814 0 0 0 -29.90213,37.96857 a54.09812,54.09812 0 0 0 5.11352,13.9732 c3.42237,6.94525 7.527,13.87464 13.86267,18.32532 c3.70621,2.60358 7.9956700000000005,4.22681 12.2342,5.82355 l33.36868,12.57055 c4.9089,1.84925 9.81854,3.6987900000000002 14.77606,5.41358 a289.01825,289.01825 0 0 0 77.17719,15.343 c8.01239,0.47711000000000003 16.14611,0.6098600000000001 23.9627,-1.21424 c1.8549200000000001,-0.4328600000000001 3.8336200000000002,-1.07818 4.90754,-2.6513 a8.40493,8.40493 0 0 0 1.09649,-3.62171 l2.05335,-14.37463 c0.28912000000000004,-2.024 0.56732,-4.15448 -0.17450000000000002,-6.05969 c-0.9406200000000001,-2.41584 -3.2984,-3.93555 -5.54651,-5.22675 c-21.93756,-12.59985 -47.55231,-19.55109 -66.01746,-36.84418 c-4.347,-4.071 -7.98474,-10.52411 -13.26629,-13.28949 c-5.9892,-3.13592 -13.04264,-4.92572 -19.23331,-7.81543 C229.06586,439.01390134277347 215.75977,431.7543813427734 201.09199999999998,428.3826813427735 z" fill="#2f2e41" id="svg_15"/><path d="M234.40573,447.7617713427734 c11.79444,3.69573 61.59055,29.3001 70.12577,38.2398 c-1.14405,0.41217000000000004 -39.961,-21.34143 -41.1258,-21.691 c-10.587579999999999,-3.17755 -21.234,-6.376 -31.28845,-11.02618 c-2.02267,-0.93549 -13.14053,-5.33258 -12.637,-7.88464 C220.04840000000002,442.51994134277345 232.31192,447.1057013427734 234.40573,447.7617713427734 z" opacity="0.1" style="isolation:isolate" id="svg_16"/><path d="M305.58660999999995,224.5015613427734 l-31.7559,24.1117 s-33.50864,1.04831 -32.37637,22.46848 s14.54325,122.8375 14.54325,122.8375 l2.90972,34.89548 l55.19288,15.72646 a180.58806,180.58806 0 0 0 91.48638,1.9607400000000001 l0,0 l-6.559,-35.00787 s26.559,-158.99213 10.559,-165.99213 s-26,-5 -26,-5 l-20.05517,-17.50036 z" fill="#e5e5e5" id="svg_17"/><path d="M399.58660999999995,185.55529134277344 c0,31.3011 -28.94285,26.56671 -64.64567,26.56671 s-64.64566,4.73439 -64.64566,-26.56671 s14.13785,-86.7846 64.64566,-86.7846 C387.18881,98.77069134277343 399.58660999999995,154.25419134277342 399.58660999999995,185.55529134277344 z" fill="#2f2e41" id="svg_18"/><circle cx="294.3039245605469" cy="691.47705078125" r="43.500389099121094" transform="rotate(-45 -318.98196411132824,375.9529724121094) " fill="#ffb7b7" id="svg_19"/><path d="M284.46419000000003,164.30187134277344 v0 h17.20523 l7.59037,-21.25337 l1.51773,21.25337 h8.2234 l4.42778,-12.3978 l0.88556,12.3978 H385.41769999999997 v0 a46.04892,46.04892 0 0 0 -46.04892,-46.04892 h-8.85567 A46.04892,46.04892 0 0 0 284.46419000000003,164.30187134277344 z" fill="#2f2e41" id="svg_20"/><rect x="291.58660888671875" y="229.50155639648438" width="87" height="105" fill="#fb690a" id="svg_21" class="" fill-opacity="1"/><polygon points="296.381 527.602 304.563 548.895 390.587 527.472 378.512 496.045 296.381 527.602" fill="#ffb7b7" id="svg_22"/><path d="M301.24681,519.4990913427735 l16.1117,41.93409 l0.0006500000000000002,0.0017000000000000006 A28.62983,28.62983 0 0 1 300.90200000000004,598.4253713427735 l-0.86843,0.33363000000000004 l-26.37927,-68.6583 z" fill="#2f2e41" id="svg_23"/><path d="M468.33466,420.23229134277346 a60.05871,60.05871 0 0 1 21.157,-1.4455 c5.65607,0.62311 11.48358,2.197 15.61316,6.11182 c5.02631,4.76495 6.64123,12.134 6.776,19.05865 a59.54347,59.54347 0 0 1 -12.94183,38.027 a34.50491,34.50491 0 0 1 -7.39917,7.12286 a48.70194,48.70194 0 0 1 -9.62671,4.63916 L407.1853,523.2211213427735 c-19.65924,7.7542100000000005 -39.38787,15.53082 -59.89349,20.64276 a4.66789,4.66789 0 0 1 -6.233,-2.17438 q-0.024630000000000003,-0.05109000000000001 -0.04810000000000001,-0.10284 a154.818,154.818 0 0 1 -16.37823,-29.96009 a2.01888,2.01888 0 0 1 0.8922700000000001,-3.18316 l52.85559,-30.36921 c3.786,-2.17535 7.61432,-4.382 10.758000000000001,-7.41241 a26.70836,26.70836 0 0 0 5.52325,-7.68945 c1.09558,-2.28839 1.19782,-7.6886600000000005 2.59729,-9.38013 c1.37018,-1.6560700000000002 6.05738,-1.78827 8.22217,-2.43964 a74.60152,74.60152 0 0 0 8.95105,-3.38366 c11.82337,-5.28943 22.35193,-12.97461 33.686280000000004,-19.168 A86.43226,86.43226 0 0 1 468.33466,420.23229134277346 z" fill="#2f2e41" id="svg_24"/><path d="M438.37023999999997,442.9118513427734 c-9.08075,6.82031 -20.83874,13.08972 -29.83874,20.08972 c-3.0716,2.3890000000000002 -54.276,31.17664 -55,35 c8.39648,1.41474 61.883,-36.00305 69.53552,-39.73675 s14.43634,-8.999 21.15845,-14.22547 c1.71307,-1.3319100000000001 8.97308,-5.33587 4.05535,-6.824 C445.51056000000005,436.37706134277346 440.41547,441.54839134277347 438.37023999999997,442.9118513427734 z" opacity="0.1" style="isolation:isolate" id="svg_25"/><circle cx="601.5867309570312" cy="148.46737670898438" r="31.247900009155273" fill="#f1f1f1" style="isolation:isolate" id="svg_26"/><circle cx="543.7548217773438" cy="163.39173889160156" r="21.920169830322266" fill="#f1f1f1" style="isolation:isolate" id="svg_27"/><circle cx="142.21331787109375" cy="153.436767578125" r="17.576019287109375" fill="#f1f1f1" style="isolation:isolate" id="svg_28"/><circle cx="171.15045166015625" cy="170.5022430419922" r="12.329449653625488" fill="#f1f1f1" style="isolation:isolate" id="svg_29"/><circle cx="341.6535949707031" cy="13.435259819030762" r="13.435270309448242" fill="#f1f1f1" style="isolation:isolate" id="svg_30"/><path d="M261.58660999999995,296.50191134277344 l1.20092,-9.27026 s44.799080000000004,3.27026 37.799080000000004,14.27026 s-24,12 -24,12 z" fill="#2f2e41" opacity="0.17" id="svg_31"/><path d="M295.40257999999994,256.19450134277344 a17.49045,17.49045 0 0 1 12.72474,7.8131900000000005 h0 a17.47438,17.47438 0 0 1 -5.68285,24.56288 a16.84556,16.84556 0 0 1 -2.3155900000000003,1.13819 l-27.536270000000002,84.22754 a13.989419999999999,13.989419999999999 0 1 1 -25.1558,-12.24654 l29.284,-83.29253 A17.455,17.455 0 0 1 295.40257999999994,256.19450134277344 z" fill="#ffb7b7" id="svg_32"/><path d="M261.99758999999995,288.02160134277347 s15.778,26.95734 38.589,13.48031 l-22.10668,84.59843 h-18.6256 l-19.26772,-3.59843 l5.39489,-34.95275 z" fill="#e5e5e5" id="svg_33"/><path d="M374.65747999999996,306.4468013427734 l-13.07087,-17.94489 s6.28217,-18.613 30.64108,-11.80648 C392.22769000000005,276.6954313427734 407.72835,311.39168134277344 374.65747999999996,306.4468013427734 z" fill="#e5e5e5" id="svg_34"/><path d="M374.65747999999996,306.4468013427734 l-13.07087,-17.94489 s6.28217,-18.613 30.64108,-11.80648 C392.22769000000005,276.6954313427734 407.72835,311.39168134277344 374.65747999999996,306.4468013427734 z" fill="#2f2e41" opacity="0.17" id="svg_35"/><path d="M378.11821,243.75068134277342 a17.35928,17.35928 0 0 1 9.33417,20.64659 l29.284,83.29253 a13.98943,13.98943 0 1 1 -25.15581,12.24654 L364.04435,275.7088013427734 a16.84627,16.84627 0 0 1 -2.3156,-1.13819 a17.4744,17.4744 0 0 1 -5.68285,-24.56288 h0 a17.49047,17.49047 0 0 1 12.72474,-7.8131900000000005 A17.27631,17.27631 0 0 1 378.11821,243.75068134277342 z" fill="#ffb7b7" id="svg_36"/><path d="M361.58660999999995,288.50191134277344 s21.56566,13.08548 30.64108,-11.80648 L422.61645999999996,356.7095013427734 l-9.02985,15.79237 l-1.30586,0.10887000000000001 A33.39675,33.39675 0 0 1 383.69686,360.5245013427734 l0,0 a66.34381,66.34381 0 0 1 -13.85963,-29.4748 z" fill="#e5e5e5" id="svg_37"/></g></svg>
