<svg xmlns="http://www.w3.org/2000/svg" xmlns:xlink="http://www.w3.org/1999/xlink" data-name="Layer 1" width="1022.84" height="813.16" viewBox="0 0 1022.84 813.16"><rect id="backgroundrect" width="100%" height="100%" x="0" y="0" fill="none" stroke="none"/><defs><linearGradient id="3cf802be-0480-4c68-848a-073112220499" x1="0.4999830722808838" y1="1.0000596046447754" x2="0.4999830722808838" y2="-0.000015019134480098728"><stop offset="0" stop-color="gray" stop-opacity="0.25"/><stop offset="0.54" stop-color="gray" stop-opacity="0.12"/><stop offset="1" stop-color="gray" stop-opacity="0.1"/></linearGradient></defs><title>book lover</title><g class="currentLayer" style=""><title>Layer 1</title><path d="M599.8599981689454,137.4200018310547 c-64.72,-2.25 -126.37,-23.14 -185.23,-46 S297.4699981689453,43.23000183105469 234.2999981689453,31.120001831054694 c-40.63,-7.79 -87.1,-8.89 -119.83,12.89 c-31.51,21 -41.69,57.15 -47.16,90.73 c-4.12,25.26 -6.54,51.84 4.75,75.49 c7.83,16.42 21.74,30.22 31.35,46 c33.47,54.72 9.82,122.2 -26.45,175.63 c-17,25.07 -36.75,49 -49.87,75.66 s-19.2,57.25 -7.72,84.47 c11.39,27 38.52,47.24 67.9,61.49 c59.69,28.95 130,37.23 198.61,41.92 c151.83,10.39 304.46,5.890000000000001 456.69,1.3900000000000001 c56.34,-1.6700000000000002 112.92,-3.36 168.34,-12.07 c30.78,-4.84 62.55,-12.51 84.9,-31.05 c28.36,-23.53 35.39,-63.38 16.39,-92.88 c-31.89,-49.49 -120,-61.78 -142.32,-114.9 c-12.26,-29.23 0.3400000000000001,-61.79 18.16,-88.91 c38.24,-58.16 102.33,-109.19 105.71,-175.67 c2.3200000000000003,-45.67 -28.5,-91.39 -76.14,-113 C867.6799981689453,45.58000183105469 798.4199981689453,48.46000183105468 761.5999981689453,85.95000183105469 C723.6599981689453,124.58000183105469 656.9999981689454,139.40000183105468 599.8599981689454,137.4200018310547 z" fill="#e25f0d" opacity="0.1" id="svg_1" class="" fill-opacity="1"/><polygon points="435.45 690.5 93.17 688.83 59.16 609.06 179.42 600.33 158.46 512.87 396.32 482.04 168.55 402.86 188.67 398.08 554.92 457.83 534.75 594.32 505.92 669.33 435.45 690.5" fill="#fb690a" id="svg_2" class="" fill-opacity="1"/><path d="M98.41999816894531,655.4200018310547 s21,-3.36 33.6,11.48 c0,0 -9.24,7.28 -29.12,-2.8 z" fill="#6c63ff" id="svg_3"/><path d="M96.21999816894532,655.0900018310547 S82.81999816894532,671.5800018310547 89.41999816894531,689.9400018310547 c0,0 10.92,-4.37 12.11,-26.63 z" fill="#6c63ff" id="svg_4"/><path d="M84.1799981689453,627.9800018310547 s8.4,-15.41 42,6.16 c0,0 -4.48,10.36 -19.32,9.52 S88.09999816894532,636.1000018310547 84.1799981689453,627.9800018310547 z" fill="#6c63ff" id="svg_5"/><path d="M82.00999816894532,626.8700018310547 s-17.43,-2 -19.12,37.9 c0,0 11.05,2.29 18.9,-10.33 S86.41999816894531,634.7400018310547 82.00999816894532,626.8700018310547 z" fill="#6c63ff" id="svg_6"/><path d="M71.85999816894531,595.0400018310547 s9.8,-27.16 45.36,-7.84 c0,0 -8.12,24.92 -41.72,17.08 z" fill="#fb690a" id="svg_7" class="" fill-opacity="1"/><path d="M60.93999816894532,554.4400018310547 s18.48,-27.44 51.24,-2 c0,0 -11.48,25.76 -48.44,11.76 z" fill="#fb690a" id="svg_8" class="" fill-opacity="1"/><path d="M57.01999816894531,515.8000018310547 s21.56,-25.21 54,0 c0,0 -20.44,22.12 -54,6.44 z" fill="#fb690a" id="svg_9" class="" fill-opacity="1"/><path d="M53.65999816894532,478.27000183105474 s21.84,-26.32 52.92,-1.4 c0,0 -24.64,23.24 -52.92,7.5600000000000005 z" fill="#fb690a" id="svg_10" class="" fill-opacity="1"/><path d="M55.6199981689453,444.9500018310547 s23,-33.88 52.08,-10.92 c0,0 -24.64,29.12 -52.08,17.36 z" fill="#fb690a" id="svg_11" class="" fill-opacity="1"/><path d="M60.93999816894532,406.0300018310547 s24.36,-33.6 52.64,-7.84 c0,0 -28.84,29.12 -52.64,14 z" fill="#fb690a" id="svg_12" class="" fill-opacity="1"/><path d="M69.0599981689453,371.2400018310547 s28.84,-31.58 54,-19 c0,0 -30.05,33.54 -55.26,27.38 z" fill="#fb690a" id="svg_13" class="" fill-opacity="1"/><path d="M79.13999816894531,338.2600018310547 S112.41999816894531,299.5800018310547 131.77999816894533,312.5000018310547 c0,0 -24.52,30 -55,33 z" fill="#fb690a" id="svg_14" class="" fill-opacity="1"/><path d="M93.68999816894532,300.0100018310547 s29.13,-31.58 50.41,-23.74 c0,0 -24.92,32.76 -54.32,33.6 z" fill="#fb690a" id="svg_15" class="" fill-opacity="1"/><path d="M106.85999816894531,264.23000183105466 s32.2,-30.24 46.2,-24.92 c0,0 -23.24,33.6 -47.6,31.64 z" fill="#fb690a" id="svg_16" class="" fill-opacity="1"/><path d="M119.7399981689453,231.1900018310547 s27.72,-36.13 42.85,-33.33 c0,0 -16.81,32.21 -42.85,37 z" fill="#fb690a" id="svg_17" class="" fill-opacity="1"/><path d="M133.71999816894532,186.6400018310547 s24.5,-27.69 37.74,-27.63 c0,0 -19.34,37 -38.75,36.66 z" fill="#fb690a" id="svg_18" class="" fill-opacity="1"/><path d="M141.99999816894533,156.9800018310547 l23.67,-57.68 s1.18,52.14 -26.68,68.38 z" fill="#fb690a" id="svg_19" class="" fill-opacity="1"/><path d="M151.6099981689453,93.37000183105468 s3.92,-48.17 1.4,-52.09 c0,0 16.92,40.05 -1.56,73.37 z" fill="#fb690a" id="svg_20" class="" fill-opacity="1"/><path d="M70.93999816894532,594.4000018310547 s-24.54,-15.21 -40.43,22 c0,0 21.84,14.5 43.32,-12.51 z" fill="#fb690a" id="svg_21" class="" fill-opacity="1"/><path d="M60.1499981689453,552.8900018310546 s-30.1,-13.73 -44.7,25.12 c0,0 23.25,16 47.44,-15.3 z" fill="#fb690a" id="svg_22" class="" fill-opacity="1"/><path d="M55.6199981689453,518.1100018310547 s-21.56,-25.21 -54,0 c0,0 20.44,22.12 54,6.44 z" fill="#fb690a" id="svg_23" class="" fill-opacity="1"/><path d="M52.91999816894531,478.27000183105474 s-21.84,-26.32 -52.92,-1.4 c0,0 24.64,23.24 52.92,7.5600000000000005 z" fill="#fb690a" id="svg_24" class="" fill-opacity="1"/><path d="M55.6199981689453,445.9100018310547 s-15.32,-37.95 -48.62,-21.63 c0,0 18,33.65 47.26,27.93 z" fill="#fb690a" id="svg_25" class="" fill-opacity="1"/><path d="M62.8699981689453,405.8400018310547 s-15.23,-38.61 -49,-20.71 c0,0 20.68,35.39 47.5,26.67 z" fill="#fb690a" id="svg_26" class="" fill-opacity="1"/><path d="M72.3099981689453,371.4300018310547 s-6,-42.33 -34,-46.12 c0,0 5.94,44.64 30.23,53.75 z" fill="#fb690a" id="svg_27" class="" fill-opacity="1"/><path d="M79.84999816894532,338.3400018310547 s-2.34,-51 -25.49,-52.78 c0,0 0.78,38.71 22.88,60 z" fill="#fb690a" id="svg_28" class="" fill-opacity="1"/><path d="M96.0899981689453,298.5800018310547 s-6.9,-42.41 -29,-47.59 c0,0 2.74,41.07 26.81,58 z" fill="#fb690a" id="svg_29" class="" fill-opacity="1"/><path d="M109.47999816894531,264.5800018310547 s-0.23,-44.18 -13.73,-50.67 c0,0 -8.37,40 9.82,56.31 z" fill="#fb690a" id="svg_30" class="" fill-opacity="1"/><path d="M120.7699981689453,230.6900018310547 s-1.8900000000000001,-45.49 -15.870000000000001,-51.9 c0,0 -4.78,36 13.78,54.88 z" fill="#fb690a" id="svg_31" class="" fill-opacity="1"/><path d="M135.6699981689453,190.27000183105469 s-0.08000000000000002,-37 -10.06,-45.68 c0,0 -9.92,40.53 4.85,53.12 z" fill="#fb690a" id="svg_32" class="" fill-opacity="1"/><path d="M140.8299981689453,155.1600018310547 L131.1199981689453,93.58000183105469 s-13.19,50.46 10.17,72.7 z" fill="#fb690a" id="svg_33" class="" fill-opacity="1"/><path d="M142.71999816894532,93.95000183105469 s-24.92,-41.4 -24.41,-46 c0,0 2.6500000000000004,43.39 34,65 z" fill="#fb690a" id="svg_34" class="" fill-opacity="1"/><path d="M145.6399981689453,81.72000183105469 s-23.52,-58.8 -34.16,-63.56 c0,0 33.6,17.08 36.12,61.88 z" fill="#fb690a" id="svg_35" class="" fill-opacity="1"/><path d="M132.5899981689453,196.02000183105469 l-1.61,-0.49000000000000005 c19.85,-64.73 24.8,-106 13.95,-116.35 l1.15,-1.22 C157.5899981689453,88.8800018310547 152.9199981689453,129.7000018310547 132.5899981689453,196.02000183105469 z" fill="#444053" id="svg_36"/><path d="M77.9299981689453,347.5800018310547 l-2.38,-0.8500000000000001 c2.11,-5.93 4.38,-11.95 6.76,-17.88 c20.72,-51.64 38.36,-99.68 49.67,-136.56 l2.07,-1 c-11.33,36.95 -28.66,86.83 -49.4,138.54 C82.27999816894533,335.6500018310547 80.0199981689453,341.6400018310547 77.9299981689453,347.5800018310547 z" fill="#444053" id="svg_37"/><path d="M128.00999816894532,703.8600018310547 c-0.32000000000000006,-0.35000000000000003 -32.49,-36.58 -54.92,-98.43 A364.18,364.18 0 0 1 51.41999816894531,492.65000183105474 c-1.54,-48.13 8.56,-101.87 25.86,-150.69 l1.8800000000000001,2.2 c-38.84,109.57 -23.41,203.46 -2.94,260 c22.19,61.29 54,97.12 54.31,97.48 z" fill="#444053" id="svg_38"/><path d="M630.7299981689453,626.9400018310547 s-22.67,27.67 -4.67,69.5 l-181,78.5 L427.6899981689453,778.5800018310547 l-8,-35 l5.35,-44.17 V675.2700018310547 z" fill="#d5d6db" id="svg_39"/><polygon points="59.16 609.06 309.68 563.39 641.63 616.27 435.45 690.5 59.16 609.06" fill="#6c63ff" id="svg_40"/><polygon points="59.16 609.06 309.68 563.39 641.63 616.27 435.45 690.5 59.16 609.06" fill="#fb690a" id="svg_41" class="" fill-opacity="1"/><path d="M59.15999816894532,609.0500018310547 s-23.43,44.39 3.5700000000000003,85.39 l371.5,80.5 S411.1699981689453,739.5800018310547 435.4199981689453,690.5000018310546 z" fill="#6c63ff" id="svg_42"/><path d="M59.15999816894532,609.0500018310547 s-23.43,44.39 3.5700000000000003,85.39 l371.5,80.5 S411.1699981689453,739.5800018310547 435.4199981689453,690.5000018310546 z" opacity="1" id="svg_43" class="" fill-opacity="1" fill="#e25f0d"/><path d="M70.22999816894531,624.4400018310547 s-13.39,32.48 0,53.5 " opacity="0.1" id="svg_44"/><path d="M434.22999816894526,774.9400018310547 l207.4,-88.5 s11.6,2.5 4.1,11 s-207.5,86 -207.5,86 l-375.5,-89 z" fill="#6c63ff" id="svg_45"/><path d="M434.22999816894526,774.9400018310547 l207.4,-88.5 s11.6,2.5 4.1,11 s-207.5,86 -207.5,86 l-375.5,-89 z" opacity="1" id="svg_46" class="" stroke-opacity="1" stroke="#e25f0d" fill-opacity="1" fill="#e25f0d"/><path d="M417.2299981689453,699.4400018310547 s-20,24 0,60 " opacity="0.1" id="svg_47"/><rect x="210.91000366210938" y="929.510009765625" width="94.56999969482422" height="1" transform="rotate(-18.450000762939453 -299.769989013672,172.14999389648423) " opacity="0.1" id="svg_48"/><rect x="187.5" y="967.6699829101562" width="115.2300033569336" height="1" transform="rotate(-20.81999969482422 -321.8500061035156,207.80999755859375) " opacity="0.1" id="svg_49"/><rect x="173.19000244140625" y="996.1900024414062" width="133.55999755859375" height="1" transform="rotate(-22.260000228881836 -335.5100097656251,231.58000183105463) " opacity="0.1" id="svg_50"/><rect x="155.8800048828125" y="1032.1199951171875" width="153.74000549316406" height="1" transform="rotate(-24.309999465942383 -352.4899902343751,265.58999633789057) " opacity="0.1" id="svg_51"/><rect x="162.25" y="1027.22998046875" width="168.14999389648438" height="1" transform="rotate(-23.610000610351562 -346.9599914550782,258.5899963378906) " opacity="0.1" id="svg_52"/><rect x="166.6099853515625" y="1031.18994140625" width="201.22000122070312" height="1" transform="rotate(-23.360000610351562 -343.7200012207031,261.9299926757813) " opacity="0.1" id="svg_53"/><polygon points="152.23 613.94 328.23 576.94 435.45 597.44 291.23 643.94 152.23 613.94" fill="#fff" opacity="0.3" id="svg_54"/><path d="M641.6299981689453,616.2700018310547 s9.1,3.67 3.7600000000000002,9.34 S435.4199981689453,690.5000018310546 435.4199981689453,690.5000018310546 z" fill="#fb690a" id="svg_55" class="" fill-opacity="1"/><path d="M730.0199981689453,530.7600018310546 s-22.66,27.66 -4.66,69.5 l-181,78.5 l-17.37,3.66 l-8,-35 L524.4199981689453,603.2600018310546 V579.0900018310547 z" fill="#d5d6db" id="svg_56"/><polygon points="158.46 512.87 408.97 467.21 740.93 520.09 534.75 594.32 158.46 512.87" fill="#c4520b" id="svg_57" class="" fill-opacity="1"/><path d="M158.4199981689453,512.8700018310547 s-23.44,44.39 3.56,85.39 l371.5,80.5 s-23.05,-35.39 1.23,-84.45 z" fill="#3a3768" id="svg_58"/><path d="M158.4199981689453,512.8700018310547 s-23.44,44.39 3.56,85.39 l371.5,80.5 s-23.05,-35.39 1.23,-84.45 L417.2299981689453,568.8800018310546 z" opacity="1" id="svg_59" class="" fill-opacity="1" fill="#b24c0c" stroke-opacity="1" stroke="#b24c0c"/><path d="M169.51999816894534,528.2600018310546 s-13.38,32.47 0,53.5 " opacity="0.1" id="svg_60"/><path d="M533.5199981689453,678.7600018310546 l207.41,-88.5 s11.59,2.5 4.09,11 s-207.5,86 -207.5,86 l-375.5,-89 z" fill="#3a3768" id="svg_61"/><path d="M533.5199981689453,678.7600018310546 l207.41,-88.5 s11.59,2.5 4.09,11 s-207.5,86 -207.5,86 l-375.5,-89 z" opacity="1" id="svg_62" class="" fill-opacity="1" fill="#b24c0c" stroke-opacity="1" stroke="#b24c0c"/><path d="M516.5199981689453,603.2600018310546 s-20,24 0,60 " opacity="0.1" id="svg_63"/><rect x="345.7499694824219" y="859.8200073242188" width="94.56999969482422" height="1" transform="rotate(-18.450000762939453 -264.22000122070307,198.63999938964847) " opacity="0.1" id="svg_64"/><rect x="327.4800109863281" y="900.510009765625" width="115.2300033569336" height="1" transform="rotate(-20.81999969482422 -281.17001342773455,236.83000183105463) " opacity="0.1" id="svg_65"/><rect x="316.32000732421875" y="930.449951171875" width="133.55999755859375" height="1" transform="rotate(-22.260000228881836 -291.67999267578125,262.0199890136718) " opacity="0.1" id="svg_66"/><rect x="303.5899658203125" y="968.280029296875" width="153.74000549316406" height="1" transform="rotate(-24.309999465942383 -304.07000732421886,297.94000244140625) " opacity="0.1" id="svg_67"/><rect x="308.3800048828125" y="962.75" width="168.14999389648438" height="1" transform="rotate(-23.610000610351562 -300.13000488281256,290.2999877929687) " opacity="0.1" id="svg_68"/><rect x="312.19000244140625" y="966.47998046875" width="201.22000122070312" height="1" transform="rotate(-23.360000610351562 -297.4400024414063,293.4100036621094) " opacity="0.1" id="svg_69"/><polygon points="251.53 517.76 427.53 480.76 534.75 501.26 390.53 547.76 251.53 517.76" fill="#fff" opacity="0.45" id="svg_70"/><path d="M740.9299981689453,520.0900018310547 s9.09,3.67 3.7600000000000002,9.33 s-209.94,64.89 -209.94,64.89 z" fill="#c4520b" id="svg_71" class="" fill-opacity="1"/><path d="M739.4199981689453,420.73000183105466 s-22.67,49.67 -4.67,91.5 l-181,56.5 L536.4199981689453,572.4000018310547 l-8,-35 l5.35,-44.17 V469.0600018310547 z" fill="#d5d6db" id="svg_72"/><polygon points="167.89 402.85 418.41 357.18 750.37 410.06 544.18 484.29 167.89 402.85" fill="#fb690a" id="svg_73" class="" fill-opacity="1"/><path d="M167.88999816894534,402.8400018310547 S144.4199981689453,447.23000183105466 171.4199981689453,488.23000183105466 l371.5,80.5 s-23.06,-35.39 1.22,-84.44 z" fill="#6c63ff" id="svg_74"/><path d="M167.88999816894534,402.8400018310547 S144.4199981689453,447.23000183105466 171.4199981689453,488.23000183105466 l371.5,80.5 s-23.06,-35.39 1.22,-84.44 z" opacity="1" id="svg_75" class="" fill="#e25f0d" fill-opacity="1" stroke="#f46913" stroke-opacity="1"/><path d="M178.95999816894533,418.23000183105466 s-13.39,32.48 0,53.5 " opacity="0.1" id="svg_76"/><path d="M542.9599981689453,568.7300018310547 l207.4,-66.5 s11.6,2.5 4.1,11 s-207.5,64 -207.5,64 l-375.5,-89 z" fill="#6c63ff" id="svg_77"/><path d="M542.9599981689453,568.7300018310547 l207.4,-66.5 s11.6,2.5 4.1,11 s-207.5,64 -207.5,64 l-375.5,-89 z" opacity="1" id="svg_78" class="" fill-opacity="1" fill="#e25f0d" stroke-opacity="1" stroke="#e25f0d"/><path d="M525.9599981689453,493.23000183105466 s-20,24 0,60 " opacity="0.1" id="svg_79"/><rect x="390.4999694824219" y="747.1199951171875" width="94.56999969482422" height="1" transform="rotate(-18.450000762939453 -228.91000366210963,195.97000122070304) " opacity="0.1" id="svg_80"/><rect x="376.6400146484375" y="786.6500244140625" width="115.2300033569336" height="1" transform="rotate(-20.81999969482422 -241.44000244140668,233) " opacity="0.1" id="svg_81"/><rect x="368.1300048828125" y="815.800048828125" width="133.55999755859375" height="1" transform="rotate(-22.260000228881836 -249.30000305175795,257.3999938964844) " opacity="0.1" id="svg_82"/><rect x="359.15997314453125" y="852.3800048828125" width="153.74000549316406" height="1" transform="rotate(-24.309999465942383 -257.9400024414063,292.05999755859375) " opacity="0.1" id="svg_83"/><rect x="362.67999267578125" y="847.2999877929688" width="168.14999389648438" height="1" transform="rotate(-23.610000610351562 -255.27000427246097,284.8699951171875) " opacity="0.1" id="svg_84"/><rect x="366.030029296875" y="851.1900024414062" width="201.22000122070312" height="1" transform="rotate(-23.360000610351562 -253.03999328613295,288.1400146484375) " opacity="0.1" id="svg_85"/><polygon points="260.96 407.73 436.96 370.73 544.18 391.23 399.96 437.73 260.96 407.73" fill="#fff" opacity="0.3" id="svg_86"/><path d="M750.3599981689454,410.0600018310547 s9.1,3.67 3.7600000000000002,9.34 s-209.94,64.89 -209.94,64.89 z" fill="#fb690a" id="svg_87" class="" fill-opacity="1"/><path d="M310.4199981689453,106.50000183105467 s-38,-2.29 -33.56,24.37 c0,0 -0.8900000000000001,4.71 3.38,6.85 c0,0 0.07,-2 3.9,-1.31 a17.05,17.05 0 0 0 4.14,0.2 a8.620000000000001,8.620000000000001 0 0 0 5.05,-2.08 h0 s10.69,-4.42 14.85,-21.9 c0,0 3.08,-3.81 3,-4.79 L304.7399981689453,110.58000183105469 s2.19,4.63 0.47000000000000003,8.48 c0,0 -0.21000000000000002,-8.31 -1.45,-8.12 c-0.25,0 -3.33,1.61 -3.33,1.61 s3.77,8.07 0.92,13.93 c0,0 1.08,-9.94 -2.1,-13.35 l-4.52,2.64 s4.41,8.33 1.42,15.13 c0,0 0.77,-10.43 -2.37,-14.49 l-4.1,3.2 s4.15,8.21 1.62,13.85 c0,0 -0.33000000000000007,-12.14 -2.5,-13.06 c0,0 -3.59,3.16 -4.13,4.46 c0,0 2.84,6 1.07,9.11 c0,0 -1.07,-8.09 -2,-8.13 c0,0 -3.5700000000000003,5.36 -3.94,9 a19.46,19.46 0 0 1 3.07,-9.54 a10.71,10.71 0 0 0 -5.46,2.83 s0.55,-3.79 6.35,-4.12 c0,0 2.95,-4.07 3.74,-4.3100000000000005 c0,0 -5.77,-0.49000000000000005 -9.26,1.06 c0,0 3.08,-3.5700000000000003 10.31,-2 l4,-3.3 s-7.58,-1 -10.8,0.11000000000000001 c0,0 3.71,-3.16 11.89,-0.8600000000000001 l4.41,-2.63 s-6.47,-1.3900000000000001 -10.32,-0.8900000000000001 c0,0 4.06,-2.19 11.61,0.18000000000000002 l3.14,-1.4100000000000001 s-4.73,-0.93 -6.12,-1.08 s-1.46,-0.53 -1.46,-0.53 a16.51,16.51 0 0 1 8.9,1 S310.5499981689453,106.92000183105469 310.4199981689453,106.50000183105467 z" fill="#fb690a" id="svg_88" class="" fill-opacity="1"/><path d="M845.0199981689453,216.0800018310547 s-38,-2.29 -33.56,24.37 c0,0 -0.8900000000000001,4.71 3.38,6.85 c0,0 0.07,-2 3.9,-1.31 a17.62,17.62 0 0 0 4.14,0.2 a8.59,8.59 0 0 0 5,-2.08 h0 s10.7,-4.42 14.85,-21.9 c0,0 3.08,-3.81 3,-4.79 l-6.42,2.74 s2.19,4.63 0.47000000000000003,8.48 c0,0 -0.21000000000000002,-8.31 -1.44,-8.12 c-0.25,0 -3.34,1.61 -3.34,1.61 s3.77,8.07 0.93,13.93 c0,0 1.08,-9.94 -2.11,-13.35 l-4.52,2.64 s4.41,8.33 1.42,15.13 c0,0 0.77,-10.43 -2.37,-14.49 l-4.09,3.2 s4.14,8.21 1.61,13.85 c0,0 -0.33000000000000007,-12.14 -2.5,-13.06 c0,0 -3.58,3.16 -4.13,4.46 c0,0 2.84,6 1.08,9.11 c0,0 -1.08,-8.09 -2,-8.13 c0,0 -3.5700000000000003,5.36 -3.94,9 a19.4,19.4 0 0 1 3.08,-9.54 a10.76,10.76 0 0 0 -5.47,2.83 s0.56,-3.79 6.35,-4.12 c0,0 2.95,-4.07 3.74,-4.32 c0,0 -5.76,-0.48000000000000004 -9.26,1.07 c0,0 3.08,-3.5700000000000003 10.31,-2 l4,-3.3 s-7.59,-1 -10.8,0.11000000000000001 c0,0 3.7,-3.16 11.89,-0.8600000000000001 l4.4,-2.63 s-6.47,-1.3900000000000001 -10.32,-0.8900000000000001 c0,0 4.06,-2.19 11.61,0.18000000000000002 l3.15,-1.4100000000000001 s-4.74,-0.93 -6.13,-1.08 s-1.46,-0.53 -1.46,-0.53 a16.39,16.39 0 0 1 8.9,1 S845.1399981689453,216.5000018310547 845.0199981689453,216.0800018310547 z" fill="#fb690a" opacity="0.1" id="svg_89" class="" fill-opacity="1"/><path d="M374.4199981689453,271.2000018310547 s-16.56,-34.33 -37.64,-17.41 c0,0 -4.55,1.52 -4.33,6.29 c0,0 1.75,-0.91 3,2.77 a17.72,17.72 0 0 0 1.84,3.7 a8.63,8.63 0 0 0 4.29,3.4 h0 s9.07,7.18 26.36,2.2800000000000002 c0,0 4.83,0.8300000000000001 5.62,0.25 l-5.52,-4.27 s-3,4.17 -7.18,4.54 c0,0 7.16,-4.23 6.39,-5.21 c-0.16000000000000003,-0.2 -3,-2.13 -3,-2.13 s-5.21,7.23 -11.71,7.6 c0,0 9.2,-3.9 10.620000000000001,-8.35 l-4.5,-2.66 s-5.13,7.92 -12.52,8.620000000000001 c0,0 9.48,-4.41 11.49,-9.13 l-4.78,-2 s-5.15,7.62 -11.31,8.17 c0,0 10.44,-6.21 10.18,-8.56 c0,0 -4.51,-1.58 -5.91,-1.4300000000000002 c0,0 -3.8200000000000003,5.39 -7.42,5.39 c0,0 6.53,-4.890000000000001 6.13,-5.68 c0,0 -6.42,-0.5 -9.8,1 a19.47,19.47 0 0 1 9.83,-2 a10.77,10.77 0 0 0 -5.14,-3.39 s3.58,-1.36 6.69,3.5300000000000002 c0,0 5,0.5900000000000001 5.59,1.1600000000000001 c0,0 -2.39,-5.26 -5.44,-7.55 c0,0 4.62,0.93 6.73,8 l4.85,1.92 s-2.79,-7.12 -5.36,-9.37 c0,0 4.5600000000000005,1.6900000000000002 6.55,10 l4.44,2.56 s-1.9300000000000002,-6.33 -4.25,-9.44 c0,0 3.89,2.48 5.5,10.22 l2.77,2.06 s-1.5,-4.59 -2,-5.87 s-0.25,-1.54 -0.25,-1.54 a16.41,16.41 0 0 1 3.48,8.25 S374.0599981689453,271.5000018310547 374.4199981689453,271.2000018310547 z" fill="#fb690a" opacity="0.1" id="svg_90" class="" fill-opacity="1"/><path d="M758.1999981689453,167.5800018310547 s-16.55,-34.33 -37.64,-17.41 c0,0 -4.54,1.52 -4.33,6.29 c0,0 1.7600000000000002,-0.9 3,2.77 a17.34,17.34 0 0 0 1.85,3.71 a8.58,8.58 0 0 0 4.28,3.39 h0 s9.08,7.18 26.36,2.29 c0,0 4.83,0.8200000000000001 5.63,0.24000000000000002 L751.8599981689454,164.5800018310547 s-3,4.18 -7.17,4.55 c0,0 7.15,-4.24 6.38,-5.22 c-0.16000000000000003,-0.2 -3,-2.13 -3,-2.13 s-5.2,7.23 -11.71,7.6 c0,0 9.21,-3.9 10.63,-8.34 L742.4199981689453,158.40000183105468 s-5.12,7.91 -12.52,8.620000000000001 c0,0 9.48,-4.42 11.5,-9.14 l-4.79,-2 s-5.15,7.63 -11.3,8.17 c0,0 10.43,-6.21 10.17,-8.55 c0,0 -4.5,-1.59 -5.9,-1.4300000000000002 c0,0 -3.8200000000000003,5.38 -7.43,5.38 c0,0 6.54,-4.890000000000001 6.14,-5.68 c0,0 -6.42,-0.5 -9.81,1 a19.46,19.46 0 0 1 9.83,-2 a10.71,10.71 0 0 0 -5.13,-3.39 s3.58,-1.36 6.69,3.5300000000000002 c0,0 5,0.6000000000000001 5.59,1.17 c0,0 -2.39,-5.27 -5.45,-7.5600000000000005 c0,0 4.62,0.9400000000000001 6.73,8.05 l4.86,1.92 s-2.79,-7.13 -5.36,-9.38 c0,0 4.5600000000000005,1.6900000000000002 6.54,10 l4.45,2.56 s-1.94,-6.32 -4.26,-9.44 c0,0 3.9,2.48 5.5,10.22 l2.77,2.06 s-1.49,-4.59 -2,-5.87 s-0.25,-1.53 -0.25,-1.53 a16.45,16.45 0 0 1 3.47,8.25 S757.8899981689453,167.90000183105468 758.1999981689453,167.5800018310547 z" fill="#fb690a" opacity="0.1" id="svg_91" class="" fill-opacity="1"/><path d="M811.0899981689453,337.3900018310547 S794.5399981689453,303.0500018310547 773.4199981689453,319.9700018310547 c0,0 -4.54,1.52 -4.33,6.29 c0,0 1.7600000000000002,-0.9 3,2.77 a17.33,17.33 0 0 0 1.84,3.71 a8.58,8.58 0 0 0 4.28,3.39 h0 s9.08,7.19 26.37,2.29 c0,0 4.82,0.8300000000000001 5.62,0.24000000000000002 l-5.52,-4.27 s-3,4.18 -7.18,4.55 c0,0 7.15,-4.24 6.38,-5.22 c-0.16000000000000003,-0.2 -3,-2.13 -3,-2.13 s-5.2,7.23 -11.71,7.61 c0,0 9.21,-3.91 10.63,-8.35 l-4.51,-2.66 s-5.12,7.92 -12.52,8.620000000000001 c0,0 9.48,-4.42 11.5,-9.14 l-4.79,-2 s-5.15,7.62 -11.3,8.17 c0,0 10.44,-6.21 10.18,-8.56 c0,0 -4.51,-1.59 -5.91,-1.4300000000000002 c0,0 -3.8200000000000003,5.38 -7.43,5.38 c0,0 6.54,-4.890000000000001 6.14,-5.68 c0,0 -6.42,-0.5 -9.81,1 a19.52,19.52 0 0 1 9.84,-2 a10.69,10.69 0 0 0 -5.14,-3.39 s3.58,-1.37 6.69,3.5300000000000002 c0,0 5,0.5900000000000001 5.59,1.1600000000000001 c0,0 -2.39,-5.26 -5.44,-7.5600000000000005 c0,0 4.62,0.9400000000000001 6.73,8.05 l4.85,1.92 s-2.79,-7.13 -5.36,-9.37 c0,0 4.5600000000000005,1.6800000000000002 6.54,10 l4.45,2.55 s-1.94,-6.32 -4.26,-9.44 c0,0 3.9,2.48 5.51,10.23 l2.77,2 s-1.5,-4.59 -2,-5.87 s-0.25,-1.53 -0.25,-1.53 a16.35,16.35 0 0 1 3.47,8.25 S810.7799981689453,337.6900018310547 811.0899981689453,337.3900018310547 z" fill="#fb690a" opacity="0.1" id="svg_92" class="" fill-opacity="1"/><ellipse cx="201.9499969482422" cy="781.5900268554688" rx="22.989999771118164" ry="2.569999933242798" fill="#fb690a" opacity="0.1" id="svg_93" class="" fill-opacity="1"/><ellipse cx="51.2400016784668" cy="737.9099731445312" rx="22.989999771118164" ry="2.569999933242798" fill="#fb690a" opacity="0.1" id="svg_94" class="" fill-opacity="1"/><ellipse cx="316.8299865722656" cy="810.5999755859375" rx="22.989999771118164" ry="2.569999933242798" fill="#fb690a" opacity="0.1" id="svg_95" class="" fill-opacity="1"/><ellipse cx="905.530029296875" cy="747.4099731445312" rx="22.989999771118164" ry="2.569999933242798" fill="#fb690a" opacity="0.1" id="svg_96" class="" fill-opacity="1"/><ellipse cx="714.219970703125" cy="734.9400024414062" rx="22.989999771118164" ry="2.569999933242798" fill="#fb690a" opacity="0.1" id="svg_97" class="" fill-opacity="1"/><ellipse cx="590.4600219726562" cy="793.6599731445312" rx="27.190000534057617" ry="4.670000076293945" fill="#fb690a" opacity="0.1" id="svg_98" class="" fill-opacity="1"/><path d="M602.5899981689453,746.7200018310547 s-37.86,19.56 -18.3,42.6 c0,0 1.84,5 7.16,4.65 c0,0 -1.06,-1.94 3,-3.49 a19.51,19.51 0 0 0 4.09,-2.17 a9.61,9.61 0 0 0 3.66,-4.890000000000001 h0 s7.74,-10.36 1.7400000000000002,-29.53 c0,0 0.78,-5.42 0.1,-6.3 l-4.6,6.3100000000000005 s4.75,3.19 5.3,7.88 c0,0 -5,-7.87 -6,-7 c-0.22000000000000003,0.18000000000000002 -2.2800000000000002,3.45 -2.2800000000000002,3.45 s8.24,5.59 8.85,12.85 c0,0 -4.640000000000001,-10.17 -9.65,-11.620000000000001 L592.7899981689453,764.5800018310547 s9,5.48 10,13.72 c0,0 -5.23,-10.45 -10.57,-12.56 l-2.11,5.41 s8.68,5.52 9.48,12.38 c0,0 -7.26,-11.47 -9.870000000000001,-11.11 c0,0 -1.6400000000000001,5.08 -1.42,6.65 c0,0 6.13,4.1 6.24,8.13 c0,0 -5.66,-7.15 -6.53,-6.68 c0,0 -0.36000000000000004,7.19 1.3800000000000001,10.93 c0,0 -3,-5.34 -2.51,-10.93 a12,12 0 0 0 -3.63,5.84 s-1.6300000000000001,-3.95 3.74,-7.59 c0,0 0.51,-5.59 1.13,-6.28 c0,0 -5.8100000000000005,2.84 -8.28,6.32 c0,0 0.91,-5.19 8.79,-7.77 l2,-5.48 s-7.88,3.34 -10.31,6.28 c0,0 1.75,-5.15 10.93,-7.62 l2.72,-5 s-7,2.36 -10.42,5 c0,0 2.6500000000000004,-4.43 11.26,-6.47 l2.21,-3.15 s-5.08,1.81 -6.5,2.46 s-1.7000000000000002,0.33000000000000007 -1.7000000000000002,0.33000000000000007 a18.39,18.39 0 0 1 9.11,-4.14 S602.9399981689453,747.0600018310547 602.5899981689453,746.7200018310547 z" fill="#fb690a" id="svg_99" class="" fill-opacity="1"/><path d="M714.9599981689453,377.29000183105467 C708.4199981689453,359.5200018310547 672.4199981689453,357.85000183105467 656.7999981689453,362.3800018310547 c-11.1,3.23 -34.5,6.87 -47,8.7 l-0.81,-0.77 c1.62,-0.48000000000000004 1.6600000000000001,-1.6600000000000001 1.46,-3.41 a53.37,53.37 0 0 1 0.1,-6.92 c7.66,2.38 14.48,-3.25 14.48,-3.25 h0 c9,-4 6.58,-21.12 8.3,-25.8 c1.29,-3.5 2.68,-24.12 3.3,-34.4 l0.13,0 l0.07,-3.45 c0.09000000000000002,-1.49 0.13,-2.36 0.13,-2.36 s0.8800000000000001,-25.14 2.6,-30.23 c1.6,-4.68 2.9,-28.26 3.1,-32 c0,-0.32000000000000006 0,-0.49000000000000005 0,-0.49000000000000005 l-0.13,-2.18 c0.09000000000000002,-1.59 0.13,-3.36 0.12000000000000001,-5.22 c0,-8.55 -0.8900000000000001,-19.32 -1,-21.06 c0,-0.25 0,-0.55 0,-0.91 c0.07,-3.6500000000000004 -0.39000000000000007,-21.93 -15.94,-28.84 c-5.73,-2.56 -12.620000000000001,-5.61 -19.29,-8.58 c-1.7200000000000002,-14.85 -5.65,-29.62 -5.3100000000000005,-44.58 c0,-2.25 0.2,-4.5 0.42000000000000004,-6.74 c0,0.6500000000000001 -0.07,1.31 -0.08000000000000002,2 c0,1.45 0,2.91 0,4.36 c0.5900000000000001,-18.71 7.66,-37.52 7,-55.83 c-0.06000000000000001,1.79 -0.19000000000000003,3.59 -0.36000000000000004,5.39 a58.13,58.13 0 0 0 -1.92,-18.39 c-0.6000000000000001,-2.11 -1.4100000000000001,-4.29 -3.14,-5.7 a12.93,12.93 0 0 0 -5.48,-2.17 a110.21,110.21 0 0 0 -14.39,-2.68 A22.22,22.22 0 0 0 579.9199981689453,30.580001831054688 c-10.14,-13.92 -25.16,-27 -42.92,-30 c-8.91,-1.5 -19.16,-0.25 -25.22,6.12 a18.92,18.92 0 0 0 -1.78,1.8 c-3.26,3.89 -4.66,9 -8,12.88 c-0.22000000000000003,0.26 -0.47000000000000003,0.5 -0.7100000000000001,0.7500000000000001 c-6.54,5.85 -16.73,7.07 -24,12.32 A28.81,28.81 0 0 0 473.6999981689453,37.58000183105469 a60.88,60.88 0 0 0 -7.84,9.53 c-3.27,4.6 -6.63,9.39 -7.67,14.88 c-2.09,11 5.4,21.43 6.79,32.5 c3.1,24.77 -24.31,46.75 -19.12,71.19 a32.6,32.6 0 0 0 8.82,15.83 C443.98999816894536,191.1900018310547 434.88999816894534,200.5800018310547 434.88999816894534,200.5800018310547 l0,0.56 l-1.6900000000000002,0 l0.17,2 h-0.17 l0.93,10.85 l-0.93,15.8 s0,0.17 0,0.49000000000000005 v0.08000000000000002 l0,0.43000000000000005 s0,0.17 0,0.49000000000000005 h0.06000000000000001 c0.31000000000000005,5.79 1.54,26.61 3,31 c1.7200000000000002,5.09 2.59,30.23 2.59,30.23 s1.9,35.53 3.64,40.23 s-0.7300000000000001,21.77 8.3,25.8 h0 a19,19 0 0 0 9.07,3.7600000000000002 c-0.46,3.74 -0.17,6.45 1.32,7.3 a4.36,4.36 0 0 0 2.1,0.6000000000000001 a22.29,22.29 0 0 0 -1.6300000000000001,2.85 A42.36,42.36 0 0 1 451.1699981689453,370.5800018310547 c-9.7,-4 -41.89,-13 -51.24,-6.67 s-31.85,12.07 -21.46,37.55 S393.6999981689453,427.5800018310547 393.6999981689453,427.5800018310547 a37,37 0 0 1 8.31,8.35 c3.12,4.69 32.19,15.42 39.46,15.42 a71.19,71.19 0 0 1 9.25,0.46 s-7.890000000000001,6.92 -6.84,10.94 s-2.4,36.2 -2.4,36.2 s8,8.06 11.42,-2.51 l0.12000000000000001,0.16000000000000003 c0.6400000000000001,0.8700000000000001 4.1,4.8 10.61,-0.16000000000000003 a59.48,59.48 0 0 1 8.46,-5.36 l31.52,-4.46 a89.24,89.24 0 0 1 9.870000000000001,-0.07 c5,0.41000000000000003 9.91,-2.55 13,-4.84 c6.53,2.48 13.870000000000001,5.19 17.36,6.18 c7.08,2 39.62,10.73 47.23,8 a10.57,10.57 0 0 0 4.1,-2.92 l7.26,0.23 l-3.4,0.6800000000000002 s6.62,0.11000000000000001 15.620000000000001,0.23 l-0.38000000000000006,0.22000000000000003 l11.29,-0.1 c16.52,0.15000000000000002 35.08,0.2 37.52,-0.35000000000000003 c3.8200000000000003,-0.8500000000000001 23.67,-0.25 29.52,0 l1.6300000000000001,0 s21.81,-4.35 12.81,-26.48 c-6.92,-17 -28.19,-21.94 -37.63,-23.3 c2.66,-0.53 4.95,-0.9400000000000001 6.47,-1.18 c6.59,-1 19.39,-7 20.43,-9.05 s11.77,-8 14.54,-11.39 S721.5299981689453,395.0600018310547 714.9599981689453,377.29000183105467 zM534.3099981689453,427.0200018310547 l-1.07,0.35000000000000003 l-0.7200000000000001,0.24000000000000002 l-1.3800000000000001,1.36 c-1.1,-0.7400000000000001 -2.2800000000000002,-1.52 -3.51,-2.3200000000000003 C529.7999981689453,426.7800018310547 532.0299981689453,426.9100018310547 534.3099981689453,427.0200018310547 zm95.31,28.18 h0 z" fill="url(#3cf802be-0480-4c68-848a-073112220499)" id="svg_100"/><path d="M598.0699981689453,321.5800018310547 s15.3,40 24,36 s6.34,-21 8,-25.66 s3.5,-40 3.5,-40 s0.8400000000000001,-25 2.5,-30.06 c1.54,-4.65 2.79,-28.1 3,-31.79 c0,-0.32000000000000006 0,-0.49000000000000005 0,-0.49000000000000005 L637.4199981689453,200.5800018310547 l-9.34,-2.33 l-21.66,8 l-3,17.13 l-1.17,6.69 l-0.5,2.85 z" fill="#be6f72" id="svg_101" class=""/><path d="M603.1099981689454,314.8800018310547 s14.6,11.95 19,13 s7.1,10.37 7.1,10.37 " opacity="0.1" id="svg_102"/><path d="M478.4199981689453,323.3300018310547 s-15.3,40 -24,36 s-6.34,-21 -8,-25.66 s-3.5,-40 -3.5,-40 s-0.8400000000000001,-25 -2.5,-30.06 c-1.54,-4.65 -2.79,-28.1 -3,-31.79 c0,-0.32000000000000006 0,-0.49000000000000005 0,-0.49000000000000005 l1.6600000000000001,-29 l9.34,-2.33 l21.66,8 l3,17.13 l1.17,6.69 l0.5,2.85 z" fill="#be6f72" id="svg_103"/><rect x="543.9000244140625" y="109.2699966430664" width="34.150001525878906" height="53.22999954223633" fill="#3e373a" id="svg_104"/><rect x="543.9000244140625" y="109.2699966430664" width="34.150001525878906" height="53.22999954223633" opacity="0.1" id="svg_105"/><path d="M472.4199981689453,363.17000183105466 s-11.67,12.83 -7.34,15.16 s32.34,46 32.34,46 s92,11.33 109.35,-5.67 s17,-47.37 17,-47.37 s-13.94,3 -15.46,1.37 s-9.870000000000001,-9.49 -9.870000000000001,-9.49 S480.4199981689453,356.0100018310547 472.4199981689453,363.17000183105466 z" fill="#4b4b5b" id="svg_106"/><path d="M472.4199981689453,363.17000183105466 s-11.67,12.83 -7.34,15.16 s32.34,46 32.34,46 s92,11.33 109.35,-5.67 s17,-47.37 17,-47.37 s-13.94,3 -15.46,1.37 s-9.870000000000001,-9.49 -9.870000000000001,-9.49 S480.4199981689453,356.0100018310547 472.4199981689453,363.17000183105466 z" opacity="0.02" id="svg_107"/><path d="M638.0399981689453,201.00000183105467 l-30,24 l-9.07,0.6600000000000001 l-3.33,0.24000000000000002 l-55.93,4.1 l-58,-4.24 l-8.63,-0.6300000000000001 l-11,-0.8 l-23,-22 s16.28,-17.44 30.54,-29.21 c5.62,-4.65 10.93,-8.41 14.8,-9.89 l0.6600000000000001,-0.23 A16.46,16.46 0 0 0 491.4199981689453,158.5800018310547 c11.26,-11.61 21.67,-40.26 21.67,-40.26 s49.67,-25.66 43.67,8 s22.33,25.34 22.33,25.34 l9.34,4.26 l3.6900000000000004,1.6900000000000002 l9.41,4.3100000000000005 l21.23,9.74 C639.4199981689453,179.3300018310547 638.0399981689453,201.00000183105467 638.0399981689453,201.00000183105467 z" fill="#be6f72" id="svg_108"/><circle cx="537.3800048828125" cy="101.05999755859375" r="44.66999816894531" opacity="0.1" id="svg_109"/><path d="M638.1099981689454,232.8200018310547 H437.4199981689453 c0,-0.32000000000000006 0,-0.49000000000000005 0,-0.49000000000000005 l1.6600000000000001,-29 s16.28,-17.44 30.54,-29.21 l126,-5 l5.86,-6.18 l21.23,9.74 c16.67,7.66 15.33,29.33 15.33,29.33 S640.3199981689453,227.1200018310547 638.1099981689454,232.8200018310547 z" opacity="0.1" id="svg_110"/><path d="M638.1099981689454,231.8200018310547 H437.4199981689453 c0,-0.32000000000000006 0,-0.49000000000000005 0,-0.49000000000000005 l1.6600000000000001,-29 s16.28,-17.44 30.54,-29.21 l126,-5 l5.86,-6.18 l21.23,9.74 c16.67,7.66 15.33,29.33 15.33,29.33 S640.3199981689453,226.1200018310547 638.1099981689454,231.8200018310547 z" fill="#e7c7ca" id="svg_111"/><path d="M505.2099981689453,150.50000183105467 s31.66,40.34 73.83,-0.8300000000000001 s4.67,91.83 4.67,91.83 l-91,10.8 z" opacity="0.1" id="svg_112"/><path d="M505.2099981689453,152.50000183105467 s31.66,40.34 73.83,-0.8300000000000001 s4.67,91.83 4.67,91.83 l-91,10.8 z" fill="#e7c7ca" id="svg_113"/><path d="M592.0699981689453,159.5800018310547 L595.4199981689453,210.6700018310547 l3.59,17 l2.74,13 s7,100 5,105 s1,9 1.42,11.66 s-0.42000000000000004,9.34 -0.09000000000000002,12.34 s0,4.33 -7.66,3.26 s-18.34,-2.93 -18.34,-2.93 s-27,2 -36.33,-1.33 s-27,-3.34 -27,-3.34 s-26.67,0.6700000000000002 -35.33,-0.33000000000000007 s-13.34,10.67 -19,7.33 s6.66,-35.66 10.66,-45 s-5.33,-33 -5.33,-33 l12,-66.57 L484.4199981689453,212.67000183105466 V165.2300018310547 l0.6600000000000001,-0.23 A16.46,16.46 0 0 0 491.4199981689453,160.5800018310547 l3,47.74 l94,3.34 V157.93000183105468 " opacity="0.1" id="svg_114"/><path d="M592.0699981689453,157.5800018310547 L595.4199981689453,208.6700018310547 l3.59,17 l2.74,13 s7,100 5,105 s1,9 1.42,11.66 s-0.42000000000000004,9.34 -0.09000000000000002,12.34 s0,4.33 -7.66,3.26 s-18.34,-2.93 -18.34,-2.93 s-27,2 -36.33,-1.33 s-27,-3.34 -27,-3.34 s-26.67,0.6700000000000002 -35.33,-0.33000000000000007 s-13.34,10.67 -19,7.33 s6.66,-35.66 10.66,-45 s-5.33,-33 -5.33,-33 l12,-66.57 L484.4199981689453,210.6700018310547 V163.2300018310547 l0.6600000000000001,-0.23 A16.46,16.46 0 0 0 491.4199981689453,158.5800018310547 l3,47.74 l94,3.34 V155.93000183105468 " fill="#e7c7ca" id="svg_115"/><path d="M602.8799981689453,50.96000183105468 c-0.5700000000000001,-2.09 -1.36,-4.26 -3,-5.66 a12.28,12.28 0 0 0 -5.28,-2.16 A104.32,104.32 0 0 0 580.7199981689453,40.48000183105469 a22.22,22.22 0 0 0 -3,-6.23 C567.9199981689453,20.410001831054686 553.4199981689453,7.360001831054689 536.3599981689454,4.410001831054686 c-8.93,-1.55 -19.28,-0.16000000000000003 -25,6.88 c-3.14,3.87 -4.49,9 -7.66,12.8 c-6.11,7.38 -17.14,8.29 -24.84,14 c-4.11,3 -7.09,7.35 -10,11.57 c-3.15,4.57 -6.39,9.33 -7.39,14.79 c-2,10.91 5.21,21.31 6.54,32.32 c3,24.63 -23.4,46.48 -18.41,70.78 c2.91,14.17 16,24.15 29.54,29.21 c4.77,1.79 10.22,3.5700000000000003 12.45,8.15 c1,2 1.17,4.3100000000000005 2.11,6.33 c3.16,6.74 13.55,7 19.13,2.09 s7.34,-12.85 8,-20.26 c2.68,-32.36 -10.28,-64.33 -8.77,-96.77 c0.45,-9.81 3.21,-20.94 12,-25.38 c11.83,-6 26.06,4 39.08,2.09 a77.53,77.53 0 0 1 3.74,47.31 c-2.07,8.63 -5.65,17 -5.91,25.9 c-0.39000000000000007,13.55 6.92,25.93 13.24,37.91 a20.17,20.17 0 0 1 2.67,7.3100000000000005 a17.62,17.62 0 0 1 -1.4300000000000002,7.65 c-3.5700000000000003,9.61 -9.73,18.53 -10.43,28.76 a4.65,4.65 0 0 0 0.7500000000000001,3.42 a4.3,4.3 0 0 0 2.58,1.1600000000000001 c10.8,1.85 20.14,-7.72 25.41,-17.33 A81.24,81.24 0 0 0 603.7799981689453,180.5800018310547 c1.09,-20.36 -6.21,-40.39 -5.76,-60.77 C598.5399981689453,96.64000183105469 609.0099981689453,73.31000183105469 602.8799981689453,50.96000183105468 z" opacity="0.1" id="svg_116"/><path d="M603.8799981689453,49.96000183105468 c-0.5700000000000001,-2.09 -1.36,-4.26 -3,-5.66 a12.28,12.28 0 0 0 -5.28,-2.16 A104.32,104.32 0 0 0 581.7199981689453,39.48000183105469 a22.22,22.22 0 0 0 -3,-6.23 C568.9199981689453,19.410001831054686 554.4199981689453,6.360001831054689 537.3599981689454,3.410001831054686 c-8.93,-1.55 -19.28,-0.16000000000000003 -25,6.88 c-3.14,3.87 -4.49,9 -7.66,12.8 c-6.11,7.38 -17.14,8.29 -24.84,14 c-4.11,3 -7.09,7.35 -10,11.57 c-3.15,4.57 -6.39,9.33 -7.39,14.79 c-2,10.91 5.21,21.31 6.54,32.32 c3,24.63 -23.4,46.48 -18.41,70.78 c2.91,14.17 16,24.15 29.54,29.21 c4.77,1.79 10.22,3.5700000000000003 12.45,8.15 c1,2 1.17,4.3100000000000005 2.11,6.33 c3.16,6.74 13.55,7 19.13,2.09 s7.34,-12.85 8,-20.26 c2.68,-32.36 -10.28,-64.33 -8.77,-96.77 c0.45,-9.81 3.21,-20.94 12,-25.38 c11.83,-6 26.06,4 39.08,2.09 a77.53,77.53 0 0 1 3.74,47.31 c-2.07,8.63 -5.65,17 -5.91,25.9 c-0.39000000000000007,13.55 6.92,25.93 13.24,37.91 a20.17,20.17 0 0 1 2.67,7.3100000000000005 a17.62,17.62 0 0 1 -1.4300000000000002,7.65 c-3.5700000000000003,9.61 -9.73,18.53 -10.43,28.76 a4.65,4.65 0 0 0 0.7500000000000001,3.42 a4.3,4.3 0 0 0 2.58,1.1600000000000001 c10.8,1.85 20.14,-7.72 25.41,-17.33 A81.24,81.24 0 0 0 604.7799981689453,179.5800018310547 c1.09,-20.36 -6.21,-40.39 -5.76,-60.77 C599.5399981689453,95.64000183105469 610.0099981689453,72.31000183105469 603.8799981689453,49.96000183105468 z" fill="#3e373a" id="svg_117"/><polygon points="581.79 492.73 621.46 494 615.77 464.58 585.38 467.47 581.79 492.73" fill="#c3c7d9" id="svg_118"/><path d="M704.7099981689453,423.0000018310547 c-2.67,3.33 -13,9.33 -14,11.33 s-13.33,8 -19.67,9 s-26.33,5.34 -30,7.67 c-2.63,1.6800000000000002 -23.74,7 -37.61,9.95 a106.75,106.75 0 0 1 -11.39,2.05 c-6,0.33000000000000007 -71.66,-22 -71.66,-22 l12.66,-13 l0.7000000000000001,-0.24000000000000002 c3.58,-1.21 20.12,-6.8 29.3,-9.46 c10.34,-3 22.34,-15.33 22.34,-15.33 s17.66,-6 20,-6.67 s-6,-23.33 -6,-23.33 s38.33,-5.32 53.33,-9.83 s49.67,-2.84 56,14.83 S707.4199981689453,419.67000183105466 704.7099981689453,423.0000018310547 z" fill="#4b4b5b" id="svg_119"/><path d="M530.0399981689453,479.3300018310547 s-7.66,8 -15.33,7.34 s-34.49,2 -34.49,2 a53.77,53.77 0 0 0 -13.51,7.83 c-6.27,4.94 -9.6,1 -10.22,0.16000000000000003 l-0.11000000000000001,-0.16000000000000003 c-3.34,10.51 -11,2.5 -11,2.5 s3.33,-32 2.31,-36 s6.59,-10.870000000000001 6.59,-10.870000000000001 l9,-2.29 l22.8,-5.84 l32.67,11.33 z" fill="#e7c7ca" id="svg_120"/><path d="M463.23999816894536,449.8400018310547 l-6.75,46.82 l-0.11000000000000001,-0.16000000000000003 c-3.34,10.51 -11,2.5 -11,2.5 s3.33,-32 2.31,-36 s6.59,-10.870000000000001 6.59,-10.870000000000001 z" opacity="0.1" id="svg_121"/><path d="M510.4199981689453,316.6600018310547 s17.66,6 33,0 " opacity="0.1" id="svg_122"/><path d="M570.7099981689453,328.0000018310547 s7.33,3.66 13,0 " opacity="0.1" id="svg_123"/><path d="M570.7099981689453,336.6800018310547 s12.33,1.6500000000000001 14.67,-1.6800000000000002 " opacity="0.1" id="svg_124"/><path d="M566.7099981689453,355.3300018310547 s23.16,-3 28.91,-7 " opacity="0.1" id="svg_125"/><path d="M496.0399981689453,348.3300018310547 s13,7.33 22.67,7 " opacity="0.1" id="svg_126"/><path d="M603.4199981689453,460.9500018310547 a106.75,106.75 0 0 1 -11.39,2.05 c-6,0.33000000000000007 -71.66,-22 -71.66,-22 l12.66,-13 l0.7000000000000001,-0.24000000000000002 c2,1.4100000000000001 3.64,2.62 4.8100000000000005,3.54 c5.51,4.34 10.83,-1.33 12.83,-1.33 s19.33,14.33 19.33,14.33 s16,3.67 18.67,7 s12,2.67 13.66,5 C603.5299981689453,457.0200018310547 603.5899981689453,458.79000183105467 603.4199981689453,460.9500018310547 z" opacity="0.1" id="svg_127"/><path d="M480.21999816894527,374.3300018310547 s-16.18,0.93 -25.51,-3 s-40.33,-13 -49.33,-6.63 s-30.67,12 -20.67,37.34 s14.67,26 14.67,26 a36.1,36.1 0 0 1 8,8.3 c3,4.67 31,15.33 38,15.33 s19.33,0 36.66,12 s33,13.34 33,13.34 s22,9 28.85,11 s38.15,10.66 45.49,8 s12,-19.34 12,-19.34 s3.33,-15 1.6600000000000001,-17.33 s-11,-1.6700000000000002 -13.66,-5 s-18.67,-7 -18.67,-7 S553.4199981689453,433.0000018310547 551.4199981689453,433.0000018310547 s-7.32,5.66 -12.83,1.33 a292.69,292.69 0 0 0 -34.51,-22 C491.4199981689453,405.6600018310547 480.21999816894527,374.3300018310547 480.21999816894527,374.3300018310547 z" fill="#4b4b5b" id="svg_128"/><path d="M447.6899981689453,384.0000018310547 a19.1,19.1 0 0 1 16.39,4.33 c8,6.67 34.92,20.06 34.92,20.06 " opacity="0.1" id="svg_129"/><path d="M647.7099981689453,383.5800018310547 s-35.67,5.4 -42.33,12.73 " opacity="0.1" id="svg_130"/><path d="M688.7099981689453,494.00000183105465 l-1.57,0 c-5.640000000000001,-0.2 -24.75,-0.8 -28.43,0 c-4.33,1 -61.67,0 -61.67,0 l11.21,-2.33 s-4.16,-14.58 -1.52,-15.79 c0,0 -15,-9.88 -3.6900000000000004,-16.55 s23.5,-3.8600000000000003 23.5,-3.8600000000000003 l28.39,-9.620000000000001 l5.45,-1.85 s32,1.6700000000000002 40.66,23.67 S688.7099981689453,494.00000183105465 688.7099981689453,494.00000183105465 z" fill="#e7c7ca" id="svg_131"/><path d="M688.7099981689453,494.00000183105465 l-1.57,0 c9.31,-7.68 30.37,-31.06 -32.21,-48.1 l5.45,-1.85 s32,1.6700000000000002 40.66,23.67 S688.7099981689453,494.00000183105465 688.7099981689453,494.00000183105465 z" opacity="0.1" id="svg_132"/><circle cx="629.8800048828125" cy="466.3299865722656" r="1.75" fill="#4b4b5b" id="svg_133"/><circle cx="619.7100219726562" cy="469.2200012207031" r="1.75" fill="#4b4b5b" id="svg_134"/><g opacity="0.1" id="svg_135"><path d="M570.1599981689453,99.4100018310547 A77.59,77.59 0 0 0 564.4199981689453,67.27000183105469 c-13,1.94 -27.24,-8.09 -39.08,-2.09 c-8.76,4.44 -11.51,15.57 -12,25.38 c-0.12000000000000001,2.59 -0.14,5.18 -0.09000000000000002,7.77 c0,-0.92 0,-1.85 0.09000000000000002,-2.77 c0.46,-9.81 3.21,-20.94 12,-25.38 c11.84,-6 26.06,4 39.08,2.09 A77.38,77.38 0 0 1 570.1599981689453,99.4100018310547 z" id="svg_136"/><path d="M469.4199981689453,97.58000183105469 a33.32,33.32 0 0 0 -0.13,-6.54 c-1.06,-8.8 -5.87,-17.21 -6.74,-25.79 c-1.12,10.35 5.47,20.29 6.74,30.79 C469.4199981689453,96.58000183105469 469.4199981689453,97.06000183105468 469.4199981689453,97.58000183105469 z" id="svg_137"/><path d="M522.1099981689454,187.3200018310547 c-0.6200000000000001,7.42 -2.37,15.35 -8,20.27 s-16,4.65 -19.13,-2.09 c-1,-2 -1.15,-4.33 -2.12,-6.33 c-2.22,-4.58 -7.68,-6.36 -12.45,-8.15 c-13.55,-5.07 -26.62,-15 -29.53,-29.21 a30.68,30.68 0 0 1 -0.53,-3.9 a31.52,31.52 0 0 0 0.53,8.9 c2.91,14.17 16,24.14 29.53,29.21 c4.77,1.79 10.23,3.5700000000000003 12.45,8.15 c1,2 1.17,4.3100000000000005 2.12,6.33 c3.15,6.74 13.54,7 19.13,2.09 s7.33,-12.85 8,-20.27 A114.29,114.29 0 0 0 522.4199981689453,180.5800018310547 C522.4199981689453,182.8500018310547 522.2899981689453,185.09000183105468 522.1099981689454,187.3200018310547 z" id="svg_138"/><path d="M599.3499981689453,114.0700018310547 c0,1.45 0,2.89 0,4.33 c0.56,-18.6 7.38,-37.3 6.71,-55.51 C605.5399981689453,79.7300018310547 599.7299981689453,96.95000183105469 599.3499981689453,114.0700018310547 z" id="svg_139"/><path d="M577.8899981689453,189.31000183105468 a12.89,12.89 0 0 0 0.23,-3.6100000000000003 a20,20 0 0 0 -2.67,-7.3100000000000005 c-5.78,-11 -12.37,-22.26 -13.15,-34.47 c0,0.52 -0.07,1 -0.08000000000000002,1.56 c-0.4,13.54 6.91,25.93 13.23,37.91 A24,24 0 0 1 577.8899981689453,189.31000183105468 z" id="svg_140"/><path d="M605.0999981689453,174.84000183105468 a81.37,81.37 0 0 1 -10.09,34.52 c-5.28,9.61 -14.61,19.18 -25.42,17.33 a4.25,4.25 0 0 1 -2.58,-1.17 a2.5,2.5 0 0 1 -0.47000000000000003,-0.78 c-0.12000000000000001,0.78 -0.22000000000000003,1.57 -0.28,2.37 a4.61,4.61 0 0 0 0.7500000000000001,3.41 a4.25,4.25 0 0 0 2.58,1.17 c10.81,1.85 20.14,-7.72 25.42,-17.33 a81.37,81.37 0 0 0 10.09,-34.52 c0.12000000000000001,-2.34 0.13,-4.67 0.06000000000000001,-7 C605.1399981689453,173.5100018310547 605.1399981689453,174.1700018310547 605.0999981689453,174.84000183105468 z" id="svg_141"/></g><path d="M606.7299981689453,475.88000183105464 s25.31,10.620000000000001 42,-12.88 " fill="none" stroke="#000" stroke-miterlimit="10" opacity="0.1" id="svg_142"/><path d="M611.7099981689453,494.4400018310547 s20.67,-13.44 47,-0.44000000000000006 " fill="none" stroke="#000" stroke-miterlimit="10" opacity="0.1" id="svg_143"/><path d="M473.34999816894526,491.39000183105463 s8.68,-19.58 31.86,-4.65 " fill="none" stroke="#000" stroke-miterlimit="10" opacity="0.1" id="svg_144"/><path d="M445.2099981689453,201.8300018310547 l17.7,-16 s68.63,-4.5 71.47,18.83 c0,0 24.33,-27.66 75.5,-21.5 l21.65,17.24 l-59.84,26.26 l-58.15,20.17 l-42.83,-19.17 z" opacity="0.1" id="svg_145"/><path d="M445.2099981689453,202.8300018310547 l17.7,-16 s68.63,-4.5 71.47,18.83 c0,0 24.33,-27.66 75.5,-21.5 l21.65,17.24 l-59.84,26.26 l-58.15,20.17 l-42.83,-19.17 z" fill="#d5d6db" id="svg_146"/><polygon points="437.38 204.83 445.21 298.5 528.21 302.67 524.61 209.4 524.54 207.83 437.38 204.83" opacity="0.1" id="svg_147"/><polygon points="437.38 202.83 445.21 296.5 528.21 300.67 524.61 207.4 524.54 205.83 437.38 202.83" fill="#fb690a" id="svg_148" class="" fill-opacity="1"/><polygon points="635.33 202.83 549.71 215.67 549.71 309.76 633.38 297.67 635.33 202.83" opacity="0.1" id="svg_149"/><polygon points="635.33 200.83 549.71 213.67 549.71 307.76 633.38 295.67 635.33 200.83" fill="#fb690a" id="svg_150" class="" fill-opacity="1"/><polygon points="615.14 223.79 568.89 228.93 569.9 244.69 615.11 239.75 615.14 223.79" fill="#fff" opacity="0.3" id="svg_151"/><path d="M449.7099981689453,346.6600018310547 L454.4199981689453,359.3300018310547 s7,6 14.66,3 s14.34,-4.49 17.67,-7.41 s8,-17.59 8,-17.59 s4.67,-16 9.33,-20 s17,-59.11 0,-53.72 s-30,55.39 -30,55.39 s-3,3.66 -7.33,4 s-13,-0.6700000000000002 -14.67,3 S444.7099981689453,339.3300018310547 449.7099981689453,346.6600018310547 z" fill="#be6f72" id="svg_152"/><path d="M549.7099981689453,215.66000183105467 a28.8,28.8 0 0 1 -25.11,-6.26 l3.6100000000000003,93.26 s8.5,9.2 21.5,7.1 z" opacity="0.1" id="svg_153"/><path d="M549.7099981689453,213.66000183105467 a28.8,28.8 0 0 1 -25.11,-6.26 l3.6100000000000003,93.26 s8.5,9.2 21.5,7.1 z" fill="#6c63ff" id="svg_154"/><path d="M549.7099981689453,213.66000183105467 a28.8,28.8 0 0 1 -25.11,-6.26 l3.6100000000000003,93.26 s8.5,9.2 21.5,7.1 z" opacity="1" id="svg_155" class="" fill-opacity="1" fill="#e25f0d" stroke-opacity="1" stroke="#fb690a"/><path d="M551.7099981689453,203.15000183105468 s34.83,-10.65 43.91,-9.15 " opacity="0.1" id="svg_156"/><path d="M512.7499981689454,198.50000183105467 s-33.76,-8 -39.4,-5.73 " opacity="0.1" id="svg_157"/><path d="M573.6699981689453,204.4800018310547 s23.29,-8.54 31.71,-4.48 " opacity="0.1" id="svg_158"/><path d="M561.9399981689453,418.7100018310547 A76.56,76.56 0 0 1 573.4199981689453,411.5800018310547 c6,-2.89 17,-10.39 17,-10.39 " opacity="0.1" id="svg_159"/><path d="M473.34999816894526,316.6600018310547 s-14.61,11.95 -19,13 s-7.1,10.37 -7.1,10.37 " opacity="0.1" id="svg_160"/><path d="M626.7399981689454,344.8800018310547 L622.0799981689453,357.5800018310547 s-7,6 -14.67,3 s-14.33,-4.49 -17.67,-7.41 s-8,-17.59 -8,-17.59 s-4.66,-16 -9.33,-20 s-17,-59.11 0,-53.72 s30,55.39 30,55.39 s3,3.66 7.33,4 s13,-0.6700000000000002 14.67,3 S631.7399981689454,337.5800018310547 626.7399981689454,344.8800018310547 z" fill="#be6f72" id="svg_161"/><path d="M618.5699981689453,321.5200018310547 s9.55,6.14 9.51,13.48 " opacity="0.1" id="svg_162"/><circle cx="537.5399780273438" cy="98.87000274658203" r="44.66999816894531" fill="#be6f72" id="svg_163"/><path d="M509.48999816894536,86.8800018310547 c5.42,-0.8500000000000001 10.17,-4 15.35,-5.8100000000000005 c11.59,-4.07 24.41,-1.28 36.14,2.39 c4.5,1.4100000000000001 9.07,3 13.79,3 s9.73,-1.9300000000000002 12.14,-6 c2.22,-3.74 1.79,-8.6 -0.08000000000000002,-12.53 s-5,-7.09 -8.16,-10.07 c-10.4,-9.82 -23.3,-19 -37.57,-18 c-5.74,0.41000000000000003 -11.23,2.46 -16.51,4.73 a182,182 0 0 0 -19.38,9.76 c-4.8100000000000005,2.79 -13.72,6.52 -16.49,11.620000000000001 C482.4199981689453,77.46000183105468 499.6899981689453,88.42000183105469 509.48999816894536,86.8800018310547 z" fill="#3e373a" id="svg_164"/><path d="M586.9099981689453,76.2600018310547 c-2.41,4.07 -7.42,6 -12.14,6 s-9.29,-1.53 -13.8,-2.94 c-11.73,-3.67 -24.54,-6.47 -36.14,-2.39 c-5.17,1.81 -9.93,5 -15.35,5.8 c-7.9,1.24 -20.62,-5.640000000000001 -22,-14.39 c-1.55,10.11 13.2,18.77 22,17.39 c5.42,-0.8500000000000001 10.18,-4 15.35,-5.8 c11.6,-4.08 24.41,-1.28 36.14,2.39 c4.51,1.4100000000000001 9.07,3 13.8,2.94 s9.73,-1.92 12.14,-6 a11.71,11.71 0 0 0 1.4,-7.3100000000000005 A10.78,10.78 0 0 1 586.9099981689453,76.2600018310547 z" opacity="0.1" id="svg_165"/><path d="M949.4199981689453,618.2100018310547 s5.93,7.75 -2.74,19.46 s-15.81,21.59 -12.93,28.89 c0,0 13.08,-21.74 23.72,-22.05 S961.1099981689454,631.2800018310547 949.4199981689453,618.2100018310547 z" fill="#fb690a" id="svg_166" class="" fill-opacity="1"/><path d="M949.4199981689453,618.2100018310547 a9.6,9.6 0 0 1 1.21,2.43 c10.38,12.2 15.92,23.59 5.93,23.87 c-9.3,0.27 -20.45,16.9 -23.12,21.09 a9.78,9.78 0 0 0 0.31000000000000005,1 s13.08,-21.74 23.72,-22.05 S961.1099981689454,631.2800018310547 949.4199981689453,618.2100018310547 z" opacity="0.1" id="svg_167"/><path d="M960.4199981689453,628.0900018310547 c0,2.73 -0.31000000000000005,4.94 -0.6800000000000002,4.94 s-0.6900000000000002,-2.21 -0.6900000000000002,-4.94 s0.38000000000000006,-1.44 0.7600000000000001,-1.44 S960.4199981689453,625.3600018310547 960.4199981689453,628.0900018310547 z" fill="#ffd037" id="svg_168"/><path d="M964.2099981689453,631.3500018310547 c-2.39,1.3 -4.48,2.09 -4.66,1.7600000000000002 s1.61,-1.6600000000000001 4,-3 s1.45,-0.36000000000000004 1.6300000000000001,0 S966.6099981689454,630.0400018310547 964.2099981689453,631.3500018310547 z" fill="#ffd037" id="svg_169"/><path d="M918.0799981689453,618.2100018310547 s-5.93,7.75 2.74,19.46 s15.81,21.59 12.92,28.89 c0,0 -13.07,-21.74 -23.72,-22.05 S906.4199981689453,631.2800018310547 918.0799981689453,618.2100018310547 z" fill="#fb690a" id="svg_170" class="" fill-opacity="1"/><path d="M918.0799981689453,618.2100018310547 a9.6,9.6 0 0 0 -1.21,2.43 c-10.38,12.2 -15.92,23.59 -5.93,23.87 c9.29,0.27 20.45,16.9 23.12,21.09 a7.72,7.72 0 0 1 -0.32000000000000006,1 s-13.07,-21.74 -23.72,-22.05 S906.4199981689453,631.2800018310547 918.0799981689453,618.2100018310547 z" opacity="0.1" id="svg_171"/><path d="M907.0599981689453,628.0900018310547 c0,2.73 0.30000000000000004,4.94 0.6800000000000002,4.94 s0.6900000000000002,-2.21 0.6900000000000002,-4.94 s-0.39000000000000007,-1.44 -0.7600000000000001,-1.44 S907.0599981689453,625.3600018310547 907.0599981689453,628.0900018310547 z" fill="#ffd037" id="svg_172"/><path d="M903.2799981689453,631.3500018310547 c2.39,1.3 4.48,2.09 4.66,1.7600000000000002 s-1.61,-1.6600000000000001 -4,-3 s-1.45,-0.36000000000000004 -1.6300000000000001,0 S900.8799981689453,630.0400018310547 903.2799981689453,631.3500018310547 z" fill="#ffd037" id="svg_173"/><ellipse cx="933.75" cy="716.3699951171875" rx="62" ry="9.510000228881836" fill="#fb690a" opacity="0.1" id="svg_174" class="" fill-opacity="1"/><path d="M965.6599981689453,656.1100018310547 l-0.30000000000000004,2.42 l-0.42000000000000004,3.42 l-0.17,1.4300000000000002 l-0.42000000000000004,3.42 l-0.18000000000000002,1.4300000000000002 l-0.41000000000000003,3.41 l-4.75,38.9 c-0.42000000000000004,3.47 -6.09,6.18 -12.94,6.18 H921.4199981689453 c-6.85,0 -12.51,-2.71 -12.94,-6.18 l-4.75,-38.9 l-0.42000000000000004,-3.41 l-0.17,-1.4300000000000002 l-0.42000000000000004,-3.42 l-0.18000000000000002,-1.4300000000000002 l-0.41000000000000003,-3.42 l-0.30000000000000004,-2.42 c-0.23,-2 2.83,-3.62 6.71,-3.62 h50.42 C962.8299981689454,652.4900018310547 965.8999981689453,654.1400018310546 965.6599981689453,656.1100018310547 z" fill="#65617d" id="svg_175"/><polygon points="965.36 658.53 964.95 661.95 902.55 661.95 902.13 658.53 965.36 658.53" fill="#9d9cb5" id="svg_176"/><polygon points="964.77 663.38 964.36 666.8 903.14 666.8 902.72 663.38 964.77 663.38" fill="#9d9cb5" id="svg_177"/><polygon points="964.18 668.23 963.76 671.65 903.73 671.65 903.32 668.23 964.18 668.23" fill="#9d9cb5" id="svg_178"/></g></svg>
