<svg xmlns="http://www.w3.org/2000/svg" data-name="Layer 1" width="882.95113" height="612.14792" viewBox="0 0 882.95113 612.14792"><rect id="backgroundrect" width="100%" height="100%" x="0" y="0" fill="none" stroke="none"/><g class="currentLayer" style=""><title>Layer 1</title><path d="M102.89609067871095,530.317859350586 s-112.306,-51.70032 -72.853,-87.55226 S102.89609067871095,530.317859350586 102.89609067871095,530.317859350586 z" fill="#e6e6e6" id="svg_1"/><path d="M100.94136067871096,542.381619350586 s-51.62,-169.60649 24.39238,-161.49519 S100.94136067871096,542.381619350586 100.94136067871096,542.381619350586 z" fill="#e6e6e6" id="svg_2"/><path d="M63.30468067871095,527.339579350586 l2.16658,28.37158 l0.03437000000000001,0.49006000000000005 a130.3557,130.3557 0 0 0 0.6706200000000002,13.26586 c2.94032,28.939 15.57858,42.12751 30.349,42.12751 s26.85843,-13.18851 29.79874,-42.12751 a130.35277,130.35277 0 0 0 0.6706300000000002,-13.26586 l0.017210000000000003,-0.3955000000000001 l0.008560000000000002,-0.09456000000000003 L129.19557067871096,527.339579350586 z" fill="#e6e6e6" id="svg_3"/><path d="M127.02038067871092,555.711159350586 l-0.008560000000000002,0.09456000000000003 l-0.017210000000000003,0.3955000000000001 a130.35277,130.35277 0 0 1 -0.6706300000000002,13.26586 H66.17625067871094 a130.3557,130.3557 0 0 1 -0.6706200000000002,-13.26586 l-0.03437000000000001,-0.49006000000000005 z" fill="#fff" id="svg_4"/><path d="M835.384050678711,547.6688493505859 s-86.94909,-40.0272 -56.40393,-67.78435 S835.384050678711,547.6688493505859 835.384050678711,547.6688493505859 z" fill="#e6e6e6" id="svg_5"/><path d="M833.8706706787109,557.0088093505859 s-39.965,-131.312 18.885,-125.03214 S833.8706706787109,557.0088093505859 833.8706706787109,557.0088093505859 z" fill="#e6e6e6" id="svg_6"/><path d="M804.7317606787109,545.3630193505859 l1.6773900000000002,21.96573 l0.026610000000000005,0.3794200000000001 a100.92376,100.92376 0 0 0 0.51921,10.27064 c2.27644,22.405 12.06118,32.61578 23.49667,32.61578 s20.79422,-10.21075 23.07066,-32.61578 a100.92088,100.92088 0 0 0 0.51921,-10.27064 l0.013330000000000003,-0.30621000000000004 l0.006620000000000002,-0.07321000000000001 l1.6840600000000001,-21.96573 z" fill="#e6e6e6" id="svg_7"/><path d="M854.0614606787109,567.3287493505859 l-0.006620000000000002,0.07321000000000001 l-0.013330000000000003,0.30621000000000004 a100.92088,100.92088 0 0 1 -0.51921,10.27064 H806.954970678711 a100.92376,100.92376 0 0 1 -0.51921,-10.27064 l-0.026610000000000005,-0.3794200000000001 z" fill="#fff" id="svg_8"/><path d="M292.71605067871093,182.58695935058591 V143.99995935058593 h-6 v38.587 a8,8 0 1 0 6,0 z" fill="#e6e6e6" id="svg_9"/><path d="M306.71605067871093,571.999959350586 h-41 v-498 h-16 v498 H208.7159906787109 A36.99993,36.99993 0 0 0 171.71605067871093,608.999959350586 v0.00006000000000000002 h172 V608.999959350586 A36.99994,36.99994 0 0 0 306.71605067871093,571.999959350586 z" fill="#e6e6e6" id="svg_10"/><path d="M171.79906067871093,147.99995935058593 h171.834 L333.1252306787109,16.659669350585943 A18.19785,18.19785 0 0 0 315.07934067871093,-0.00004064941407477818 H200.35277067871095 a18.19786,18.19786 0 0 0 -18.0459,16.65967 z" fill="#fb690a" id="svg_11" class="" fill-opacity="1"/><path d="M411.05508067871097,378.5197093505859 h0 a12.36991,12.36991 0 0 0 -14.25813,10.33891 l-4.83778,31.74861 l16.46027,4.36571 l12.0607,-29.58071 A12.3699,12.3699 0 0 0 411.05508067871097,378.5197093505859 z" fill="#a0616a" id="svg_12"/><path d="M410.7473406787109,420.547959350586 c9.13486,36.3022 5.20345,69.506 -28.81235,95.5764 c-40.79944,-11.24669 -67.9348,-38.38169 -84.491,-77.81795 a19.68394,19.68394 0 0 1 11.35278,-26.09236 h0 a19.67385,19.67385 0 0 1 21.65853,5.5824 l40.03145,46.20366 l18.7797,-46.589 z" fill="#fb690a" id="svg_13" class="" fill-opacity="1"/><path d="M619.788020678711,611.006889350586 c-37.2533,-1.97882 -60.39536,-14.77032 -66,-41 l6,-11 L628.4825706787109,590.301069350586 a9.60873,9.60873 0 0 1 -0.6755900000000001,17.76554 z" fill="#e6e6e6" id="svg_14"/><path d="M591.002720678711,611.2695193505859 c-19.35606,-0.58621 -37.97042,-0.404 -55.60848,0.78963 a11.78112,11.78112 0 0 1 -12.54729,-10.815620000000001 l-1.05893,-13.23664 l-15,-24 l13,-13 c21.847,21.75885 45.80661,40.03546 74.26312,50.89948 A5.13183,5.13183 0 0 1 591.002720678711,611.2695193505859 z" fill="#e6e6e6" id="svg_15"/><path d="M485.78802067871095,517.006889350586 c-24.71649,44.22607 -49.02521,74.04016 -81,90 c-39.33911,12.98389 -68.09036,-4.21814 -90.5,-39.5 l65,-43 l9.5,9.5 l86.09793,-65.51825 a10.99335,10.99335 0 0 1 15.46383,0.34379000000000004 l73.43824,90.17446 l-9,15 z" fill="#2f2e41" id="svg_16"/><polygon points="507.788 569.007 473.788 517.007 481.788 502.007 526.788 549.007 507.788 569.007" fill="#2f2e41" id="svg_17"/><circle cx="311.78802490234375" cy="369.00689697265625" r="34" fill="#a0616a" id="svg_18"/><path d="M320.78802067871095,432.006889350586 l-38,-13 a47.19464,47.19464 0 0 0 7,-30 h31 C319.02508067871094,404.264639350586 318.76083067871093,418.736499350586 320.78802067871095,432.006889350586 z" fill="#a0616a" id="svg_19"/><path d="M401.78802067871095,523.006889350586 c-5.697,2.339 -6.11334,9.92273 -11.5,12.5 c-26.03951,12.45872 -53.589,22.56787 -72.5,40.5 c-44.193,-30.01013 -85.15469,-123.2175 -32,-164 c18.1438,10.6171 34.35086,18.2149 34,0 z" fill="#fb690a" id="svg_20" class="" fill-opacity="1"/><path d="M378.78802067871095,483.006889350586 l-18.5,-6.5 l-36.5,28.5 l-16.362,-58.90314 c-1.13483,-4.08539 -2.97351,-2.01458 -5.6138900000000005,0.82325 a19.66444,19.66444 0 0 0 -33.0025,13.55651 c-1.94635,42.72632 10.93823,78.8736 42.97839,106.52338 c41.90735,-8.9729 59.69214,-37.28638 67,-74 l-1.9809999999999999,-1.32068 Q377.9019706787109,487.4303793505859 378.78802067871095,483.006889350586 z" opacity="0.2" id="svg_21"/><path d="M316.36306067871095,324.2807393505859 c11.21515,2.56229 23.97993,6.1927900000000005 24.695710000000002,9.56721 c11.53674,2.90712 20.24455,9.87066 22.02258,20.48674 a6.35789,6.35789 0 0 1 -6.37842,7.37318 c-6.274,-0.08081 -15.69249,-0.6817100000000001 -21.91184,-3.27933 c-18.0668,11.64106 -21.09937,41.91836 -13.20939,62.52755 l-12.41583,-1.13807 l-12.84495,-37.60217 L293.04004067871097,418.3399593505859 l-28.33278,-3.74615 l3.6493900000000004,-46.06468 a68.6313,68.6313 0 0 1 10.778,-30.433 a25.91975,25.91975 0 0 1 2.02788,-2.6272200000000003 A36.01052,36.01052 0 0 1 316.36306067871095,324.2807393505859 z" fill="#2f2e41" id="svg_22"/><polygon points="380.285 438.428 411.402 475.011 458.078 419.925 426.54 381.659 380.285 438.428" fill="#3f3d56" id="svg_23"/><path d="M450.0882006787109,421.186739350586 L413.0838706787109,390.91045935058594 c2.10253,-5.046 12.19462,-3.364 12.19462,-3.364 l28.96639,29.36594 a15.85058,15.85058 0 0 1 2.57139,3.43337 h0 z" fill="#f2f2f2" id="svg_24"/><path d="M451.770220678711,419.08422935058593 L409.719830678711,386.28495935058595 l-46.67593,70.64465 L406.9865706787109,486.5750993505859 c4.20506,1.6820000000000002 8.41008,-1.26151 8.41008,-1.26151 L458.2880306787109,419.7149593505859 z" fill="#3f3d56" id="svg_25" class=""/><rect x="225.26934814453125" y="1095.59765625" width="0.6814799904823303" height="33.14262008666992" transform="rotate(-54.29970169067383 225.61009216308616,1112.1689453125) " fill="#fb690a" id="svg_26" class="" fill-opacity="1"/><rect x="159.0281982421875" y="1202.503662109375" width="64.02864837646484" height="0.6815199851989746" transform="rotate(-56.518680572509766 -392.33984374999983,608.9270629882814) " fill="#fb690a" id="svg_27" class="" fill-opacity="1"/><rect x="118.49383544921875" y="1140.1094970703125" width="0.681689977645874" height="35.49187088012695" transform="rotate(-53.655941009521484 118.83467864990224,1157.85546875) " fill="#fb690a" id="svg_28" class="" fill-opacity="1" stroke-opacity="1" stroke="#b24c0c"/><rect x="129.72457885742188" y="1118.769287109375" width="64.04080200195312" height="0.6812899708747864" transform="rotate(-55.16205978393555 161.7449798583984,1119.1099853515625) " fill="#fb690a" id="svg_29" class="" fill-opacity="1"/><rect x="227.89083862304688" y="996.1748046875" width="0.4202600121498108" height="45.163848876953125" transform="rotate(-47.45515823364258 -368.07949829101585,472.27706909179676) " fill="#b3b3b3" id="svg_30"/><rect x="226.42715454101562" y="1010.056884765625" width="0.42069000005722046" height="46.388648986816406" transform="rotate(-48.56153106689453 -367.5248107910155,486.425750732422) " fill="#b3b3b3" id="svg_31"/><rect x="226.82992553710938" y="1031.76953125" width="0.42072999477386475" height="46.99748992919922" transform="rotate(-50.18727111816406 -365.6134948730468,508.1316223144532) " fill="#b3b3b3" id="svg_32"/><path d="M397.0814906787109,449.167559350586 h0 a12.3699,12.3699 0 0 0 -17.31358,3.22913 l-17.97987,26.61021 l13,11 l23.57629,-21.55546 A12.36992,12.36992 0 0 0 397.0814906787109,449.167559350586 z" fill="#a0616a" id="svg_33"/><path d="M378.78802067871095,487.006889350586 c-7.30789,36.71362 -25.09265,65.0271 -67,74 c-32.04018,-27.64977 -44.92473,-63.797 -42.97837,-106.52334 A19.68394,19.68394 0 0 1 290.25107067871096,435.776259350586 h0 a19.67386,19.67386 0 0 1 17.17493,14.32748 l16.362,58.90315 l36.9373,-34.0418 z" fill="#fb690a" id="svg_34" class="" fill-opacity="1"/><polygon points="882.556 612.148 0 612.148 0 609.966 882.951 609.966 882.556 612.148" fill="#3f3d56" id="svg_35"/><path d="M461.28802067871095,91.50688935058594 a2.002,2.002 0 0 0 -2,2 v156 a2.002,2.002 0 0 0 2,2 h130 a2.00229,2.00229 0 0 0 2,-2 v-156 a2.00229,2.00229 0 0 0 -2,-2 z" fill="#e6e6e6" id="svg_36"/><path d="M474.78802067871095,236.00688935058594 h103 v-129 h-103 z" fill="#fff" id="svg_37"/><path d="M677.7208506787109,132.50688935058594 a1.19539,1.19539 0 0 0 -1.194,1.194 V211.31285935058594 a1.19539,1.19539 0 0 0 1.194,1.194 h93.13433 a1.1954,1.1954 0 0 0 1.194,-1.194 V133.70095935058595 a1.1954,1.1954 0 0 0 -1.194,-1.194 z" fill="#e6e6e6" id="svg_38"/><path d="M685.7805706787109,141.76061935058596 V203.25315935058592 h77.01492 V141.76061935058596 z" fill="#fff" id="svg_39"/><path d="M544.474570678711,102.50688935058594 h-36.373 a4.98866,4.98866 0 0 1 -4.33008,-7.5 l18.18652,-31.5 c0.014650000000000002,-0.025880000000000004 0.030270000000000005,-0.05176000000000001 0.04541000000000001,-0.07764000000000001 a4.94072,4.94072 0 0 1 3.78662,-2.3984300000000003 l0.026370000000000008,-0.002450000000000001 c0.15527000000000002,-0.01416 0.31300000000000006,-0.021480000000000006 0.47168000000000004,-0.021480000000000006 a4.949,4.949 0 0 1 4.33008,2.5 l18.18652,31.5 a5.00025,5.00025 0 0 1 -4.33008,7.5 zM507.0975706787109,97.50200935058595 a1.02812,1.02812 0 0 0 0.13769,0.50488 a0.983,0.983 0 0 0 0.8662200000000001,0.5 h36.373 a0.98225,0.98225 0 0 0 0.86621,-0.5 a1.02749,1.02749 0 0 0 0.13770000000000002,-0.50439 a0.985,0.985 0 0 0 -0.13770000000000002,-0.49512000000000006 l-18.18652,-31.50049 a1.00032,1.00032 0 0 0 -1.73242,0 l-18.18653,31.5 A0.9813299999999999,0.9813299999999999 0 0 0 507.0975706787109,97.50200935058595 z" fill="#e6e6e6" id="svg_40"/><circle cx="526.2880249023438" cy="67.50688934326172" r="3" fill="#e6e6e6" id="svg_41"/><path d="M734.148070678711,135.00688935058594 H714.427740678711 a2.7047,2.7047 0 0 1 -2.34763,-4.06626 l9.86016,-17.07832 l0.024620000000000003,-0.04209000000000001 a2.67875,2.67875 0 0 1 2.053,-1.30036 l0.014300000000000002,-0.0013200000000000004 c0.08418000000000002,-0.007680000000000002 0.16969000000000004,-0.011650000000000002 0.25572999999999996,-0.011650000000000002 a2.68319,2.68319 0 0 1 2.34763,1.35542 l9.86016,17.07832 a2.7110000000000003,2.7110000000000003 0 0 1 -2.34763,4.06626 zm-20.26461,-2.71349 a0.55736,0.55736 0 0 0 0.07465000000000001,0.27373 a0.5329400000000001,0.5329400000000001 0 0 0 0.46963,0.27109 H734.148070678711 a0.53255,0.53255 0 0 0 0.46963,-0.27109 a0.5570700000000001,0.5570700000000001 0 0 0 0.07466000000000002,-0.27347000000000005 a0.534,0.534 0 0 0 -0.07466000000000002,-0.26843 L724.757570678711,114.94664935058591 a0.54234,0.54234 0 0 0 -0.93927,0 L713.9581106787109,132.02495935058596 A0.532,0.532 0 0 0 713.8834606787109,132.29339935058596 z" fill="#e6e6e6" id="svg_42"/><circle cx="724.2879028320312" cy="116.03099060058594" r="1.6265100240707397" fill="#e6e6e6" id="svg_43"/><path d="M475.966190678711,186.88785935058593 a26.490380000000002,26.490380000000002 0 0 1 15.26208,-14.32731 a26.1812,26.1812 0 0 1 21.81176,1.35712 c7.80387,4.1417 14.0425,10.65305 21.96763,14.61673 a56.17868,56.17868 0 0 0 24.78608,5.839 a55.4781,55.4781 0 0 0 27.7934,-7.2142 a1.50112,1.50112 0 0 0 -1.51416,-2.59042 a53.34339,53.34339 0 0 1 -50.43027,0.92525 c-7.9510000000000005,-4.1690000000000005 -14.25106,-10.90053 -22.35074,-14.80678 a28.87992,28.87992 0 0 0 -22.23054,-1.24775 a29.84552,29.84552 0 0 0 -17.98808,16.65087 c-0.7280000000000001,1.787 2.1729,2.56474 2.89284,0.79752 z" fill="#e6e6e6" id="svg_44"/><path d="M473.595960678711,214.93051935058594 a114.2042,114.2042 0 0 1 50.54024,0.17516 c14.76636,3.42442 30.00938,9.585 45.23381,4.99041 c6.80178,-2.05269 13.03535,-6.15841 16.52959,-12.4769 c0.935,-1.6908200000000002 -1.6548800000000001,-3.20586 -2.59042,-1.51416 c-6.5792,11.89691 -21.99243,13.9042 -34.16617,11.95216 c-8.13433,-1.3043200000000001 -15.97376,-3.91967 -23.9804,-5.79125 a116.87741,116.87741 0 0 0 -52.36417,-0.22826000000000005 c-1.8834400000000002,0.42053 -1.08636,3.31347 0.79752,2.89284 z" fill="#e6e6e6" id="svg_45"/><path d="M472.5148506787109,147.87195935058594 a118.62787,118.62787 0 0 1 48.04227,1.70916 c14.69483,3.6004 29.05874,11.82591 44.597,10.40532 c7.1936,-0.6576800000000002 14.31559,-3.30335 19.20257,-8.80668 c1.2781,-1.4392800000000001 -0.8362,-3.56851 -2.12132,-2.12132 c-4.21578,4.74747 -10.28784,7.208 -16.51871,7.87279 c-7.18164,0.7661900000000001 -14.23808,-0.7217600000000001 -21.0736,-2.83584 c-7.56638,-2.34012 -14.91657,-5.3046 -22.60926,-7.23882 a121.4994,121.4994 0 0 0 -50.31646,-1.87744 c-1.8991900000000002,0.3243000000000001 -1.09393,3.21582 0.7975099999999999,2.89283 z" fill="#e6e6e6" id="svg_46"/><path d="M699.1920406787109,140.74748935058597 a52.29994,52.29994 0 0 1 13.72209,25.58689 a51.6547,51.6547 0 0 1 -11.16774,43.86118 c-1.243,1.46343 0.8691700000000001,3.59557 2.12132,2.12132 a55.41416,55.41416 0 0 0 12.69854,-28.67315 a54.6929,54.6929 0 0 0 -15.25289,-45.01756 c-1.3539,-1.3808200000000002 -3.47467,0.74106 -2.12132,2.12132 z" fill="#e6e6e6" id="svg_47"/><path d="M744.2025706787109,134.34575935058592 c-9.19406,6.74316 -14.34111,17.62729 -15.06541,28.88508 c-0.7536100000000001,11.7135 3.71362,23.02594 10.90747,32.12048 a62.46258,62.46258 0 0 0 14.8484,13.40375 c1.62026,1.06015 3.12514,-1.53634 1.5141499999999999,-2.59041 c-9.18459,-6.00953 -17.04368,-14.54628 -21.21739,-24.7909 a40.11715,40.11715 0 0 1 -0.08682000000000002,-30.737940000000002 a32.84189,32.84189 0 0 1 10.61376,-13.69965 c1.5408300000000001,-1.13008 0.04586000000000001,-3.73456 -1.51416,-2.59041 z" fill="#e6e6e6" id="svg_48"/><circle cx="533.2880249023438" cy="150.50689697265625" r="14" fill="#e6e6e6" id="svg_49"/></g></svg>
