<svg xmlns="http://www.w3.org/2000/svg" xmlns:xlink="http://www.w3.org/1999/xlink" data-name="Layer 1" width="1082" height="725" viewBox="0 0 1082 725"><rect id="backgroundrect" width="100%" height="100%" x="0" y="0" fill="none" stroke="none"/><defs><linearGradient id="b7709055-0dd4-48d6-ac10-5a758f15d1a1" x1="0.5000421920522654" y1="1.0001019698900666" x2="0.5000421920522654" y2="0.0001386598588147424"><stop offset="0" stop-color="gray" stop-opacity="0.25"/><stop offset="0.54" stop-color="gray" stop-opacity="0.12"/><stop offset="1" stop-color="gray" stop-opacity="0.1"/></linearGradient><linearGradient id="f59ba046-7ebe-407e-be3d-c62856fc1078" x1="712" y1="788.5399780273438" x2="712" y2="248.5" xlink:href="#b7709055-0dd4-48d6-ac10-5a758f15d1a1"/></defs><title>true friends</title><g class="currentLayer" style=""><title>Layer 1</title><g opacity="0.2" id="svg_1" class="" fill-opacity="1" fill="#fb690a"><path d="M374.55,666.42 a42.59,42.59 0 0 0 2.16,6.52 q20.85,-8.19 42.16,-15.7 c-0.12000000000000001,-0.5900000000000001 -0.24000000000000002,-1.21 -0.39000000000000007,-1.82 a36.92,36.92 0 0 0 -8.86,-16.84 c-5.68,-6 -13,-8.9 -20.12,-7.13 s-12.29,7.83 -14.65,15.8 A37.39,37.39 0 0 0 374.55,666.42 z" fill="#fb690a" id="svg_2"/><ellipse cx="243.3800048828125" cy="739.4799728393555" rx="22.639999389648438" ry="30.290000915527344" transform="rotate(-12.59000015258789 -203.55999755859384,27.069999694824272) " fill="#fb690a" id="svg_3"/><ellipse cx="242.45999145507812" cy="700.7300243377686" rx="22.639999389648438" ry="30.290000915527344" transform="rotate(-12.59000015258789 -195.91000366210938,24.329999923706154) " fill="#fb690a" id="svg_4"/><ellipse cx="241.52000427246094" cy="662.0000247955322" rx="22.639999389648438" ry="30.290000915527344" transform="rotate(-12.59000015258789 -188.27000427246097,21.60000038146966) " fill="#fb690a" id="svg_5"/><ellipse cx="240.57998657226562" cy="623.2600250244141" rx="22.639999389648438" ry="30.290000915527344" transform="rotate(-12.59000015258789 -180.63000488281247,18.86000061035152) " fill="#fb690a" id="svg_6"/><path d="M385.74,249.94 A111.58,111.58 0 0 0 391,235.56 l-60,4.72 l62.54,-15.13 a113.31,113.31 0 0 0 -1.11,-47.48 a112,112 0 0 0 -17.23,-38.43 L302,204.69 l63.37,-77.47 c-25.87,-27.62 -65,-40.76 -103.89,-31 c-58.11,14.53 -93.72,74.57 -79.54,134.1 a110.74,110.74 0 0 0 38.39,61 A113.13,113.13 0 0 0 213,313.96 l84.42,21.14 L211,327.61 a113.46,113.46 0 0 0 2.68,36 a110.84,110.84 0 0 0 38.4,61 a112.85,112.85 0 0 0 -6.640000000000001,72.27 c14.18,59.53 72.78,96 130.89,81.48 s93.72,-74.56 79.54,-134.09 a110.84,110.84 0 0 0 -38.4,-61 a112.85,112.85 0 0 0 6.640000000000001,-72.27 A110.77,110.77 0 0 0 385.74,249.94 z" fill="#fb690a" id="svg_7"/><path d="M213.7,363.57 a110.84,110.84 0 0 0 38.4,61 a112.85,112.85 0 0 0 -6.640000000000001,72.27 c14.18,59.53 72.78,96 130.89,81.48 s93.72,-74.56 79.54,-134.09 a110.84,110.84 0 0 0 -38.4,-61 C427.23,361.37 210.82,351.5 213.7,363.57 z" opacity="0.1" id="svg_8" fill="#fb690a"/></g><g opacity="0.2" id="svg_9" class="" fill-opacity="1" fill="#fb690a"><path d="M644.24,655.43 a46.72,46.72 0 0 0 -0.43000000000000005,7.86 q26.15,0.42000000000000004 52.5,1.7600000000000002 c0.12000000000000001,-0.6900000000000002 0.24000000000000002,-1.3900000000000001 0.3400000000000001,-2.1 a41.67,41.67 0 0 0 -2.45,-21.73 c-3.62,-8.82 -10.37,-15.13 -18.82,-16.35 s-16.69,2.94 -22.64,10.36 A41.74,41.74 0 0 0 644.24,655.43 z" fill="#fb690a" id="svg_10"/><ellipse cx="609.7599792480469" cy="1949.760009765625" rx="34.65999984741211" ry="26.479999542236328" transform="rotate(-81.81999969482422 -125.72000122070324,1245.010009765625) " fill="#fb690a" id="svg_11"/><ellipse cx="662.4600067138672" cy="1877.8300170898438" rx="34.65999984741211" ry="26.479999542236328" transform="rotate(-81.81999969482422 -79.05000305175794,1215.010009765625) " fill="#fb690a" id="svg_12"/><ellipse cx="715.1500282287598" cy="1805.9000244140625" rx="34.65999984741211" ry="26.479999542236328" transform="rotate(-81.81999969482422 -32.38000106811513,1185.010009765625) " fill="#fb690a" id="svg_13"/><ellipse cx="767.8499975204468" cy="1733.97998046875" rx="34.65999984741211" ry="26.479999542236328" transform="rotate(-81.81999969482422 14.28999996185311,1155.010009765625) " fill="#fb690a" id="svg_14"/><path d="M833.9,218.62 a125.32,125.32 0 0 0 11.82,-13 L778.49,184.5 l74.39,11.25 a127.08,127.08 0 0 0 16.69,-99.12 L762.21,134.07 l101.88,-54.5 a126.83,126.83 0 1 0 -227.52,110.7 A127.08,127.08 0 0 0 619,211.10000000000002 l82.71,59.28 L611,224.7 A126.9,126.9 0 0 0 614.26,345.5 a126.82,126.82 0 1 0 197.33,28.36 A126.84,126.84 0 0 0 833.9,218.62 z" fill="#fb690a" id="svg_15"/><path d="M598.55,264.02 A126.31,126.31 0 0 0 614.26,345.5 a126.82,126.82 0 1 0 197.33,28.36 C831.49,354.91 600.58,249.93 598.55,264.02 z" opacity="0.1" id="svg_16" fill="#fb690a"/></g><ellipse cx="541" cy="694" rx="541" ry="31" fill="#fb690a" opacity="0.1" id="svg_17" class="" fill-opacity="1"/><ellipse cx="894.7000122070312" cy="676.6400146484375" rx="25.299999237060547" ry="4.869999885559082" fill="#fb690a" id="svg_18" class="" fill-opacity="1"/><ellipse cx="894.280029296875" cy="674.5800170898438" rx="2.950000047683716" ry="3.859999895095825" fill="#3f3d56" id="svg_19" class=""/><ellipse cx="894.280029296875" cy="669.8599853515625" rx="2.950000047683716" ry="3.859999895095825" fill="#3f3d56" id="svg_20"/><ellipse cx="894.280029296875" cy="665.1500244140625" rx="2.950000047683716" ry="3.859999895095825" fill="#3f3d56" id="svg_21"/><ellipse cx="894.280029296875" cy="660.4400024414062" rx="2.950000047683716" ry="3.859999895095825" fill="#3f3d56" id="svg_22"/><ellipse cx="894.280029296875" cy="655.719970703125" rx="2.950000047683716" ry="3.859999895095825" fill="#3f3d56" id="svg_23"/><ellipse cx="894.280029296875" cy="651.010009765625" rx="2.950000047683716" ry="3.859999895095825" fill="#3f3d56" id="svg_24"/><ellipse cx="894.280029296875" cy="646.2999877929688" rx="2.950000047683716" ry="3.859999895095825" fill="#3f3d56" id="svg_25"/><path d="M905.3,614.05 a13.58,13.58 0 0 0 1.1,-1.62 l-7.74,-1.27 l8.37,0.06000000000000001 a14.16,14.16 0 0 0 0.27,-11.18 l-11.23,5.83 l10.36,-7.62 a14.12,14.12 0 1 0 -23.31,15.8 a14.43,14.43 0 0 0 -1.61,2.5700000000000003 l10,5.22 l-10.71,-3.6 A14.09,14.09 0 0 0 883.12,631.5 a14.11,14.11 0 1 0 22.18,0 a14.1,14.1 0 0 0 0,-17.44 z" fill="#fb690a" id="svg_26" class="" fill-opacity="1"/><path d="M880.1,622.77 a14.05,14.05 0 0 0 3,8.72 a14.11,14.11 0 1 0 22.18,0 C907.19,629.09 880.1,621.19 880.1,622.77 z" opacity="0.1" id="svg_27" class="" fill-opacity="1" fill="#4a90d6"/><ellipse cx="313.70001220703125" cy="714.1799926757812" rx="33.79999923706055" ry="6.5" fill="#fb690a" id="svg_28" class="" fill-opacity="1"/><ellipse cx="313.1300048828125" cy="711.4199829101562" rx="3.940000057220459" ry="5.150000095367432" fill="#3f3d56" id="svg_29"/><ellipse cx="313.1300048828125" cy="705.1199951171875" rx="3.940000057220459" ry="5.150000095367432" fill="#3f3d56" id="svg_30"/><ellipse cx="313.1300048828125" cy="698.8200073242188" rx="3.940000057220459" ry="5.150000095367432" fill="#3f3d56" id="svg_31"/><ellipse cx="313.1300048828125" cy="692.530029296875" rx="3.940000057220459" ry="5.150000095367432" fill="#3f3d56" id="svg_32"/><ellipse cx="313.1300048828125" cy="686.22998046875" rx="3.940000057220459" ry="5.150000095367432" fill="#3f3d56" id="svg_33"/><ellipse cx="313.1300048828125" cy="679.9299926757812" rx="3.940000057220459" ry="5.150000095367432" fill="#3f3d56" id="svg_34"/><ellipse cx="313.1300048828125" cy="673.6400146484375" rx="3.940000057220459" ry="5.150000095367432" fill="#3f3d56" id="svg_35"/><path d="M327.87,630.55 a19.94,19.94 0 0 0 1.46,-2.16 L319,626.69 l11.18,0.09000000000000002 a18.84,18.84 0 0 0 0.36000000000000004,-14.94 l-15,7.78 L329.37,609.5 a18.85,18.85 0 1 0 -31.14,21.1 a19.29,19.29 0 0 0 -2.15,3.44 l13.43,7 l-14.32,-4.8 a18.89,18.89 0 0 0 3,17.7 a18.85,18.85 0 1 0 29.64,0 a18.87,18.87 0 0 0 0,-23.31 z" fill="#fb690a" id="svg_36" class="" fill-opacity="1"/><path d="M294.2,642.2 a18.83,18.83 0 0 0 4,11.66 a18.85,18.85 0 1 0 29.64,0 C330.39,650.65 294.2,640.09 294.2,642.2 z" opacity="0.1" id="svg_37" class="" fill-opacity="1" fill="#4a90d6"/><path d="M491.65999999999997,427.92999999999995 c-2.55,-13.34 -5.4,-26.71 -5.87,-40.28 c-0.28,-8 0.28,-16.14 -0.7500000000000001,-24.12 c-0.51,-3.92 -1.4,-7.77 -2.2800000000000002,-11.620000000000001 L479.22,336.5 a25.73,25.73 0 0 0 -0.3400000000000001,-8.870000000000001 a31,31 0 0 0 -1.4100000000000001,-4.51 a70,70 0 0 0 8.11,-15 c0.9400000000000001,-2.4 1.75,-4.95 1.3800000000000001,-7.49 c-0.7200000000000001,-4.87 -5.44,-8.08 -9.83,-10.48 c-2.66,-1.45 -5.46,-2.85 -8.5,-3.08 a13.81,13.81 0 0 0 -11.2,5 a24.33,24.33 0 0 1 0.7200000000000001,-11.83 c-2.6100000000000003,-1.17 -5.24,-2.27 -7.890000000000001,-3.34 a72.44,72.44 0 0 1 -0.4,-10.41 c0.06000000000000001,-4.17 0.13,-8.38 0.37000000000000005,-12.56 a37.1,37.1 0 0 0 24.38,-34.63 c0,-0.43000000000000005 0,-0.8500000000000001 0,-1.27 a30.08,30.08 0 0 0 2.58,-23.08 c-2.93,-10 -10.59,-18.24 -19.82,-23.33 s-19.93,-7.24 -30.52,-7.62 a43.91,43.91 0 0 0 -10.620000000000001,0.6700000000000002 a51.24,51.24 0 0 0 -10.82,4 c-5.29,2.44 -10.620000000000001,5.11 -14.58,9.32 c-6.87,7.33 -8.41,18.1 -7.66,28 c1,13 5.34,25.58 10.36,37.68 c1.6700000000000002,4 3.45,8.06 6.2,11.47 c2.13,2.63 5.83,2.79 8.77,0.9500000000000001 a96,96 0 0 0 -0.22000000000000003,9.6 c-5.43,-0.19000000000000003 -10.72,0.7000000000000001 -15.08,3.7600000000000002 c-2,1.4300000000000002 -3.9,3.68 -3.46,6.1 a5.67,5.67 0 0 1 5.46,4.85 c0.22000000000000003,2.13 -0.8500000000000001,4.16 -1.8900000000000001,6 c-0.45,0.8200000000000001 -0.9,1.6500000000000001 -1.36,2.47 c-4.3,4.6 -8.71,10.36 -9.1,16.07 a20.07,20.07 0 0 0 -2.09,0.31000000000000005 c-3.9,0.7200000000000001 -7.78,2.05 -11.61,3.05 l-27.72,7.3 L334.58,317.5 l-11,2.9 c-7,1.84 -14.13,3.73 -20.34,7.43 s-11.48,9.51 -12.73,16.51 c-0.6200000000000001,3.48 -0.24000000000000002,7.1 -1,10.55 c0,0.16000000000000003 -0.06000000000000001,0.31000000000000005 -0.1,0.46 a33.75,33.75 0 0 1 -2.55,6.3100000000000005 c-6.21,13.09 -10.63,27.36 -9.8,41.77 c0.51,8.85 3,17.48 5.42,26 Q286.29,442.5 290,455.57000000000005 a137.24,137.24 0 0 0 6.19,18.3 a70.5,70.5 0 0 0 18.53,24.77 a32.72,32.72 0 0 0 7.4,5 a26.91,26.91 0 0 0 13,2.11 c1.2,-0.08000000000000002 2.38,-0.21000000000000002 3.55,-0.4 c8.59,-1.36 16.6,-5.5 23.95,-10.16 q4.61,-2.92 9,-6.15 a57.09,57.09 0 0 0 2,9.92 c0.6500000000000001,2.23 1.45,4.52 1.19,6.83 c-0.36000000000000004,3.22 -2.7,5.86 -3.91,8.88 c-2.5700000000000003,6.38 0.07,13.49 0.5,20.33 c0.41000000000000003,6.41 -1.15,12.77 -2.4,19.08 a199.21,199.21 0 0 0 -3.6900000000000004,31.92 a96.55,96.55 0 0 1 -0.8,12.14 c-0.93,5.68 -3.11,11.16 -3.49,16.9 c-0.5800000000000001,8.94 3.2800000000000002,17.69 2.93,26.64 c-0.41000000000000003,10.51 -6.58,20.72 -4.43,31 c0.27,1.29 1,2.7800000000000002 2.18,3.11 l-0.5800000000000001,0.53 c-1.77,1.6400000000000001 -3.49,4.67 -1.48,6 a3.93,3.93 0 0 0 1.51,0.52 c3.11,0.6500000000000001 6.24,1.24 9.37,1.79 a29,29 0 0 0 1.08,8.56 c0.5700000000000001,0.41000000000000003 1.15,0.78 1.73,1.13 c-0.44000000000000006,1.18 -0.41000000000000003,2.3200000000000003 0.6300000000000001,3 a3.93,3.93 0 0 0 1.51,0.52 a326.47,326.47 0 0 0 78.35,6.5 c4.7,-0.18000000000000002 9.61,-0.52 13.620000000000001,-2.92 s6.72,-7.51 4.8100000000000005,-11.72 c-1.6900000000000002,-3.72 -6.11,-5.33 -10.08,-6.57 l-4.66,-1.44 a8,8 0 0 0 0.42000000000000004,-7 c-1.6900000000000002,-3.72 -6.11,-5.33 -10.08,-6.57 l-10.73,-3.33 a10.53,10.53 0 0 1 -3.9,-1.83 A21.18,21.18 0 0 1 431.1,660.5 a12,12 0 0 0 -5.85,-3.67 a45.52,45.52 0 0 1 0.15000000000000002,-6.82 l3,-36.21 c0.6700000000000002,-8.2 1.33,-16.56 -0.5800000000000001,-24.57 c-0.77,-3.25 -2,-6.58 -1.25,-9.84 c1.17,-5.32 6.77,-8.28 10.59,-12.23 c5.76,-6 7.55,-14.53 8.870000000000001,-22.65 a457.27,457.27 0 0 0 5.12,-101.41 a162,162 0 0 1 36.82,-5.92 c2.12,-0.09000000000000002 3.16,-1.09 3.8200000000000003,-3.07 S492.04999999999995,429.98 491.65999999999997,427.92999999999995 zm-59.85,1.77 c0.07,-0.35000000000000003 0.15000000000000002,-0.7000000000000001 0.21000000000000002,-1.05 l0.8300000000000001,1.06 z" fill="url(#b7709055-0dd4-48d6-ac10-5a758f15d1a1)" id="svg_38"/><path d="M412.31,246.14999999999998 c-0.26,3.48 -1.49,6.82 -1.94,10.29 c-0.51,3.8200000000000003 -0.06000000000000001,7.71 -0.31000000000000005,11.56 s-1.36,7.9 -4.29,10.41 a202.14,202.14 0 0 1 49.92,10.8 c-4.87,-6 -5,-14.38 -4.88,-22.08 c0.16000000000000003,-11.39 0.36000000000000004,-23 4.08,-33.75 a82.14,82.14 0 0 0 -33.74,-0.44000000000000006 c-2.42,0.48000000000000004 -9.75,0.18000000000000002 -10.84,2.44 C409.52,237.04000000000002 412.49,243.63 412.31,246.14999999999998 z" fill="#a1616a" id="svg_39"/><path d="M412.31,246.14999999999998 c-0.26,3.48 -1.49,6.82 -1.94,10.29 c-0.51,3.8200000000000003 -0.06000000000000001,7.71 -0.31000000000000005,11.56 s-1.36,7.9 -4.29,10.41 a202.14,202.14 0 0 1 49.92,10.8 c-4.87,-6 -5,-14.38 -4.88,-22.08 c0.16000000000000003,-11.39 0.36000000000000004,-23 4.08,-33.75 a82.14,82.14 0 0 0 -33.74,-0.44000000000000006 c-2.42,0.48000000000000004 -9.75,0.18000000000000002 -10.84,2.44 C409.52,237.04000000000002 412.49,243.63 412.31,246.14999999999998 z" opacity="0.1" id="svg_40"/><path d="M432.47,660.55 a20.77,20.77 0 0 0 2,2.51 a10.06,10.06 0 0 0 3.81,1.83 l10.48,3.33 c3.89,1.24 8.21,2.84 9.86,6.5600000000000005 c1.86,4.2 -0.79,9.31 -4.71,11.7 s-8.72,2.74 -13.31,2.92 a313.13,313.13 0 0 1 -76.59,-6.49 a4,4 0 0 1 -1.47,-0.52 c-2,-1.35 -0.29000000000000004,-4.37 1.44,-6 c6.75,-6.4 14.09,-13.11 23.28,-14.59 c4.83,-0.79 9.68,-0.47000000000000003 14.48,-1.62 c3.45,-0.8300000000000001 6.71,-2.26 10.15,-3.11 C418.3,655.5 427.89,654.94 432.47,660.55 z" fill="#46455b" id="svg_41"/><path d="M432.47,660.55 a20.77,20.77 0 0 0 2,2.51 a10.06,10.06 0 0 0 3.81,1.83 l10.48,3.33 c3.89,1.24 8.21,2.84 9.86,6.5600000000000005 c1.86,4.2 -0.79,9.31 -4.71,11.7 s-8.72,2.74 -13.31,2.92 a313.13,313.13 0 0 1 -76.59,-6.49 a4,4 0 0 1 -1.47,-0.52 c-2,-1.35 -0.29000000000000004,-4.37 1.44,-6 c6.75,-6.4 14.09,-13.11 23.28,-14.59 c4.83,-0.79 9.68,-0.47000000000000003 14.48,-1.62 c3.45,-0.8300000000000001 6.71,-2.26 10.15,-3.11 C418.3,655.5 427.89,654.94 432.47,660.55 z" opacity="0.1" id="svg_42"/><path d="M379.85,434.37 a63.56,63.56 0 0 0 -0.9,42.51 c-3.49,-0.38000000000000006 -5,4.34 -4.91,7.86 a58.23,58.23 0 0 0 2.21,14.48 c0.6400000000000001,2.24 1.42,4.52 1.17,6.82 c-0.36000000000000004,3.22 -2.64,5.86 -3.83,8.870000000000001 c-2.5,6.37 0.07,13.47 0.5,20.3 c0.4,6.41 -1.13,12.76 -2.36,19.06 a203.26,203.26 0 0 0 -3.6,31.87 a96.14,96.14 0 0 1 -0.79,12.13 c-0.9,5.68 -3,11.15 -3.4,16.88 c-0.5700000000000001,8.92 3.2,17.67 2.8600000000000003,26.61 c-0.4,10.49 -6.44,20.69 -4.33,31 c0.30000000000000004,1.45 1.11,3.16 2.6,3.18 c15.08,0.19000000000000003 29.17,-4 44.09,-1.81 c1.52,-34.52 3,-69.2 9.8,-103.09 c6,-30.17 16.17,-60 15.22,-90.76 c-0.55,-17.59 -4.73,-34.84 -7.27,-52.26 A68.75,68.75 0 0 0 379.85,434.37 z" fill="#bbbdc8" id="svg_43"/><path d="M379.85,434.37 a63.56,63.56 0 0 0 -0.9,42.51 c-3.49,-0.38000000000000006 -5,4.34 -4.91,7.86 a58.23,58.23 0 0 0 2.21,14.48 c0.6400000000000001,2.24 1.42,4.52 1.17,6.82 c-0.36000000000000004,3.22 -2.64,5.86 -3.83,8.870000000000001 c-2.5,6.37 0.07,13.47 0.5,20.3 c0.4,6.41 -1.13,12.76 -2.36,19.06 a203.26,203.26 0 0 0 -3.6,31.87 a96.14,96.14 0 0 1 -0.79,12.13 c-0.9,5.68 -3,11.15 -3.4,16.88 c-0.5700000000000001,8.92 3.2,17.67 2.8600000000000003,26.61 c-0.4,10.49 -6.44,20.69 -4.33,31 c0.30000000000000004,1.45 1.11,3.16 2.6,3.18 c15.08,0.19000000000000003 29.17,-4 44.09,-1.81 c1.52,-34.52 3,-69.2 9.8,-103.09 c6,-30.17 16.17,-60 15.22,-90.76 c-0.55,-17.59 -4.73,-34.84 -7.27,-52.26 A68.75,68.75 0 0 0 379.85,434.37 z" opacity="0.1" id="svg_44"/><path d="M446.47,675.55 a20.77,20.77 0 0 0 2,2.51 a10.06,10.06 0 0 0 3.81,1.83 l10.48,3.33 c3.89,1.24 8.21,2.84 9.86,6.5600000000000005 c1.86,4.2 -0.79,9.31 -4.71,11.7 s-8.72,2.74 -13.31,2.92 a313.13,313.13 0 0 1 -76.59,-6.49 a4,4 0 0 1 -1.47,-0.52 c-2,-1.35 -0.29000000000000004,-4.37 1.44,-6 c6.75,-6.4 14.09,-13.11 23.28,-14.59 c4.83,-0.79 9.68,-0.47000000000000003 14.48,-1.62 c3.45,-0.8300000000000001 6.71,-2.26 10.15,-3.11 C432.3,670.5 441.89,669.94 446.47,675.55 z" fill="#46455b" id="svg_45"/><path d="M385.05,435.36 c-3.8600000000000003,5 -5,11.6 -4.48,17.86 s2.63,12.27 4.7,18.2 c-2.75,2.5300000000000002 -2.18,6.890000000000001 -1.82,10.61 c1.31,13.82 -3.49,27.61 -2.79,41.47 c0.29000000000000004,5.83 1.56,11.58 1.86,17.41 c0.33000000000000007,6.37 -0.48000000000000004,12.74 -1.24,19.07 a1137.66,1137.66 0 0 0 -8,122.09 c0,3.7600000000000002 -0.06000000000000001,7.58 1,11.18 c7.27,5.35 16.4,6.07 25.2,4.07 s16.83,-6.46 24.72,-10.86 a76.33,76.33 0 0 0 12.24,-7.9 a6.53,6.53 0 0 0 2.46,-3.38 c0.8400000000000001,-4 -4.72,-5.8100000000000005 -7.91,-8.4 c-4.640000000000001,-3.77 -4.57,-10.75 -4.09,-16.71 l2.9,-36.16 c0.6600000000000001,-8.19 1.3,-16.54 -0.56,-24.54 c-0.7600000000000001,-3.24 -1.9300000000000002,-6.57 -1.23,-9.83 c1.1400000000000001,-5.3 6.62,-8.26 10.35,-12.21 c5.640000000000001,-6 7.38,-14.51 8.68,-22.61 A467.34,467.34 0 0 0 450.92,428.5 c-7.35,2.55 -16.06,1.1600000000000001 -23.81,1.7600000000000002 s-15.45,3.19 -23.3,3.4 C397.27,433.80999999999995 389.07,430.20000000000005 385.05,435.36 z" fill="#bbbdc8" id="svg_46"/><circle cx="438" cy="220" r="37" fill="#a1616a" id="svg_47"/><path d="M458.90999999999997,280.86 A199.13,199.13 0 0 0 422,268.12 c-8.94,-2.13 -19.15,-3.41 -26.62,1.94 c-2,1.4300000000000002 -3.81,3.68 -3.38,6.1 a5.5600000000000005,5.5600000000000005 0 0 1 5.33,4.84 c0.22000000000000003,2.12 -0.8200000000000001,4.15 -1.84,6 l-8.63,16 a62.53,62.53 0 0 0 -4.25,9 c-1.7400000000000002,5.08 -2.12,10.52 -2.49,15.88 l-1,14.52 c-0.6200000000000001,9.15 -1.25,18.34 -0.42000000000000004,27.47 c0.6200000000000001,6.890000000000001 2.06,13.81 1.08,20.66 c-0.79,5.51 -3.12,10.68 -4.43,16.1 c-2.46,10.2 -1.34,21.38 -6.11,30.74 a9.26,9.26 0 0 1 6.19,-0.56 c14.48,2.67 25.87,14.1 39.93,18.47 c3.55,-5.18 8.36,-9 12.33,-13.82 a26.72,26.72 0 0 0 5.67,-12.54 c3,4 5.55,7.12 7.34,11.76 a7.9,7.9 0 0 0 1.6,2.93 c1.8900000000000001,1.84 5,1.13 7.53,0.36000000000000004 A155.2,155.2 0 0 1 488,437.5 c2.08,-0.09000000000000002 3.09,-1.09 3.74,-3.07 s0.29000000000000004,-4.12 -0.1,-6.16 c-2.49,-13.33 -5.27,-26.68 -5.73,-40.23 c-0.28,-8 0.27,-16.11 -0.7400000000000001,-24.09 c-0.5,-3.91 -1.37,-7.76 -2.23,-11.6 l-7.14,-31.73 c-0.4,-1.77 -2.3,-2.93 -3.11,-4.5600000000000005 c-3.2800000000000002,-6.640000000000001 -9.55,-11.44 -12.79,-18.1 A23.73,23.73 0 0 1 458.90999999999997,280.86 z" fill="#46455b" id="svg_48"/><path d="M407,234.81 a2.45,2.45 0 0 1 0.35000000000000003,-1.48 a3.34,3.34 0 0 1 1.44,-0.8900000000000001 a7.59,7.59 0 0 0 4.23,-8.11 l3.5,-0.7300000000000001 l0.11000000000000001,-12.19 c5.2,-2.88 12.29,-0.7000000000000001 17.18,-4.09 c2.75,-1.92 4.16,-5.18 5.84,-8.08 s4.18,-5.82 7.52,-6.06 a21.42,21.42 0 0 0 1.15,18.13 a20.65,20.65 0 0 0 8.43,-7.88 l1.7400000000000002,10 a2.48,2.48 0 0 0 0.7400000000000001,1.6300000000000001 c0.91,0.6700000000000002 2.14,-0.17 2.94,-1 l4.53,-4.45 A62.36,62.36 0 0 1 470.59000000000003,224.5 c7.44,-7.22 9.75,-18.82 6.890000000000001,-28.78 s-10.35,-18.21 -19.37,-23.3 s-19.48,-7.23 -29.83,-7.61 a42.42,42.42 0 0 0 -10.38,0.6700000000000002 a49.28,49.28 0 0 0 -10.58,4 c-5.17,2.43 -10.39,5.1 -14.25,9.3 c-6.72,7.32 -8.23,18.08 -7.49,28 c1,13 5.22,25.55 10.13,37.63 c1.6300000000000001,4 3.37,8.05 6.06,11.46 c4.05,5.13 14,0.8700000000000001 12.73,-9.27 C413.62,239.36 407,242.14999999999998 407,234.81 z" fill="#3f3d56" id="svg_49"/><path d="M421,432.9 A156.9,156.9 0 0 1 365.55,495.5 c-7.19,4.65 -15,8.79 -23.41,10.15 c-1.15,0.19000000000000003 -2.3,0.32000000000000006 -3.47,0.4 A25.9,25.9 0 0 1 326,503.9 a32,32 0 0 1 -7.24,-5 a70.31,70.31 0 0 1 -18.11,-24.73 a139.25,139.25 0 0 1 -6.05,-18.28 q-3.68,-13.06 -7.34,-26.13 c-2.39,-8.52 -4.8,-17.14 -5.3,-26 c-0.81,-14.39 3.51,-28.64 9.58,-41.71 a34.4,34.4 0 0 0 2.49,-6.3 c0,-0.15000000000000002 0.07,-0.30000000000000004 0.1,-0.46 c0.7200000000000001,-3.45 0.35000000000000003,-7.06 1,-10.54 c1.22,-7 6.38,-12.8 12.44,-16.49 s13,-5.58 19.89,-7.42 l10.73,-2.89 l6.66,-1.79 l27.09,-7.29 c3.75,-1 7.54,-2.33 11.35,-3 c4.25,-0.8 4.22,-0.38000000000000006 4.55,3.7800000000000002 c0.6100000000000001,7.54 0.41000000000000003,14.95 2,22.42 c1.51,7.13 4.17,14 6.17,21 c5.05,17.67 5.890000000000001,36.27 9.870000000000001,54.22 c0.91,4.09 2.17,8.45 5.46,11 c3.77,3 10.12,3.74 11.12,8.44 C422.83,428.82000000000005 421.9,430.96000000000004 421,432.9 z" fill="#fb690a" id="svg_50" class="" fill-opacity="1"/><path d="M342.14,505.61 c-1.15,0.19000000000000003 -2.3,0.32000000000000006 -3.47,0.4 A25.9,25.9 0 0 1 326,503.9 a32,32 0 0 1 -7.24,-5 a70.31,70.31 0 0 1 -18.11,-24.73 a139.25,139.25 0 0 1 -6.05,-18.28 q-3.68,-13.06 -7.34,-26.13 c-2.39,-8.52 -4.8,-17.14 -5.3,-26 c-0.81,-14.39 3.51,-28.64 9.58,-41.71 a34.4,34.4 0 0 0 2.49,-6.3 c0,-0.15000000000000002 0.07,-0.30000000000000004 0.1,-0.46 c16.32,2.87 35.9,34.09 46,75 C347.57,460.88 347.89,489.04999999999995 342.14,505.61 z" opacity="0.1" id="svg_51"/><path d="M371.64,397.97 l-2.73,0.47000000000000003 c-2.81,-7.38 -5.61,-14.77 -8.9,-21.95 c-1.71,-3.75 -3.56,-7.45 -5,-11.32 c-5.4,-14.86 -4.48,-32.49 -14.49,-44.73 a15.31,15.31 0 0 0 -2.43,-2.46 l6.66,-1.79 a90.32,90.32 0 0 1 12.14,30.11 c1.08,5.22 1.6900000000000002,10.56 3.45,15.58 a107.71,107.71 0 0 0 5.13,11.14 C369.27,380.81 372.13,389.32 371.64,397.97 z" opacity="0.1" id="svg_52"/><path d="M398.22,285.3 c7.19,-6.16 17,-9.54 26.31,-8 c5.48,0.8900000000000001 10.57,3.36 15.48,6 c9.57,5.08 19,10.93 25.9,19.28 a77.29,77.29 0 0 1 10.22,17.2 a41.7,41.7 0 0 1 3,8.41 c2.44,11.3 -3.55,22.53 -9.32,32.55 L458.71000000000004,380 c-5.1,8.85 -10.24,17.76 -16.88,25.53 c-3.06,3.58 -6.42,6.890000000000001 -9.77,10.2 l-14.71,14.52 a2.2,2.2 0 0 1 -1,0.6700000000000002 a2.22,2.22 0 0 1 -1.73,-0.6900000000000002 l-4.86,-3.87 a82.67,82.67 0 0 0 12.42,-10.53 c6.36,-6.58 11.59,-14.15 16.79,-21.69 l16.18,-23.46 c4.73,-6.87 9.67,-14.43 9.14,-22.75 c-0.25,-4 -1.75,-7.76 -3.3200000000000003,-11.43 q-4.17,-9.79 -9.06,-19.27 c-3.66,-7.09 -7.66,-14.09 -12.93,-20.08 s-11.93,-11 -19.6,-13.17 a16.32,16.32 0 0 0 -7.1,-0.6800000000000002 c-5.26,0.8700000000000001 -9,5.39 -12.33,9.59 l-10.14,13 c-2.31,2.95 -4.43,6.37 -4.57,0.77 C385,298.67 393.08,290.44 398.22,285.3 z" fill="#fb690a" id="svg_53" class="" fill-opacity="1"/><path d="M401.36,373 c2,7.7 4.95,16.44 12.36,19.36 c5.25,2.07 11.4,0.39000000000000007 15.94,-3 s7.76,-8.17 10.72,-13 a126.26,126.26 0 0 1 8.27,-12.54 c5.93,-7.44 14,-13.34 18,-22 c1.18,-2.58 2,-5.34 3.34,-7.82 a48.87,48.87 0 0 1 4.84,-6.47 a70.13,70.13 0 0 0 10.91,-18.94 c0.92,-2.39 1.71,-4.95 1.35,-7.48 c-0.7100000000000001,-4.87 -5.32,-8.07 -9.61,-10.46 c-2.6100000000000003,-1.45 -5.34,-2.8600000000000003 -8.31,-3.08 c-4.34,-0.3400000000000001 -8.61,2 -11.28,5.43 a21.7,21.7 0 0 0 -4.12,12.17 c-0.30000000000000004,5.33 0.7400000000000001,10.870000000000001 -1,15.91 a25,25 0 0 1 -3.77,6.52 a76.45,76.45 0 0 1 -20.51,18.93 A35.59,35.59 0 0 0 426.06,335.5 c-0.7600000000000001,-1.94 -15.66,0 -17.6,0.32000000000000006 c-3.84,0.56 -11.28,1 -13.7,4.66 s0.5800000000000001,9.81 1.56,13.5 z" fill="#a1616a" id="svg_54"/><path d="M401,288.97 a52.65,52.65 0 0 0 -6.16,6 c-4.44,5.35 -6.61,12.31 -7.17,19.24 s0.39000000000000007,13.89 1.58,20.74 q1.62,9.22 3.83,18.31 c0.41000000000000003,-4.57 4.11,-8.35 8.4,-10 s9,-1.47 13.57,-0.8 a66.33,66.33 0 0 1 17.06,4.93 l2.11,-29.57 a51.52,51.52 0 0 0 -0.07,-12 a26.45,26.45 0 0 0 -12.34,-17.95 C413.79,282.99 408.2,282.68 401,288.97 z" fill="#46455b" id="svg_55"/><path d="M778.78,432.86 a69.83,69.83 0 0 0 -6.9,-23.05 c-2.21,-4.4 -4.9,-8.61 -6.29,-13.32 c-1.13,-3.83 -1.35,-7.86 -2.25,-11.75 s-2.49,-7.61 -3.77,-11.41 c-9.05,-27 -2.25,-56.54 -5.17,-84.84 c-1.09,-10.44 -4.29,-21.89 -13.34,-27.33 c-5.38,-3.23 -11.84,-3.73 -18.17,-4 l-2.89,-0.13 l-4.640000000000001,-0.23 c-6.72,-0.33000000000000007 -13.46,-0.5800000000000001 -20,0.8300000000000001 c-8,1.75 -17.48,7.38 -20,15.55 c-1.3800000000000001,-0.7100000000000001 -2.77,-1.34 -4.05,-1.9300000000000002 a72.64,72.64 0 0 0 -16.09,-5 a60.13,60.13 0 0 0 13.66,-5.28 c10,-5.82 12.32,-22.82 14.36,-34.19 s0.18000000000000002,-23.12 -3.21,-34.17 a58.75,58.75 0 0 0 -4.55,-11.32 a39.49,39.49 0 0 0 -56.16,-13.9 c-9.33,6.11 -18,15 -25.12,23.59 c-1,1.18 -5.18,5.36 -3.79,7.12 c0.78,1 3.35,0.2 6.05,-1 a36.69,36.69 0 0 0 -3.14,14.9 a37.12,37.12 0 0 0 18.23,31.92 l1,9.2 v0.07 c0.11000000000000001,3.07 0.16000000000000003,6.14 0.2,9.2 c0,2.15 0,4.35 -0.06000000000000001,6.55 a45.16,45.16 0 0 1 -14.92,11.1 c4.7,0.78 9.18,-0.32000000000000006 13.54,-2.2 a19.3,19.3 0 0 1 -3.5,6.74 c1.2,-0.42000000000000004 2.4,-0.8 3.6,-1.2 a26.19,26.19 0 0 0 -1.6700000000000002,3.14 a24.3,24.3 0 0 0 -1.61,5.34 a75,75 0 0 0 -6.59,11.78 h0 c-0.8400000000000001,1.87 -1.59,3.77 -2.27,5.7 l0,0.13 q-1,2.88 -1.77,5.84 v0 q-0.36000000000000004,1.42 -0.6600000000000001,2.85 c0,0.07 0,0.14 0,0.21000000000000002 c-0.4,1.9300000000000002 -0.7300000000000001,3.87 -1,5.83 c0,0.13 0,0.26 0,0.4 c-0.11000000000000001,0.91 -0.21000000000000002,1.83 -0.28,2.75 c0,0 0,0.09000000000000002 0,0.14 c-0.08000000000000002,1 -0.14,1.9500000000000002 -0.17,2.93 c0,0.13 0,0.25 0,0.38000000000000006 c0,0.8300000000000001 0,1.6700000000000002 0,2.5 v0.5700000000000001 c0,1.8800000000000001 0.12000000000000001,3.77 0.30000000000000004,5.66 c0,0.23 0,0.47000000000000003 0.07,0.7000000000000001 c0.08000000000000002,0.77 0.17,1.54 0.28,2.3200000000000003 c0,0.18000000000000002 0,0.36000000000000004 0.07,0.53 c0.13,0.93 0.28,1.85 0.45,2.77 c0,0.2 0.09000000000000002,0.41000000000000003 0.13,0.6100000000000001 c0.14,0.7400000000000001 0.29000000000000004,1.47 0.46,2.21 l0.18000000000000002,0.7600000000000001 c0.22000000000000003,0.92 0.45,1.83 0.7100000000000001,2.75 c0.15000000000000002,0.52 0.30000000000000004,1 0.46,1.55 A39,39 0 0 1 599.5,359.5 l-5.47,0.18000000000000002 q-17.56,0.5 -35.09,1.59 c-1.46,-5.63 -6.44,-8.88 -12.71,-9.65 a25.08,25.08 0 0 0 -3,-0.18000000000000002 v0 a16.65,16.65 0 0 0 2.8600000000000003,-3.11 a13.78,13.78 0 0 0 2.2800000000000002,-5 a13.69,13.69 0 0 0 -4.14,3.63 c-0.37000000000000005,0.5 -0.7000000000000001,1 -1,1.46 v-3 a0.47000000000000003,0.47000000000000003 0 0 0 -0.48000000000000004,-0.48000000000000004 h-1 a0.47000000000000003,0.47000000000000003 0 0 0 -0.48000000000000004,0.48000000000000004 v6.11 h-0.2 l-0.3400000000000001,0 c-0.6600000000000001,0.06000000000000001 -1.3,0.14 -1.9300000000000002,0.26 c-6.8100000000000005,1.27 -11.8,5.640000000000001 -11.8,13 a16,16 0 0 0 5.640000000000001,12.18 a35.07,35.07 0 0 0 1.55,6.74 c0.6900000000000002,2.17 1.59,4.53 3.6100000000000003,5.61 a8.25,8.25 0 0 0 3.94,0.7200000000000001 c11.12,0 21.64,-5.13 32.71,-6 c6.84,-0.55 13.71,0.51 20.57,0.30000000000000004 c1,0 2,-0.1 3,-0.18000000000000002 c-9.38,46.45 -20.73,93.49 -14.8,140.41 c0.39000000000000007,3.12 1,6.5 3.33,8.620000000000001 c3.09,2.8200000000000003 7.85,2.36 12,2 a100.3,100.3 0 0 1 33.95,2.71 a10.31,10.31 0 0 0 4.78,0.17 a8.86,8.86 0 0 0 1,-0.29000000000000004 l0.28,-0.11000000000000001 c0.21000000000000002,-0.08000000000000002 0.41000000000000003,-0.16000000000000003 0.6000000000000001,-0.25 l0.29000000000000004,-0.15000000000000002 l0.49000000000000005,-0.30000000000000004 c0.08000000000000002,-0.06000000000000001 0.17,-0.11000000000000001 0.24000000000000002,-0.17 a3.88,3.88 0 0 0 0.49000000000000005,-0.4 l0.14,-0.12000000000000001 a7.13,7.13 0 0 0 0.53,-0.5800000000000001 l0.12000000000000001,-0.18000000000000002 a4.87,4.87 0 0 0 0.32000000000000006,-0.47000000000000003 c0.05000000000000001,-0.08000000000000002 0.1,-0.16000000000000003 0.14,-0.24000000000000002 s0.16000000000000003,-0.30000000000000004 0.23,-0.45 s0.08000000000000002,-0.18000000000000002 0.11000000000000001,-0.27 s0.13,-0.33000000000000007 0.19000000000000003,-0.5 s0,-0.16000000000000003 0.08000000000000002,-0.25 s0.14,-0.5 0.19000000000000003,-0.7500000000000001 l0,-0.16000000000000003 c0,-0.21000000000000002 0.08000000000000002,-0.43000000000000005 0.11000000000000001,-0.6400000000000001 s0,-0.22000000000000003 0,-0.33000000000000007 s0,-0.33000000000000007 0,-0.49000000000000005 l0,-0.36000000000000004 c0,-0.16000000000000003 0,-0.32000000000000006 0,-0.48000000000000004 v-0.8900000000000001 c0,-0.1 0,-0.21000000000000002 0,-0.32000000000000006 h0 c0,-0.8900000000000001 -0.1,-1.79 -0.19000000000000003,-2.6500000000000004 a15.83,15.83 0 0 0 2.18,0.47000000000000003 h0 a12.21,12.21 0 0 0 2.08,0.15000000000000002 h0.1 c0.33000000000000007,0 0.6600000000000001,0 1,-0.08000000000000002 h0 a8.2,8.2 0 0 0 0.8600000000000001,-0.18000000000000002 l0.13,0 a4.62,4.62 0 0 0 0.7600000000000001,-0.30000000000000004 l0.12000000000000001,-0.07 a4.07,4.07 0 0 0 0.5900000000000001,-0.4 l0.09000000000000002,-0.07 a3.48,3.48 0 0 0 0.5,-0.5800000000000001 l0.09000000000000002,-0.15000000000000002 a3.4,3.4 0 0 0 0.35000000000000003,-0.77 c0.5700000000000001,-1.9300000000000002 -0.7300000000000001,-4.11 1.35,-5.88 c2,6.41 4,12.83 4.33,19.46 c0.11000000000000001,2.42 0,5 1.42,7 a29.36,29.36 0 0 0 3,3.06 c3.06,3.31 3.13,8.3 2.92,12.78 c-0.09000000000000002,1.81 -0.19000000000000003,3.62 -0.32000000000000006,5.43 a268.51,268.51 0 0 1 -14.6,70.81 a38.16,38.16 0 0 1 -3.06,7 a33.89,33.89 0 0 1 -7.51,8.26 a95.27,95.27 0 0 1 -13.35,9.49 a40.85,40.85 0 0 0 -6.79,4.51 c-0.08000000000000002,-0.23 -0.17,-0.45 -0.23,-0.6900000000000002 c-0.11000000000000001,-0.46 -0.26,-1 -0.7100000000000001,-1.17 a1.36,1.36 0 0 0 -1,0.16000000000000003 c-4.69,2.06 -9.38,4.12 -13.89,6.53 a16.21,16.21 0 0 0 -5.86,4.53 c-1.44,2 -1.87,5 -0.38000000000000006,7 c1.31,1.75 3.66,2.33 5.83,2.72 c2.7800000000000002,0.49000000000000005 5.57,0.8400000000000001 8.36,1.1 a12.63,12.63 0 0 0 -3.6900000000000004,3.2800000000000002 c-1.44,2 -1.87,5 -0.38000000000000006,7 c1.31,1.75 3.66,2.33 5.83,2.72 c17.73,3.13 35.91,1 53.91,0.47000000000000003 c5.85,-0.19000000000000003 11.83,-0.23 17.37,-2.13 a8.75,8.75 0 0 0 3,-1.57 c2.52,-2.22 2.27,-6.12 1.83,-9.43 l-1.83,-13.52 c-0.27,0 -0.53,0.09000000000000002 -0.79,0.15000000000000002 a199.82,199.82 0 0 1 8.21,-37.4 c6.1,-18.95 15.18,-37.62 15.06,-57.45 c0,-0.48000000000000004 0,-1 0,-1.44 c-0.17,-6.21 -1.28,-12.35 -2,-18.53 c-1.13,-10.34 -1,-20.77 -0.93,-31.16 a67,67 0 0 1 0.8500000000000001,-12.17 c0,-0.14 0.06000000000000001,-0.27 0.09000000000000002,-0.41000000000000003 l16.61,-0.44000000000000006 a11.71,11.71 0 0 0 5.36,-1 a3.52,3.52 0 0 0 1.94,-4.29 c7.08,3.21 16.55,-1.1600000000000001 18.64,-8.6 a15.09,15.09 0 0 0 0.35000000000000003,-1.59 a0.5,0.5 0 0 1 0,-0.12000000000000001 c0.07,-0.5 0.12000000000000001,-1 0.14,-1.49 c0,-0.08000000000000002 0,-0.17 0,-0.25 h0 A27.88,27.88 0 0 0 749,486.91999999999996 c-3.4,-9.63 -8.8,-18.4 -13.88,-27.27 c-2.62,-4.59 -5.16,-9.24 -7.63,-13.91 l2.17,2.79 a9.45,9.45 0 0 0 2.93,2.81 c4.05,2.09 8.29,-2.12 12.41,-4.06 c5.47,-2.58 11.870000000000001,-1.06 17.91,-0.6300000000000001 s13.32,-1.13 15.48,-6.73 A14.76,14.76 0 0 0 778.78,432.86 zM674.65,282.57 c0,2.14 0.14,4.3100000000000005 0.31000000000000005,6.49 a60.64,60.64 0 0 0 -7,-9.3 z" fill="url(#f59ba046-7ebe-407e-be3d-c62856fc1078)" id="svg_56"/><path d="M544,348.76 a13.68,13.68 0 0 1 4.09,-3.6100000000000003 a13.72,13.72 0 0 1 -2.25,5 c-1.7400000000000002,2.37 -3.5700000000000003,4 -4.08,3.6100000000000003 S542.24,351.13 544,348.76 z" fill="#99d55c" id="svg_57"/><path d="M544.22,348.94 a10.09,10.09 0 0 1 3,-2.6900000000000004 a10.25,10.25 0 0 1 -1.6700000000000002,3.7 c-1.3,1.7600000000000002 -2.66,3 -3,2.6900000000000004 S542.92,350.7 544.22,348.94 z" opacity="0.1" id="svg_58"/><path d="M541.57,346.77h1a.48.48,0,0,1,.48.48v11.33a0,0,0,0,1,0,0h-1.9a0,0,0,0,1,0,0V347.25A.48.48,0,0,1,541.57,346.77Z" fill="#f6987e" id="svg_59"/><path d="M559,366.58 a16,16 0 0 1 -32,0 c0,-7.33 4.93,-11.67 11.66,-12.94 a23.51,23.51 0 0 1 4.34,-0.39000000000000007 a24.54,24.54 0 0 1 3,0.18000000000000002 C553.4,354.35 559,358.77 559,366.58 z" fill="#c8ff89" id="svg_60" class="" fill-opacity="1"/><path d="M546,353.43 c-0.29000000000000004,0.55 -1.86,1 -3.7600000000000002,1 a6.63,6.63 0 0 1 -3.58,-0.7500000000000001 a23.51,23.51 0 0 1 4.34,-0.39000000000000007 A24.54,24.54 0 0 1 546,353.43 z" opacity="0.1" id="svg_61"/><path d="M545.67,382.2 a16,16 0 0 1 -16,-16 c0,-7.2 4.75,-11.51 11.29,-12.86 a21.57,21.57 0 0 0 -2.3,0.30000000000000004 c-6.73,1.27 -11.66,5.61 -11.66,12.94 a16,16 0 0 0 16,16 a15.68,15.68 0 0 0 3.59,-0.41000000000000003 C546.28,382.19 546,382.2 545.67,382.2 z" opacity="0.1" id="svg_62"/><path d="M616.2,678.35 c2.21,2 5.59,1.9500000000000002 8.59,1.73 l13.67,-1 c10.86,-0.8 22.09,-1.7000000000000002 31.67,-6.87 a7.53,7.53 0 0 0 2.63,-2 a8.47,8.47 0 0 0 1.15,-4.3100000000000005 a199.59,199.59 0 0 1 8.78,-43.59 c6,-18.85 15,-37.43 14.88,-57.16 c0,-0.48000000000000004 0,-1 0,-1.4300000000000002 c-0.17,-6.18 -1.26,-12.29 -1.9300000000000002,-18.44 c-1.11,-10.29 -1,-20.66 -0.92,-31 a67.27,67.27 0 0 1 0.8400000000000001,-12.11 c0.6300000000000001,-3.25 3,-6.51 1.55,-9.37 c-2.81,-5.55 -13,-7.59 -18.48,-7.79 c-7.38,-0.26 -14.64,1.6700000000000002 -21.77,3.59 c-2.17,0.5900000000000001 -4.44,1.22 -6.08,2.75 c-2.2,2.06 -2.83,5.29 -2.91,8.3 c-0.38000000000000006,13.35 7.3100000000000005,25.77 7.92,39.1 c0.11000000000000001,2.4 0,5 1.4,7 a29,29 0 0 0 3,3.05 c3,3.29 3.09,8.25 2.88,12.71 c-0.09000000000000002,1.8 -0.19000000000000003,3.6 -0.31000000000000005,5.4 a268.86,268.86 0 0 1 -14.43,70.45 a38.42,38.42 0 0 1 -3,7 a33.92,33.92 0 0 1 -7.42,8.22 a94.83,94.83 0 0 1 -13.19,9.44 c-3.11,1.84 -6.43,3.6 -8.56,6.52 S613.56,675.89 616.2,678.35 z" fill="#fda8a8" id="svg_63"/><path d="M616.2,678.35 c2.21,2 5.59,1.9500000000000002 8.59,1.73 l13.67,-1 c10.86,-0.8 22.09,-1.7000000000000002 31.67,-6.87 a7.53,7.53 0 0 0 2.63,-2 a8.47,8.47 0 0 0 1.15,-4.3100000000000005 a199.59,199.59 0 0 1 8.78,-43.59 c6,-18.85 15,-37.43 14.88,-57.16 c0,-0.48000000000000004 0,-1 0,-1.4300000000000002 c-0.17,-6.18 -1.26,-12.29 -1.9300000000000002,-18.44 c-1.11,-10.29 -1,-20.66 -0.92,-31 a67.27,67.27 0 0 1 0.8400000000000001,-12.11 c0.6300000000000001,-3.25 3,-6.51 1.55,-9.37 c-2.81,-5.55 -13,-7.59 -18.48,-7.79 c-7.38,-0.26 -14.64,1.6700000000000002 -21.77,3.59 c-2.17,0.5900000000000001 -4.44,1.22 -6.08,2.75 c-2.2,2.06 -2.83,5.29 -2.91,8.3 c-0.38000000000000006,13.35 7.3100000000000005,25.77 7.92,39.1 c0.11000000000000001,2.4 0,5 1.4,7 a29,29 0 0 0 3,3.05 c3,3.29 3.09,8.25 2.88,12.71 c-0.09000000000000002,1.8 -0.19000000000000003,3.6 -0.31000000000000005,5.4 a268.86,268.86 0 0 1 -14.43,70.45 a38.42,38.42 0 0 1 -3,7 a33.92,33.92 0 0 1 -7.42,8.22 a94.83,94.83 0 0 1 -13.19,9.44 c-3.11,1.84 -6.43,3.6 -8.56,6.52 S613.56,675.89 616.2,678.35 z" opacity="0.1" id="svg_64"/><path d="M616.2,678.35 c2.21,2 5.59,1.9500000000000002 8.59,1.73 l13.67,-1 c10.86,-0.8 22.09,-1.7000000000000002 31.67,-6.87 a7.53,7.53 0 0 0 2.63,-2 a8.47,8.47 0 0 0 1.15,-4.3100000000000005 a199.59,199.59 0 0 1 8.78,-43.59 c6,-18.85 15,-37.43 14.88,-57.16 a287,287 0 0 1 -34.81,1.7200000000000002 a268.86,268.86 0 0 1 -14.43,70.45 a38.42,38.42 0 0 1 -3,7 a33.92,33.92 0 0 1 -7.42,8.22 a94.83,94.83 0 0 1 -13.19,9.44 c-3.11,1.84 -6.43,3.6 -8.56,6.52 S613.56,675.89 616.2,678.35 z" fill="#eeeff3" id="svg_65"/><path d="M616.2,678.35 c2.21,2 5.59,1.9500000000000002 8.59,1.73 l13.67,-1 c10.86,-0.8 22.09,-1.7000000000000002 31.67,-6.87 a7.53,7.53 0 0 0 2.63,-2 a8.47,8.47 0 0 0 1.15,-4.3100000000000005 a199.59,199.59 0 0 1 8.78,-43.59 c6,-18.85 15,-37.43 14.88,-57.16 a287,287 0 0 1 -34.81,1.7200000000000002 a268.86,268.86 0 0 1 -14.43,70.45 a38.42,38.42 0 0 1 -3,7 a33.92,33.92 0 0 1 -7.42,8.22 a94.83,94.83 0 0 1 -13.19,9.44 c-3.11,1.84 -6.43,3.6 -8.56,6.52 S613.56,675.89 616.2,678.35 z" opacity="0.1" id="svg_66"/><path d="M646.4,674.13 a51.5,51.5 0 0 0 9.42,-4.5 l15.07,-8.5 a12.77,12.77 0 0 1 4.47,-1.81 l1.8,13.45 c0.45,3.3 0.6900000000000002,7.18 -1.8,9.39 a8.76,8.76 0 0 1 -3,1.56 c-5.47,1.8900000000000001 -11.37,1.9300000000000002 -17.16,2.11 c-17.78,0.5700000000000001 -35.74,2.6500000000000004 -53.26,-0.47000000000000003 c-2.14,-0.38000000000000006 -4.46,-1 -5.75,-2.7 c-1.47,-2 -1.05,-4.9 0.37000000000000005,-6.93 a16.08,16.08 0 0 1 5.79,-4.51 c4.46,-2.4 9.09,-4.44 13.72,-6.49 a1.34,1.34 0 0 1 0.9500000000000001,-0.16000000000000003 c0.45,0.15000000000000002 0.5900000000000001,0.7000000000000001 0.7100000000000001,1.1600000000000001 c0.81,3.2800000000000002 3.45,5.87 6.46,7.42 C624.23,673.15 639.74,676.25 646.4,674.13 z" fill="#bbbdc8" id="svg_67"/><path d="M646.4,674.13 a51.5,51.5 0 0 0 9.42,-4.5 l15.07,-8.5 a12.77,12.77 0 0 1 4.47,-1.81 l1.8,13.45 c0.45,3.3 0.6900000000000002,7.18 -1.8,9.39 a8.76,8.76 0 0 1 -3,1.56 c-5.47,1.8900000000000001 -11.37,1.9300000000000002 -17.16,2.11 c-17.78,0.5700000000000001 -35.74,2.6500000000000004 -53.26,-0.47000000000000003 c-2.14,-0.38000000000000006 -4.46,-1 -5.75,-2.7 c-1.47,-2 -1.05,-4.9 0.37000000000000005,-6.93 a16.08,16.08 0 0 1 5.79,-4.51 c4.46,-2.4 9.09,-4.44 13.72,-6.49 a1.34,1.34 0 0 1 0.9500000000000001,-0.16000000000000003 c0.45,0.15000000000000002 0.5900000000000001,0.7000000000000001 0.7100000000000001,1.1600000000000001 c0.81,3.2800000000000002 3.45,5.87 6.46,7.42 C624.23,673.15 639.74,676.25 646.4,674.13 z" opacity="0.1" id="svg_68"/><path d="M626.2,692.35 c2.21,2 5.59,1.9500000000000002 8.59,1.73 l13.67,-1 c10.86,-0.8 22.09,-1.7000000000000002 31.67,-6.87 a7.53,7.53 0 0 0 2.63,-2 a8.47,8.47 0 0 0 1.15,-4.3100000000000005 a199.59,199.59 0 0 1 8.78,-43.59 c6,-18.85 15,-37.43 14.88,-57.16 c0,-0.48000000000000004 0,-1 0,-1.4300000000000002 c-0.17,-6.18 -1.26,-12.29 -1.9300000000000002,-18.44 c-1.11,-10.29 -1,-20.66 -0.92,-31 a67.27,67.27 0 0 1 0.8400000000000001,-12.11 c0.6300000000000001,-3.25 3,-6.51 1.55,-9.37 c-2.81,-5.55 -13,-7.59 -18.48,-7.79 c-7.38,-0.26 -14.64,1.6700000000000002 -21.77,3.59 c-2.17,0.5900000000000001 -4.44,1.22 -6.08,2.75 c-2.2,2.06 -2.83,5.29 -2.91,8.3 c-0.38000000000000006,13.35 7.3100000000000005,25.77 7.92,39.1 c0.11000000000000001,2.4 0,5 1.4,7 a29,29 0 0 0 3,3.05 c3,3.29 3.09,8.25 2.88,12.71 c-0.09000000000000002,1.8 -0.19000000000000003,3.6 -0.31000000000000005,5.4 a268.86,268.86 0 0 1 -14.43,70.45 a38.42,38.42 0 0 1 -3,7 a33.92,33.92 0 0 1 -7.42,8.22 a94.83,94.83 0 0 1 -13.19,9.44 c-3.11,1.84 -6.43,3.6 -8.56,6.52 S623.56,689.89 626.2,692.35 z" fill="#fda8a8" id="svg_69"/><path d="M626.2,692.35 c2.21,2 5.59,1.9500000000000002 8.59,1.73 l13.67,-1 c10.86,-0.8 22.09,-1.7000000000000002 31.67,-6.87 a7.53,7.53 0 0 0 2.63,-2 a8.47,8.47 0 0 0 1.15,-4.3100000000000005 a199.59,199.59 0 0 1 8.78,-43.59 c6,-18.85 15,-37.43 14.88,-57.16 a287,287 0 0 1 -34.81,1.7200000000000002 a268.86,268.86 0 0 1 -14.43,70.45 a38.42,38.42 0 0 1 -3,7 a33.92,33.92 0 0 1 -7.42,8.22 a94.83,94.83 0 0 1 -13.19,9.44 c-3.11,1.84 -6.43,3.6 -8.56,6.52 S623.56,689.89 626.2,692.35 z" fill="#eeeff3" id="svg_70"/><path d="M656.4,688.13 a51.5,51.5 0 0 0 9.42,-4.5 l15.07,-8.5 a12.77,12.77 0 0 1 4.47,-1.81 l1.8,13.45 c0.45,3.3 0.6900000000000002,7.18 -1.8,9.39 a8.76,8.76 0 0 1 -3,1.56 c-5.47,1.8900000000000001 -11.37,1.9300000000000002 -17.16,2.11 c-17.78,0.5700000000000001 -35.74,2.6500000000000004 -53.26,-0.47000000000000003 c-2.14,-0.38000000000000006 -4.46,-1 -5.75,-2.7 c-1.47,-2 -1.05,-4.9 0.37000000000000005,-6.93 a16.08,16.08 0 0 1 5.79,-4.51 c4.46,-2.4 9.09,-4.44 13.72,-6.49 a1.34,1.34 0 0 1 0.9500000000000001,-0.16000000000000003 c0.45,0.15000000000000002 0.5900000000000001,0.7000000000000001 0.7100000000000001,1.1600000000000001 c0.81,3.2800000000000002 3.45,5.87 6.46,7.42 C634.23,687.15 649.74,690.25 656.4,688.13 z" fill="#bbbdc8" id="svg_71"/><path d="M606.81,286.71 c4.87,-6 5,-14.38 4.88,-22.08 c0,-3 -0.09000000000000002,-6.1 -0.2,-9.15 v-0.07 a103.15,103.15 0 0 0 -1.77,-16.7 v0 a60.69,60.69 0 0 0 -2.1,-7.8 c0.6600000000000001,-0.15000000000000002 1.32,-0.29000000000000004 2,-0.41000000000000003 a81.94,81.94 0 0 1 31.75,0 c1.81,0.36000000000000004 6.39,0.28 9,1.17 a3,3 0 0 1 1.81,1.27 c0.51,1.07 -0.54,4.17 -1.3,6.92 h0 a13.52,13.52 0 0 0 -0.7000000000000001,3.84 a26.37,26.37 0 0 0 0.56,3.6500000000000004 c0.47000000000000003,2.21 1.09,4.4 1.3800000000000001,6.640000000000001 c0.51,3.8200000000000003 0.06000000000000001,7.71 0.31000000000000005,11.56 s1.36,7.9 4.29,10.41 A202.14,202.14 0 0 0 606.81,286.71 z" fill="#fda8a8" id="svg_72"/><path d="M654.73,246.91000000000003 c-1.33,0.11000000000000001 -2.6500000000000004,0.24000000000000002 -4,0.39000000000000007 A201.48,201.48 0 0 0 611.49,255.5 v-0.07 l-1.77,-16.7 v0 c0,-1 0,-2 0,-3.05 c0,-1.71 -0.05000000000000001,-3.44 -0.09000000000000002,-5.16 a81.94,81.94 0 0 1 31.75,0 c1.81,0.36000000000000004 6.39,0.28 9,1.17 c0,1.6300000000000001 0,3.26 0.06000000000000001,4.890000000000001 a21.81,21.81 0 0 0 0.45,3.3 h0 A12.56,12.56 0 0 0 654.73,246.91000000000003 z" opacity="0.1" id="svg_73"/><circle cx="629.5" cy="214.5" r="37" fill="#fda8a8" id="svg_74"/><path d="M597,354.01 c-6.57,-23.25 -0.5700000000000001,-48.22 15.12,-66.58 c3.49,-4.09 7,-8.29 11.58,-10.74 c5.45,-2.9 11.9,-3 18.07,-3.06 c5.45,0 11.07,0 16.08,2.17 c6.77,2.89 11.44,9.17 15.38,15.4 c4.2,6.640000000000001 8,13.83 8.64,21.67 c0.3400000000000001,4.65 -0.48000000000000004,9.37 0.21000000000000002,14 c0.8800000000000001,5.87 4.15,11.13 5.49,16.91 c0.7300000000000001,3.12 0.8800000000000001,6.35 1.35,9.53 A89.24,89.24 0 0 0 692,366.15 a460.75,460.75 0 0 0 40.56,94.72 c5,8.83 10.35,17.56 13.71,27.13 c1.52,4.33 2.62,9 1.3800000000000001,13.46 c-2.07,7.4 -11.42,11.75 -18.41,8.56 a3.51,3.51 0 0 1 -1.92,4.26 a11.46,11.46 0 0 1 -5.3,1 l-61.76,1.6400000000000001 a22.28,22.28 0 0 0 -4.8100000000000005,0.6500000000000001 c-7.26,1.86 -4.53,5 -5.3100000000000005,7.62 c-0.9500000000000001,3.2 -5.54,2.94 -8.74,2 c0.49000000000000005,4.67 0.6000000000000001,10.38 -5.43,11.74 a10.19,10.19 0 0 1 -4.72,-0.16000000000000003 a98.42,98.42 0 0 0 -33.54,-2.7 c-4.12,0.38000000000000006 -8.83,0.8400000000000001 -11.88,-2 c-2.3,-2.11 -2.9,-5.47 -3.29,-8.57 c-6.15,-49 6.5,-98.07 16,-146.48 c1.28,-6.53 0.8200000000000001,-17.11 -1.1,-23.49 z" fill="#c8ff89" id="svg_75" class="" fill-opacity="1"/><path d="M679,320.24 c1.45,4.18 3.26,8.29 3.75,12.69 c0.39000000000000007,3.52 -0.08000000000000002,7.08 0.13,10.61 a54.38,54.38 0 0 0 2.41,11.53 A182.39,182.39 0 0 0 692.4,376.5 c1.34,3.15 2.89,6.62 1.81,9.870000000000001 s-4.43,5.26 -5.39,8.49 c-1,3.41 1,7 3.55,9.49 s5.74,4.26 8.1,6.91 c2.5700000000000003,2.89 4,6.58 5.8100000000000005,10 a92.52,92.52 0 0 0 8.81,12.85 l12.09,15.69 a9.44,9.44 0 0 0 2.9,2.8 c4,2.08 8.19,-2.11 12.26,-4 c5.4,-2.5700000000000003 11.72,-1.06 17.69,-0.6300000000000001 s13.16,-1.12 15.29,-6.7 a14.72,14.72 0 0 0 0.43000000000000005,-7 a69.74,69.74 0 0 0 -6.82,-22.93 c-2.18,-4.38 -4.84,-8.57 -6.21,-13.26 c-1.12,-3.81 -1.34,-7.82 -2.23,-11.69 s-2.46,-7.57 -3.72,-11.35 c-8.94,-26.86 -2.22,-56.25 -5.11,-84.41 c-1.07,-10.39 -4.24,-21.78 -13.18,-27.19 c-5.3100000000000005,-3.21 -11.69,-3.71 -18,-4 l-2.85,-0.13 l-4.59,-0.23 c-6.640000000000001,-0.33000000000000007 -13.3,-0.5800000000000001 -19.77,0.8300000000000001 c-9.1,2 -20.05,9.07 -20.41,19.23 A118.45,118.45 0 0 0 679,320.24 z" fill="#fb690a" id="svg_76" class="" fill-opacity="1"/><path d="M713.09,259.04 a115.26,115.26 0 0 1 1.83,20.62 c0.18000000000000002,19.74 2.31,39.4 4.45,59 l1.4100000000000001,13 c0.26,2.4 0.5700000000000001,4.92 2,6.85 s4.43,2.94 6.32,1.45 c1.1600000000000001,-4.59 0.93,-9.41 0.7000000000000001,-14.14 q-0.7500000000000001,-15.09 -1.49,-30.19 c-0.48000000000000004,-9.8 -1,-19.61 -2.19,-29.35 A194.15,194.15 0 0 0 722,263.87 a26.45,26.45 0 0 0 -1.4300000000000002,-4.47 l-2.85,-0.13 z" opacity="0.1" id="svg_77"/><path d="M647.75,267.5 c-6.13,-0.8800000000000001 -12.55,-1.33 -18.37,0.8 c-5.5600000000000005,2.05 -10,6.26 -14,10.69 a37.16,37.16 0 0 0 -6.68,9.69 c-3.41,7.84 -2.08,16.88 0,25.18 c5.67,22.86 16.93,44.91 35,60 a130.36,130.36 0 0 0 17.51,12 c8,4.69 16.26,9 25.11,11.71 c2.47,0.7600000000000001 5.1,1.4 7.63,0.8600000000000001 s4.92,-2.59 5,-5.18 c-14.5,-8.15 -27.5,-18.68 -40.41,-29.16 a83.51,83.51 0 0 1 -9.91,-9 c-4.58,-5.15 -7.8100000000000005,-11.37 -12.25,-16.64 c-4,-4.73 -9,-8.72 -12,-14.13 a37.7,37.7 0 0 1 -3.73,-11.78 c-1.48,-8.37 -1.7600000000000002,-17.26 1.56,-25.09 s10.93,-14.26 19.43,-14.12 c4.36,0.07 8.51,1.8 12.53,3.49 L679.47,287.5 c-0.31000000000000005,-0.14 1.45,-4.53 1.37,-5.14 c-0.24000000000000002,-1.9100000000000001 -0.5800000000000001,-1.94 -2,-3.39 c-2.42,-2.42 -6.18,-4.12 -9.25,-5.53 A79.14,79.14 0 0 0 647.75,267.5 z" fill="#fb690a" id="svg_78" class="" fill-opacity="1"/><path d="M597.39,207.5 A42.83,42.83 0 0 0 616.78,197.5 l-5.29,27.76 a136.49,136.49 0 0 0 15.3,-8.24 c0.7100000000000001,12.7 -0.32000000000000006,25.69 -5,37.51 s-13.31,22.4 -24.89,27.65 c10.28,1.7200000000000002 19.51,-5.66 28.66,-10.65 c6.38,-3.47 17.28,0.1 24.26,-2 c5.92,-1.7400000000000002 12,-3.26 17.34,-6.37 c9.92,-5.79 12.17,-22.7 14.18,-34 s0.18000000000000002,-23 -3.16,-34 a59.83,59.83 0 0 0 -4.49,-11.26 a38.86,38.86 0 0 0 -55.49,-13.82 c-9.22,6.07 -17.77,15 -24.81,23.47 c-1,1.17 -5.13,5.33 -3.7600000000000002,7.08 c1.6700000000000002,2.12 11.47,-3.92 13.13,-4.74 C602.28,197.7 599.3,207.02999999999997 597.39,207.5 z" fill="#ffd566" id="svg_79"/><g opacity="0.1" id="svg_80" class=""><path d="M639,530.93 a10.19,10.19 0 0 1 -4.72,-0.16000000000000003 a98.42,98.42 0 0 0 -33.54,-2.7 c-4.12,0.38000000000000006 -8.83,0.8400000000000001 -11.88,-2 c-2.3,-2.11 -2.9,-5.47 -3.29,-8.57 c-6.15,-49 6.5,-98.07 16,-146.48 c1.28,-6.53 0.8200000000000001,-17.11 -1.1,-23.49 l-0.45,-1.55 a70.85,70.85 0 0 1 0.6300000000000001,-40.33 A71.39,71.39 0 0 0 597,354.01 l0.45,1.55 c1.92,6.38 2.38,17 1.1,23.49 c-9.47,48.41 -22.12,97.51 -16,146.48 c0.39000000000000007,3.1 1,6.46 3.29,8.57 c3,2.81 7.76,2.35 11.88,2 a98.42,98.42 0 0 1 33.54,2.7 a10.19,10.19 0 0 0 4.72,0.16000000000000003 c4.92,-1.11 5.75,-5.12 5.63,-9.09 A7.83,7.83 0 0 1 639,530.93 z" id="svg_81"/><path d="M732.26,502.02 a3.51,3.51 0 0 1 -1.92,4.26 a11.46,11.46 0 0 1 -5.3,1 l-61.76,1.6400000000000001 a22.28,22.28 0 0 0 -4.8100000000000005,0.6500000000000001 c-7.26,1.86 -4.53,5 -5.3100000000000005,7.62 c-0.9500000000000001,3.2 -5.54,2.94 -8.74,2 c0.30000000000000004,2.85 0.45,6.08 -0.8400000000000001,8.48 c2.81,0.42000000000000004 5.83,0.05000000000000001 6.58,-2.48 s-1.9500000000000002,-5.76 5.3100000000000005,-7.62 a22.28,22.28 0 0 1 4.8100000000000005,-0.6500000000000001 L722,515.28 a11.46,11.46 0 0 0 5.3,-1 a3.51,3.51 0 0 0 1.92,-4.26 c7,3.19 16.34,-1.1600000000000001 18.41,-8.56 a14.39,14.39 0 0 0 0.52,-3.44 C744.41,502.5 737.64,504.5 732.26,502.02 z" id="svg_82"/></g><path d="M649.41,293.06 a345.92,345.92 0 0 1 14.07,34.67 c3.2800000000000002,9.51 6.17,19.5 5.08,29.5 s-7,20.1 -16.6,23.25 c-4.08,1.34 -8.45,1.35 -12.74,1.45 a269.87,269.87 0 0 0 -30.71,2.48 a135.24,135.24 0 0 1 -14.31,1.59 c-6.78,0.22000000000000003 -13.56,-0.8400000000000001 -20.32,-0.29000000000000004 c-10.94,0.8900000000000001 -21.33,6 -32.31,6 a8.2,8.2 0 0 1 -3.9,-0.7200000000000001 c-2,-1.08 -2.89,-3.42 -3.5700000000000003,-5.58 c-1.53,-4.88 -2.73,-10.48 -0.14,-14.89 c3.19,-5.43 10.44,-6.52 16.73,-7 q21.24,-1.5 42.53,-2.1 c12.11,-0.3400000000000001 25.23,-0.8 34.62,-8.46 a4.94,4.94 0 0 0 1.51,-1.7400000000000002 a5.55,5.55 0 0 0 -0.12000000000000001,-3.5700000000000003 a155.52,155.52 0 0 1 -4.74,-44.55 a6.6,6.6 0 0 1 1,-3.8200000000000003 a6.27,6.27 0 0 1 3.17,-1.84 a46.41,46.41 0 0 1 25.88,-0.7200000000000001 " fill="#fda8a8" id="svg_83"/><path d="M624.24,303.09 a7.51,7.51 0 0 0 -3.62,2.67 c0.4,-4.17 -0.14,-8.38 -0.06000000000000001,-12.58 s0.8600000000000001,-8.58 3.51,-11.84 c3.37,-4.16 9.1,-5.65 14.46,-5.79 c7.78,-0.21000000000000002 15.83,2.05 21.53,7.35 a22,22 0 0 1 6.75,13 c0.18000000000000002,1.37 0.78,6.51 -0.6500000000000001,7.39 c-1.25,0.78 -6,-1.9100000000000001 -7.53,-2.34 A50.52,50.52 0 0 0 624.24,303.09 z" fill="#bced80" id="svg_84" class="" fill-opacity="1"/><circle cx="473" cy="60" r="7" fill="#fb690a" opacity="0.1" id="svg_85" class="" fill-opacity="1"/><circle cx="520" cy="195" r="7" fill="#fb690a" opacity="0.1" id="svg_86" class="" fill-opacity="1"/><circle cx="387" cy="67" r="7" fill="#fb690a" opacity="0.1" id="svg_87" class="" fill-opacity="1"/><circle cx="172" cy="386" r="18" fill="#fb690a" opacity="0.1" id="svg_88" class="" fill-opacity="1"/><circle cx="897" cy="100" r="7" fill="#fb690a" opacity="0.1" id="svg_89" class="" fill-opacity="1"/><circle cx="905" cy="195" r="23" fill="#fb690a" opacity="0.1" id="svg_90" class="" fill-opacity="1"/><circle cx="942" cy="130" r="7" fill="#fb690a" opacity="0.1" id="svg_91" class="" fill-opacity="1"/><circle cx="880" cy="258" r="7" fill="#fb690a" opacity="0.1" id="svg_92" class="" fill-opacity="1"/><circle cx="459" cy="116" r="7" fill="#fb690a" opacity="0.1" id="svg_93" class="" fill-opacity="1"/><circle cx="197" cy="470" r="7" fill="#fb690a" opacity="0.1" id="svg_94" class="" fill-opacity="1"/><circle cx="186" cy="310" r="7" fill="#6c63ff" opacity="0.1" id="svg_95"/><circle cx="570" cy="53" r="7" fill="#fb690a" opacity="0.1" id="svg_96" class="" fill-opacity="1"/><circle cx="593" cy="116" r="7" fill="#fb690a" opacity="0.1" id="svg_97" class="" fill-opacity="1"/></g></svg>
